<?xml version="1.0" encoding="utf-8"?>
<!-- Generator: Adobe Illustrator 15.0.2, SVG Export Plug-In . SVG Version: 6.00 Build 0)  -->
<!DOCTYPE svg PUBLIC "-//W3C//DTD SVG 1.1//EN" "http://www.w3.org/Graphics/SVG/1.1/DTD/svg11.dtd">
<svg version="1.1" id="Layer_1" xmlns="http://www.w3.org/2000/svg" xmlns:xlink="http://www.w3.org/1999/xlink" x="0px" y="0px"
	 width="119.786px" height="27.46px" viewBox="0 0 119.786 27.46" enable-background="new 0 0 119.786 27.46" fill="#ffffff" xml:space="preserve">
<g>
	<path d="M97.994,5.956c-5.156-2.419-10.001-3.539-14.532-3.362C79.83,2.81,74.998,4.032,68.963,6.268
		c-0.074-0.321-0.17-0.634-0.252-0.953c-0.283,0.127-0.594,0.15-0.885,0.097c-0.002,0.263,0.027,0.529,0.016,0.79L60.928,5.49
		l0.748-3.562L60.508,0l-1.794,2.842l-3.448-0.007l-0.623-2.593L53.519,1.9L52.78,5.928c-6.315-0.274-10.446-0.873-12.395-1.787
		c-0.505-0.237-1.199-0.636-2.082-1.206c-1.015-0.78-1.68-1.249-1.994-1.396c-3.347-2.028-9.702-0.904-19.072,3.369
		C8.513,8.952,2.767,12.778,0,16.389c5.221-1.155,12.698-1.64,22.433-1.449c10.474,0.235,17.696,1.28,21.659,3.14
		c1.445,0.677,3.276,2.17,5.496,4.477c2.214,2.303,4.047,3.797,5.495,4.477c2.264,1.062,5.053,0.146,8.368-2.751
		c2.519-2.199,4.509-3.397,5.983-3.607c0.062-0.039,0.113-0.087,0.188-0.119c0.674-0.285,1.24-0.63,1.91-0.858
		c1.275-1.502,4.675-1.759,10.244-0.748c4.242,0.766,8.168,1.801,11.775,3.107c3.455-2.137,7.717-3.285,12.778-3.445
		c3.261-0.079,7.745,0.337,13.457,1.25C115.447,15.369,108.184,10.734,97.994,5.956z"/>
</g>
</svg>
