<?xml version="1.0" encoding="utf-8"?>
<!-- Generator: Adobe Illustrator 17.1.0, SVG Export Plug-In . SVG Version: 6.00 Build 0)  -->
<!DOCTYPE svg PUBLIC "-//W3C//DTD SVG 1.1//EN" "http://www.w3.org/Graphics/SVG/1.1/DTD/svg11.dtd">
<svg version="1.1" id="Layer_1" xmlns="http://www.w3.org/2000/svg" xmlns:xlink="http://www.w3.org/1999/xlink" x="0px" y="0px"
	 viewBox="654.6 99.8 790 880.1" enable-background="new 654.6 99.8 790 880.1" xml:space="preserve">
<g>
	<path fill="#ABD156" d="M782.4,368.8c0.4,0.2,0.9,0.5,1.3,0.7C783.2,369.2,782.8,369,782.4,368.8z"/>
	<path fill="#ABD156" d="M780.4,367.7c0.4,0.2,0.9,0.5,1.3,0.7C781.3,368.2,780.8,368,780.4,367.7z"/>
	<path fill="#ABD156" d="M778.5,366.6c0.5,0.3,0.9,0.5,1.4,0.8C779.4,367.2,778.9,366.9,778.5,366.6z"/>
	<path fill="#ABD156" d="M784.4,369.8c0.4,0.2,0.9,0.4,1.3,0.7C785.3,370.3,784.9,370.1,784.4,369.8z"/>
	<path fill="#ABD156" d="M776.6,365.5c0.5,0.3,1.1,0.6,1.6,1C777.6,366.1,777.1,365.8,776.6,365.5z"/>
	<path fill="#ABD156" d="M788.8,371.9c0.5,0.2,1,0.5,1.6,0.7C789.8,372.4,789.3,372.2,788.8,371.9z"/>
	<path fill="#ABD156" d="M793.6,374c-0.8-0.3-1.7-0.7-2.5-1C792,373.3,792.8,373.7,793.6,374z"/>
	<path fill="#ABD156" d="M739,351.7c17.8-0.4,24.8,6.2,37.5,13.8c-14-8.4-21.1-15.5-43-13.5c-27.6,2.5-53.7,12.8-73,32.3
		c16.5,10.7,35.6,14,55.2,14.4c-8.4-0.2-16.8-0.9-24.8-2.5C732.7,397.6,760.7,372.3,739,351.7z M684.6,370.9
		c3.9-2.7,8.1-4.7,12.3-6.4c4.3-1.6,8.7-3,13.3-3.8c4.5-0.8,9.2-1.3,14-0.5c-8.3,4.3-16.4,7.7-24.6,10.9c-8.3,3.3-16.3,6.1-24.9,9.8
		C677,376.8,680.7,373.6,684.6,370.9z"/>
	<path fill="#ABD156" d="M786.6,370.9c0.5,0.2,0.9,0.4,1.4,0.6C787.5,371.3,787,371.1,786.6,370.9z"/>
	<path fill="#ABD156" d="M1154.3,161.1c19.2-15.9,29.8-36.2,32.3-61.2h0c-1.9,18-7.7,32.5-17.6,45.6c6.8-13.3,11.7-27.6,11.8-45.6
		h-15.2C1157.6,117.8,1153.9,137.1,1154.3,161.1z M1159.5,134.4c0.3-3.9,1-7.7,2-11.4c1.1-3.7,2.4-7.4,4.2-10.9
		c1.8-3.5,4.1-6.9,7.4-9.4c-1.5,7.8-2.8,14.9-4.8,22.2c-2.1,7.2-4.4,14.3-8.3,21.4C1159.2,142.2,1159.2,138.3,1159.5,134.4z"/>
	<path fill="#ABD156" d="M917.5,507.3c0.1,0.3,0.2,0.7,0.3,1.1C917.7,508,917.6,507.7,917.5,507.3z"/>
	<path fill="#ABD156" d="M917.2,506.1c0.1,0.3,0.2,0.7,0.3,1C917.3,506.8,917.3,506.4,917.2,506.1z"/>
	<path fill="#ABD156" d="M916.8,504.9c0.1,0.3,0.2,0.6,0.3,1C917,505.5,916.9,505.2,916.8,504.9z"/>
	<path fill="#ABD156" d="M918.7,512.5c0.1,0.4,0.2,0.9,0.3,1.3C918.9,513.4,918.8,512.9,918.7,512.5z"/>
	<path fill="#ABD156" d="M916.5,503.7c0.1,0.3,0.2,0.6,0.3,0.9C916.7,504.3,916.6,504,916.5,503.7z"/>
	<path fill="#ABD156" d="M917.8,508.6c0.1,0.4,0.2,0.7,0.3,1.1C918,509.3,917.9,509,917.8,508.6z"/>
	<path fill="#ABD156" d="M918.4,511.2c0.1,0.4,0.2,0.8,0.3,1.2C918.6,512,918.5,511.6,918.4,511.2z"/>
	<path fill="#ABD156" d="M918.1,509.9c0.1,0.4,0.2,0.8,0.3,1.2C918.3,510.6,918.2,510.3,918.1,509.9z"/>
	<path fill="#ABD156" d="M914.2,496.4c0,0,0,0.1,0,0.1C914.2,496.5,914.2,496.5,914.2,496.4z"/>
	<path fill="#ABD156" d="M913.6,494.6C913.6,494.6,913.6,494.6,913.6,494.6C913.6,494.6,913.6,494.6,913.6,494.6z"/>
	<path fill="#ABD156" d="M912.9,492.3c0.1,0.2,0.1,0.5,0.2,0.7C913,492.8,912.9,492.6,912.9,492.3z"/>
	<path fill="#ABD156" d="M913.2,493.5c0,0.1,0.1,0.2,0.1,0.3C913.3,493.7,913.3,493.6,913.2,493.5z"/>
	<path fill="#ABD156" d="M916.2,502.6c0.1,0.3,0.2,0.6,0.3,0.9C916.3,503.2,916.2,502.9,916.2,502.6z"/>
	<path fill="#ABD156" d="M914.5,497.4c0,0.1,0.1,0.3,0.1,0.4C914.6,497.6,914.5,497.5,914.5,497.4z"/>
	<path fill="#ABD156" d="M915.5,500.4c0.1,0.2,0.2,0.5,0.2,0.7C915.6,500.9,915.6,500.6,915.5,500.4z"/>
	<path fill="#ABD156" d="M915.8,501.5c0.1,0.3,0.2,0.5,0.2,0.8C916,502,915.9,501.7,915.8,501.5z"/>
	<path fill="#ABD156" d="M915.1,499.4c0.1,0.2,0.1,0.4,0.2,0.6C915.3,499.8,915.2,499.6,915.1,499.4z"/>
	<path fill="#ABD156" d="M914.8,498.4c0.1,0.2,0.1,0.4,0.2,0.5C914.9,498.7,914.9,498.5,914.8,498.4z"/>
	<path fill="#ABD156" d="M919,513.8c3.9,20.2,2.1,48.1-33.6,70.4c24.7-22.5,28.9-73.5,14.2-82c5.3-4.7,10.3-7.9,13.3-9.8
		c-11.3,7.2-50.4,31.9-32.4,94.8C920.9,564.4,923,534.9,919,513.8z M879.2,564.2c-0.7-4.2-0.8-8.4-0.5-12.6
		c0.4-4.2,1.1-8.4,2.6-12.5c1.5-4,3.6-8,7-10.8c-1.4,8.4-1.9,15.9-2.5,23.8c-0.7,7.9-1.2,15.7-2.8,24.2
		C881,572.5,879.9,568.4,879.2,564.2z"/>
	<path fill="#ABD156" d="M932.7,419.2c0.6-0.2,1.3-0.4,2-0.6C934,418.9,933.3,419.1,932.7,419.2z"/>
	<path fill="#ABD156" d="M939.8,417.4c0,0.6-0.1,1.2-0.2,1.8C939.7,418.6,939.7,418,939.8,417.4z"/>
	<path fill="#ABD156" d="M927.4,420.9c0.7-0.2,1.5-0.5,2.3-0.7C928.9,420.4,928.1,420.6,927.4,420.9z"/>
	<path fill="#ABD156" d="M919.7,423.6c1.7-0.7,3.4-1.3,5.1-1.9C923.1,422.3,921.4,423,919.7,423.6z"/>
	<path fill="#ABD156" d="M939.6,419.7c-0.1,0.5-0.1,1-0.2,1.5C939.4,420.7,939.5,420.2,939.6,419.7z"/>
	<path fill="#ABD156" d="M915.5,425.4c1-0.4,2-0.9,3-1.3C917.5,424.5,916.5,424.9,915.5,425.4z"/>
	<path fill="#ABD156" d="M938.4,425.8c0.1-0.6,0.3-1.2,0.4-1.7C938.7,424.6,938.6,425.2,938.4,425.8z"/>
	<path fill="#ABD156" d="M886.7,497.1c16.1-19.2,35-43,20.5-67.9c1-0.5,2.1-1,3.1-1.5c-43.4,20.7-65.4,58.4-65,82.9
		c33.8,2.8,68.3-32.8,84.7-63.9C920.5,464.8,904.8,484.4,886.7,497.1z M859.2,486.2c1.8-4.2,4.2-8,6.9-11.7c2.7-3.6,5.7-7,9.1-10
		c3.4-3,7.1-5.8,11.5-7.3c-4.9,7.6-9.7,14.6-14.9,21.5L864,489l-8.1,10.4C855.9,494.8,857.4,490.3,859.2,486.2z"/>
	<path fill="#ABD156" d="M939.3,421.7c-0.1,0.7-0.2,1.3-0.4,2C939,423,939.2,422.3,939.3,421.7z"/>
	<path fill="#ABD156" d="M937.7,428.5c-0.2,0.7-0.5,1.5-0.7,2.2C937.2,430,937.4,429.2,937.7,428.5z"/>
	<path fill="#ABD156" d="M938.3,426.3c-0.2,0.6-0.3,1.3-0.5,1.9C937.9,427.6,938.1,427,938.3,426.3z"/>
	<path fill="#ABD156" d="M936.8,431.2c-0.2,0.6-0.4,1.3-0.7,1.9C936.4,432.4,936.6,431.8,936.8,431.2z"/>
	<path fill="#ABD156" d="M932.8,441.2c-0.8,1.7-1.7,3.5-2.6,5.3C931.1,444.7,931.9,442.9,932.8,441.2z"/>
	<path fill="#ABD156" d="M911.1,427.3c1-0.5,2-0.9,3.1-1.4C913.2,426.4,912.2,426.8,911.1,427.3z"/>
	<path fill="#ABD156" d="M936,433.5c-0.6,1.6-1.2,3.2-1.9,4.8C934.7,436.7,935.4,435.1,936,433.5z"/>
	<path fill="#ABD156" d="M933.9,438.7c-0.3,0.8-0.7,1.6-1.1,2.4C933.2,440.3,933.5,439.5,933.9,438.7z"/>
	<path fill="#8DB739" d="M951.6,544.8c32.4-34.5,14.2-92.6-1-118.8c-3.2,17.2-12.4,35.2-22.3,49
		C928.7,499.9,933.4,534.5,951.6,544.8z"/>
	<path fill="#ABD156" d="M931.6,230.6c-2.1-6.1-4.2-16.5-5.5-28.7c23.7-5.3,32.7-60.3,22.3-93.8
		C916.4,130.5,923.9,208.4,931.6,230.6z M931.8,149.5c1.6-8.6,5-17.1,11.3-23.5c-1.2,8.8-2.9,16.6-4.2,24.8
		c-1.5,8.1-2.5,16.1-4.8,24.7C930.7,167.1,930.4,158.1,931.8,149.5z"/>
	<path fill="#ABD156" d="M932.1,231.9c-0.1-0.4-0.3-0.7-0.4-1.1C931.8,231.2,932,231.6,932.1,231.9z"/>
	<path fill="#ABD156" d="M805.7,394.8c-0.2,1-0.4,1.9-0.6,2.9C805.3,396.8,805.5,395.8,805.7,394.8z"/>
	<path fill="#ABD156" d="M806.7,389c-0.2,1.8-0.5,3.7-0.9,5.6C806.1,392.7,806.4,390.8,806.7,389z"/>
	<path fill="#ABD156" d="M801.9,382.7c1.7-0.6,3.5-1.2,5.3-1.8C805.4,381.5,803.6,382.1,801.9,382.7z"/>
	<path fill="#ABD156" d="M807.2,383.6c0,0.8-0.1,1.5-0.1,2.3C807.1,385.1,807.1,384.3,807.2,383.6z"/>
	<path fill="#ABD156" d="M807,386.3c-0.1,0.8-0.2,1.6-0.3,2.5C806.8,387.9,806.9,387.1,807,386.3z"/>
	<path fill="#ABD156" d="M748.1,473.2c26-11.2,52.1-81,20.4-72.5c8-6.1,17.2-11.5,27.5-15.7c-46.1,18.8-69.9,59.9-65.6,92.1
		c39.7-1.7,67-46.8,74.6-79.1C798.6,425.1,778.1,461.4,748.1,473.2z M740,450.3c1.2-4.4,2.9-8.6,5-12.7c2.1-4,4.5-7.9,7.5-11.5
		c2.9-3.5,6.3-7,10.8-8.8c-2.4,4-4.1,7.9-6.1,11.8l-5.8,11.7c-4,7.8-8.1,15.3-12.9,23.2C738,459.3,738.8,454.7,740,450.3z"/>
	<path fill="#ABD156" d="M807.2,380.9c0,0.7,0,1.5,0,2.3C807.2,382.4,807.2,381.7,807.2,380.9z"/>
	<path fill="#ABD156" d="M796.5,384.7c1.5-0.6,2.9-1.2,4.4-1.7C799.5,383.6,798,384.1,796.5,384.7z"/>
	<path fill="#ABD156" d="M925.2,240.1c-0.4,0.2-0.8,0.5-1.2,0.7C924.4,240.6,924.8,240.3,925.2,240.1z"/>
	<path fill="#ABD156" d="M834.6,247.6c39.2,7.2,63-10.3,50-30.1c5.7,1.3,11.4,3.1,16.8,5.4c-30.3-13-67.5-9.8-90.5,13
		c32.5,24.7,88.4,16.4,109.8,6.6C903.8,250.1,865.9,256.9,834.6,247.6z M833.5,226.9c3.2-2,6.7-3.2,10.3-4.1
		c3.6-0.8,7.3-1.2,10.9-0.9c3.6,0.2,7.4,0.9,10.8,2.7c-3.7,1.1-6.9,2-10.3,2.8l-9.8,2.4l-9.8,2.2c-3.3,0.8-6.5,1.6-10.1,2.8
		C827.2,231.3,830.3,228.8,833.5,226.9z"/>
	<path fill="#ABD156" d="M923.8,240.9c-0.4,0.2-0.9,0.5-1.4,0.7C922.9,241.4,923.4,241.1,923.8,240.9z"/>
	<path fill="#ABD156" d="M922.4,241.7c-0.5,0.3-1.1,0.5-1.6,0.8C921.3,242.2,921.9,241.9,922.4,241.7z"/>
	<path fill="#ABD156" d="M923,236.1c0.3,0.2,0.5,0.4,0.8,0.7C923.5,236.5,923.3,236.3,923,236.1z"/>
	<path fill="#ABD156" d="M926.5,239.2c-0.3,0.2-0.7,0.5-1.1,0.7C925.8,239.7,926.2,239.4,926.5,239.2z"/>
	<path fill="#ABD156" d="M909.8,227c0.5,0.3,1,0.6,1.6,0.9C910.8,227.6,910.3,227.3,909.8,227z"/>
	<path fill="#ABD156" d="M904.9,224.5c1.2,0.6,2.5,1.2,3.7,1.9C907.3,225.7,906.1,225.1,904.9,224.5z"/>
	<path fill="#ABD156" d="M920,233.7c0.3,0.2,0.6,0.4,0.9,0.7C920.6,234.2,920.3,234,920,233.7z"/>
	<path fill="#ABD156" d="M916.5,231.2c0.2,0.2,0.5,0.3,0.7,0.5C917,231.5,916.8,231.4,916.5,231.2z"/>
	<path fill="#ABD156" d="M912.9,228.9c0.5,0.3,0.9,0.6,1.4,0.8C913.8,229.4,913.4,229.2,912.9,228.9z"/>
	<path fill="#ABD156" d="M901.8,223.1c0.8,0.3,1.6,0.7,2.4,1.1C903.4,223.8,902.6,223.4,901.8,223.1z"/>
	<path fill="#ABD156" d="M802.1,329.7c0.2,0.5,0.4,1.1,0.5,1.6C802.4,330.8,802.3,330.2,802.1,329.7z"/>
	<path fill="#ABD156" d="M803.5,334.1c0.2,0.6,0.3,1.1,0.5,1.7C803.9,335.3,803.7,334.7,803.5,334.1z"/>
	<path fill="#ABD156" d="M804.9,338.9c0.1,0.5,0.3,1,0.4,1.5C805.2,339.9,805.1,339.4,804.9,338.9z"/>
	<path fill="#ABD156" d="M806.4,345.1c0,0.1,0,0.2,0.1,0.3C806.5,345.3,806.5,345.2,806.4,345.1z"/>
	<path fill="#ABD156" d="M800.4,325.2c0.2,0.4,0.3,0.9,0.5,1.3C800.7,326.1,800.6,325.6,800.4,325.2z"/>
	<path fill="#ABD156" d="M786.7,300.3c0.6,0.8,1.1,1.5,1.6,2.3C787.8,301.8,787.3,301.1,786.7,300.3z"/>
	<path fill="#ABD156" d="M807.4,349.9c0.1,0.5,0.2,1,0.3,1.6C807.6,350.9,807.5,350.4,807.4,349.9z"/>
	<path fill="#ABD156" d="M788.9,303.4c0.5,0.8,1.1,1.6,1.6,2.4C789.9,304.9,789.4,304.2,788.9,303.4z"/>
	<path fill="#ABD156" d="M794.3,312.2c0.4,0.6,0.7,1.3,1,2C795,313.5,794.6,312.8,794.3,312.2z"/>
	<path fill="#ABD156" d="M796.2,315.9c0.3,0.6,0.6,1.3,0.9,1.9C796.8,317.2,796.5,316.5,796.2,315.9z"/>
	<path fill="#ABD156" d="M790.5,305.9c1,1.6,2,3.2,2.9,4.8C792.5,309.1,791.5,307.4,790.5,305.9z"/>
	<path fill="#ABD156" d="M798.1,319.9c0.3,0.6,0.5,1.2,0.8,1.7C798.7,321.1,798.4,320.5,798.1,319.9z"/>
	<path fill="#ABD156" d="M774.6,345.7c21.6-23-0.6-58.1-20.1-73c11.1,5.3,22.3,14.4,31.7,27C771.6,280,752.4,269,736,267.2
		c-8.6,44.1,41,86,69.7,98.5C796.6,361.8,785.4,354.8,774.6,345.7z M746.5,304.8c-4.3-8.5-7.2-18.3-5.7-28c4.1,8.8,7.8,16.7,12,24.7
		c4.1,8.1,8.7,15.8,12.4,24.8C757.2,320.9,751.1,313.2,746.5,304.8z"/>
	<path fill="#ABD156" d="M807.5,366.5c-0.5-0.2-1.1-0.4-1.6-0.7C806.4,366,806.9,366.3,807.5,366.5z"/>
	<path fill="#ABD156" d="M808.2,355c0.1,0.6,0.2,1.2,0.2,1.8C808.4,356.1,808.3,355.5,808.2,355z"/>
	<path fill="#ABD156" d="M808.9,360.4c0.1,0.5,0.1,1.1,0.2,1.6C809.1,361.4,809,360.9,808.9,360.4z"/>
	<path fill="#ABD156" d="M809.6,367.3c-0.5-0.2-1.1-0.4-1.7-0.6C808.5,366.9,809,367.1,809.6,367.3z"/>
	<path fill="#ABD156" d="M907.6,190c0.4,1,0.9,2.1,1.3,3.1C908.4,192,908,191,907.6,190z"/>
	<path fill="#ABD156" d="M910.3,197c0.4,1.1,0.8,2.2,1.1,3.3C911.1,199.2,910.7,198.1,910.3,197z"/>
	<path fill="#ABD156" d="M906.2,186.9c0.5,1,0.9,2,1.3,3C907.1,188.9,906.7,187.9,906.2,186.9z"/>
	<path fill="#ABD156" d="M903.1,180.7c1,1.9,2,3.8,2.9,5.9C905.1,184.5,904.1,182.6,903.1,180.7z"/>
	<path fill="#ABD156" d="M904,210.7c-0.1,0-0.2-0.1-0.3-0.1C903.8,210.6,903.9,210.7,904,210.7z"/>
	<path fill="#ABD156" d="M889.9,205.7c-0.1,0-0.2-0.1-0.3-0.1C889.7,205.6,889.8,205.7,889.9,205.7z"/>
	<path fill="#ABD156" d="M911.7,200.9c0.3,0.9,0.6,1.9,0.9,2.8C912.3,202.8,912,201.9,911.7,200.9z"/>
	<path fill="#ABD156" d="M908.8,212.9c-0.1-0.1-0.3-0.1-0.4-0.2C908.6,212.7,908.7,212.8,908.8,212.9z"/>
	<path fill="#ABD156" d="M909.1,193.7c0.4,0.9,0.7,1.8,1,2.8C909.8,195.5,909.4,194.6,909.1,193.7z"/>
	<path fill="#ABD156" d="M878.6,202c21.5,1.6,9.5-43.9-17.7-57.9c15,4.6,30.7,15.3,42.2,36.5c-18-33.2-46.1-40.6-65.9-39.5
		c7,50.2,27.3,56.5,50.9,64C884.8,204.1,881.6,203.1,878.6,202z M859,181.9c-2.8-2.1-5-4.9-6.7-7.8c-3.3-5.9-5.2-12.7-3.8-19.5
		c4.1,5.6,6.8,10.8,9.9,15.9c1.4,2.6,3,5.1,4.6,7.6c1.7,2.5,3.2,4.8,5.6,7.5C865.2,185.7,861.6,184,859,181.9z"/>
	<path fill="#ABD156" d="M914.9,212.8c0.3,1.2,0.6,2.5,0.9,3.8C915.5,215.3,915.2,214.1,914.9,212.8z"/>
	<path fill="#ABD156" d="M899.3,208.8c-0.1,0-0.1-0.1-0.2-0.1C899.1,208.8,899.2,208.8,899.3,208.8z"/>
	<path fill="#ABD156" d="M912.8,204.6c0.3,1.2,0.7,2.3,1,3.5C913.5,206.9,913.1,205.8,912.8,204.6z"/>
	<path fill="#ABD156" d="M913.9,208.7c0.3,1,0.5,2.1,0.8,3.2C914.4,210.8,914.2,209.7,913.9,208.7z"/>
	<path fill="#ABD156" d="M894.5,207.2c0,0-0.1,0-0.1,0C894.4,207.2,894.5,207.2,894.5,207.2z"/>
	<path fill="#ABD156" d="M913.7,215.4c-0.2-0.1-0.3-0.2-0.5-0.3C913.3,215.2,913.5,215.3,913.7,215.4z"/>
	<path fill="#ABD156" d="M1231.9,193.4c-0.2-0.2-0.5-0.3-0.7-0.5C1231.5,193.1,1231.7,193.3,1231.9,193.4z"/>
	<path fill="#ABD156" d="M1197.4,105.2c-1.5,9-24.2,46.6,30.7,85.6c-3-2.1-5.8-4.3-8.4-6.4C1238.8,138.2,1201.8,130.1,1197.4,105.2z
		 M1205.2,164c-2.5-2.3-4.3-5.1-5.8-8.1c-1.4-3-2.4-6.2-2.6-9.6c-0.3-3.3,0-6.8,1.5-9.9c2.8,6.1,5,11.2,7.6,16.4
		c1.2,2.6,2.5,5.2,3.8,7.8c1.4,2.7,2.6,5.2,4.3,8.2C1210.6,168.3,1207.5,166.3,1205.2,164z"/>
	<path fill="#ABD156" d="M1229.5,191.8c-0.3-0.2-0.7-0.5-1-0.7C1228.9,191.3,1229.2,191.6,1229.5,191.8z"/>
	<path fill="#8DB739" d="M1255.9,131.7c-2.3-12.2-6.1-21.8-11.1-31.8h-35.5C1219.7,114.8,1235,124.5,1255.9,131.7z"/>
	<path fill="#98E29B" d="M1381.6,102.7c0.2-0.7,0.3-0.9,0.3-2.9h-41.7C1358.6,106.8,1374.8,106.9,1381.6,102.7z"/>
	<path fill="#98E29B" d="M1255.9,131.7c-20.9-7.2-36.3-16.8-46.6-31.8h-22.7c-2.6,25-13.2,45.3-32.3,61.2
		c-0.4-24,3.3-43.2,11.3-61.2h-12.8c-9.6,30-5.7,61.1-2.1,67.6c6.4-0.9,21.7-8.9,30.4-22.2c7.6,31.9,46.3,56.2,55.8,56.6
		c4.9-4.8,15.6-40.5,6.9-62.5c5.5,2.6,14.3,2,18.8,0.6c3.4-7.1,2.2-23.1-4.4-40.1h-13.2C1249.8,109.8,1253.7,119.5,1255.9,131.7z
		 M1234.5,195.1c-0.9-0.6-1.7-1.1-2.6-1.7c-0.2-0.2-0.5-0.3-0.7-0.5c-0.6-0.4-1.1-0.8-1.7-1.2c-0.3-0.2-0.7-0.5-1-0.7
		c-0.2-0.1-0.3-0.2-0.5-0.3c-54.9-39-32.2-76.5-30.7-85.6C1210.8,129.2,1244.6,122,1234.5,195.1z"/>
	<path fill="#98E29B" d="M1061.4,255.4c-32.5,38.2-92,31.2-122.2-15.1c58.8-29.6,33.8-131.7,10.1-139.7c-8.1,1-31,13.1-38.2,64.4
		c-28.3-36.1-71.1-34.7-79.2-29.1c-2.8,4.9-4.3,41.6,17.9,66.1c-20.1,3.4-38,14.4-46.8,33.4c-0.4,0.9-0.3,1.9,0.6,2.8
		c23.6,41,102.3,37.9,126.3,9.6c21.4,43.9,76.3,62.5,119.3,39.7c-53.3,64.7-159.4,97-226.6,81.4c10.7-80.3-67.9-116.2-90.1-105.7
		c-5.6,7.5-9.9,38.1,12.7,73c-54.2,0.1-86.9,37.5-90.6,48.2c1.6,6.5,28.8,35.3,80,30.2c-17.3,22.7-14.5,58.5-7.7,66.8
		c26.9,6.8,95.1-30.2,95.5-97.4c44.4,10.9,96.9,1.4,139.4-15.6c-8.4,12.2-15.6,25.2-20.5,39.5c-65.7-4.1-110.5,62.9-100.1,106.1
		c4.2,1.9,18.2,5.6,32.3,1.2c-13.4,33.3-1.7,72,3.9,78.9c10.2,0.2,41.8-12,56.4-54.6c4.2,5.6,13.1,10,18.2,11.1
		c33.6-15.1,47.9-97.9,2.9-138.3c24.2-72.9,68.7-58.5,115.1-124.9c14.4-20.5,22.1-40.6,25.8-61.6c11.6,56.7,7.7,109.8-4.2,167.1
		c-18.1,86.6-35.4,100.1-22.5,104.7c3.7,1.4,7.8-0.9,9.2-4.6c78.5-214.6,32.9-299.4-6.4-393.4h-20.8
		C1077.7,163.8,1102.5,207.4,1061.4,255.4z M948.4,108c21.7,32.6,15.5,100.6-16.1,124.2c-0.1-0.1-0.2-0.2-0.2-0.3
		c-0.1-0.4-0.3-0.7-0.4-1.1c0,0,0-0.1-0.1-0.2C923.9,208.4,916.4,130.5,948.4,108z M837.2,141.1c19.8-1.1,47.9,6.3,65.9,39.5
		c0,0,0,0,0,0.1c1,1.9,2,3.8,2.9,5.9c0.1,0.1,0.1,0.3,0.2,0.4c0.5,1,0.9,2,1.3,3c0,0,0,0,0,0c0.4,1,0.9,2.1,1.3,3.1
		c0.1,0.2,0.2,0.4,0.2,0.6c0.4,0.9,0.7,1.8,1,2.8c0.1,0.2,0.1,0.4,0.2,0.5c0.4,1.1,0.8,2.2,1.1,3.3c0.1,0.2,0.1,0.4,0.2,0.7
		c0.3,0.9,0.6,1.9,0.9,2.8c0.1,0.3,0.2,0.6,0.2,0.8c0.3,1.2,0.7,2.3,1,3.5c0,0.2,0.1,0.4,0.1,0.5c0.3,1,0.5,2.1,0.8,3.2
		c0.1,0.3,0.2,0.7,0.2,1c0.3,1.2,0.6,2.5,0.9,3.8c-0.7-0.4-1.4-0.8-2.1-1.3c-0.2-0.1-0.3-0.2-0.5-0.3c-1.4-0.8-2.9-1.5-4.3-2.2
		c-0.1-0.1-0.3-0.1-0.4-0.2c-1.5-0.7-2.9-1.3-4.4-2c-0.1,0-0.2-0.1-0.3-0.1c-1.5-0.6-3-1.2-4.5-1.7c-0.1,0-0.1-0.1-0.2-0.1
		c-1.5-0.6-3-1.1-4.5-1.6c0,0-0.1,0-0.1,0c-1.5-0.5-3-1-4.5-1.5c-0.1,0-0.2-0.1-0.3-0.1c-0.5-0.2-1.1-0.3-1.6-0.5
		C864.5,197.7,844.1,191.4,837.2,141.1z M810.8,235.9c23-22.9,60.3-26,90.5-13c0.2,0.1,0.3,0.1,0.5,0.2c0.8,0.3,1.6,0.7,2.4,1.1
		c0.2,0.1,0.5,0.2,0.7,0.3c1.2,0.6,2.5,1.2,3.7,1.9c0.4,0.2,0.8,0.4,1.2,0.7c0.5,0.3,1,0.6,1.6,0.9c0.5,0.3,1.1,0.6,1.6,1
		c0.5,0.3,0.9,0.6,1.4,0.8c0.7,0.5,1.5,1,2.2,1.5c0.2,0.2,0.5,0.3,0.7,0.5c1,0.7,1.9,1.4,2.8,2.1c0.3,0.2,0.6,0.4,0.9,0.7
		c0.7,0.6,1.4,1.1,2.1,1.7c0.3,0.2,0.5,0.4,0.8,0.7c0.9,0.8,1.8,1.6,2.7,2.4c-0.3,0.2-0.7,0.5-1.1,0.7c-0.1,0-0.1,0.1-0.2,0.1
		c-0.4,0.2-0.8,0.5-1.2,0.7c0,0-0.1,0.1-0.2,0.1c-0.4,0.2-0.9,0.5-1.4,0.7c0,0,0,0-0.1,0c-0.5,0.3-1.1,0.5-1.6,0.8c0,0-0.1,0-0.1,0
		C899.1,252.3,843.3,260.6,810.8,235.9z M736,267.2c16.4,1.8,35.6,12.7,50.3,32.5c0.1,0.2,0.3,0.4,0.4,0.6c0.6,0.8,1.1,1.5,1.6,2.3
		c0.2,0.3,0.4,0.5,0.5,0.8c0.5,0.8,1,1.6,1.6,2.4c0,0,0.1,0.1,0.1,0.1c1,1.6,2,3.2,2.9,4.8c0.3,0.5,0.5,1,0.8,1.4
		c0.4,0.6,0.7,1.3,1,2c0.3,0.6,0.6,1.2,0.9,1.8c0.3,0.6,0.6,1.3,0.9,1.9c0.3,0.7,0.7,1.4,1,2.1c0.3,0.6,0.5,1.2,0.8,1.7
		c0.5,1.2,1,2.4,1.5,3.6c0.2,0.4,0.3,0.9,0.5,1.3c0.4,1.1,0.8,2.1,1.2,3.2c0.2,0.5,0.4,1.1,0.5,1.6c0.3,0.9,0.6,1.9,0.9,2.8
		c0.2,0.6,0.3,1.1,0.5,1.7c0.3,1,0.6,2,0.9,3.1c0.1,0.5,0.3,1,0.4,1.5c0.4,1.5,0.8,3.1,1.1,4.7c0,0.1,0,0.2,0.1,0.3
		c0.3,1.5,0.6,3,0.9,4.6c0.1,0.5,0.2,1,0.3,1.6c0.2,1.2,0.4,2.3,0.6,3.5c0.1,0.6,0.2,1.2,0.2,1.8c0.2,1.2,0.3,2.4,0.4,3.6
		c0.1,0.5,0.1,1.1,0.2,1.6c0.2,1.8,0.3,3.5,0.4,5.3c-0.5-0.2-1.1-0.4-1.7-0.6c-0.1-0.1-0.3-0.1-0.4-0.2c-0.5-0.2-1.1-0.4-1.6-0.7
		c0,0-0.1,0-0.1,0C777,353.2,727.4,311.3,736,267.2z M807,385.9c0,0.1,0,0.3,0,0.4c-0.1,0.8-0.2,1.6-0.3,2.5c0,0.1,0,0.2,0,0.3
		c-0.2,1.8-0.5,3.7-0.9,5.6c0,0.1,0,0.1,0,0.2c-0.2,1-0.4,1.9-0.6,2.9c0,0.1,0,0.1,0,0.2c-7.6,32.2-34.9,77.4-74.6,79.1
		c-4.3-32.2,19.5-73.3,65.6-92.1c0.2-0.1,0.3-0.1,0.5-0.2c1.5-0.6,2.9-1.2,4.4-1.7c0.3-0.1,0.6-0.2,0.9-0.3c1.8-0.6,3.5-1.2,5.3-1.8
		c0,0.7,0,1.5,0,2.3c0,0.1,0,0.2,0,0.3C807.1,384.3,807.1,385.1,807,385.9z M770.5,382.8c-19.9,10.5-19.7,15.8-51.1,15.8
		c-1.2,0-2.4,0-3.6,0c-19.6-0.4-38.7-3.7-55.2-14.4c19.3-19.4,45.5-29.8,73-32.3c21.9-1.9,29,5.2,43,13.5c0,0,0,0,0,0
		c0.5,0.3,1.1,0.6,1.6,1c0.1,0.1,0.2,0.1,0.3,0.2c0.5,0.3,0.9,0.5,1.4,0.8c0.2,0.1,0.3,0.2,0.5,0.3c0.4,0.2,0.9,0.5,1.3,0.7
		c0.2,0.1,0.4,0.2,0.6,0.3c0.4,0.2,0.9,0.5,1.3,0.7c0.2,0.1,0.5,0.3,0.7,0.4c0.4,0.2,0.9,0.4,1.3,0.7c0.3,0.1,0.5,0.3,0.8,0.4
		c0.5,0.2,0.9,0.4,1.4,0.6c0.3,0.1,0.6,0.3,0.9,0.4c0.5,0.2,1,0.5,1.6,0.7c0.3,0.1,0.5,0.2,0.8,0.3c0.8,0.3,1.6,0.7,2.5,1
		C785.5,376,777.8,379,770.5,382.8z M880.5,587.1c-18-62.8,21-87.5,32.4-94.8c0.1,0.2,0.1,0.5,0.2,0.7c0,0.2,0.1,0.3,0.1,0.5
		c0,0.1,0.1,0.2,0.1,0.3c0.1,0.2,0.2,0.5,0.2,0.7c0,0,0,0,0,0.1c0.2,0.6,0.4,1.2,0.6,1.8c0,0,0,0.1,0,0.1c0.1,0.3,0.2,0.5,0.3,0.8
		c0,0.1,0.1,0.3,0.1,0.4c0.1,0.2,0.1,0.4,0.2,0.6c0.1,0.2,0.1,0.4,0.2,0.5c0,0.2,0.1,0.3,0.1,0.5c0.1,0.2,0.1,0.4,0.2,0.6
		c0,0.1,0.1,0.3,0.1,0.4c0.1,0.2,0.2,0.5,0.2,0.7c0,0.1,0.1,0.2,0.1,0.3c0.1,0.3,0.2,0.5,0.2,0.8c0,0.1,0.1,0.2,0.1,0.3
		c0.1,0.3,0.2,0.6,0.3,0.9c0,0.1,0.1,0.2,0.1,0.3c0.1,0.3,0.2,0.6,0.3,0.9c0,0.1,0,0.2,0.1,0.3c0.1,0.3,0.2,0.6,0.3,1
		c0,0.1,0,0.2,0.1,0.2c0.1,0.3,0.2,0.7,0.3,1c0,0.1,0,0.1,0.1,0.2c0.1,0.3,0.2,0.7,0.3,1.1c0,0.1,0,0.1,0,0.2
		c0.1,0.4,0.2,0.7,0.3,1.1c0,0.1,0,0.1,0,0.2c0.1,0.4,0.2,0.8,0.3,1.2c0,0,0,0.1,0,0.1c0.1,0.4,0.2,0.8,0.3,1.2c0,0,0,0.1,0,0.1
		c0.1,0.4,0.2,0.9,0.3,1.3c0,0,0,0,0,0C923,534.9,920.9,564.4,880.5,587.1z M951.6,544.8c-18.2-10.3-22.9-44.9-23.3-69.8
		c9.9-13.9,19.1-31.8,22.3-49C965.8,452.2,984,510.4,951.6,544.8z M938.3,426.3c-0.2,0.6-0.3,1.3-0.5,1.9c0,0.1,0,0.1-0.1,0.2
		c-0.2,0.7-0.5,1.5-0.7,2.2c0,0.2-0.1,0.3-0.2,0.5c-0.2,0.6-0.4,1.3-0.7,1.9c-0.1,0.2-0.1,0.3-0.2,0.5c-0.6,1.6-1.2,3.2-1.9,4.8
		c-0.1,0.1-0.1,0.3-0.2,0.4c-0.3,0.8-0.7,1.6-1.1,2.4c0,0,0,0,0,0.1c-0.8,1.7-1.7,3.5-2.6,5.3c0,0-0.1,0.1-0.1,0.2
		c-16.4,31.1-50.9,66.7-84.7,63.9c-0.4-24.5,21.6-62.2,65-82.9c0.3-0.1,0.6-0.3,0.8-0.4c1-0.5,2-0.9,3.1-1.4
		c0.4-0.2,0.9-0.4,1.3-0.6c1-0.4,2-0.9,3-1.3c0.4-0.2,0.8-0.3,1.2-0.5c1.7-0.7,3.4-1.3,5.1-1.9c0.8-0.3,1.7-0.6,2.5-0.9
		c0.7-0.2,1.5-0.5,2.3-0.7c1-0.3,2-0.6,3-0.9c0.6-0.2,1.3-0.4,2-0.6c1.7-0.5,3.4-0.9,5.1-1.3c0,0.6-0.1,1.2-0.2,1.8
		c0,0.2,0,0.4-0.1,0.5c-0.1,0.5-0.1,1-0.2,1.5c0,0.2,0,0.3-0.1,0.5c-0.1,0.7-0.2,1.3-0.4,2c0,0.1-0.1,0.2-0.1,0.4
		c-0.1,0.6-0.3,1.2-0.4,1.7C938.4,426,938.3,426.1,938.3,426.3z"/>
	<path fill="#8DB739" d="M860.9,144.1c27.2,14,39.3,59.5,17.7,57.9c3.1,1.1,6.2,2.1,9.4,3.1c0.5,0.2,1.1,0.3,1.6,0.5
		c0.1,0,0.2,0.1,0.3,0.1c1.5,0.5,3,1,4.5,1.5c0,0,0.1,0,0.1,0c1.5,0.5,3,1,4.5,1.6c0.1,0,0.1,0.1,0.2,0.1c1.5,0.5,3,1.1,4.5,1.7
		c0.1,0,0.2,0.1,0.3,0.1c1.5,0.6,2.9,1.3,4.4,2c0.1,0.1,0.3,0.1,0.4,0.2c1.4,0.7,2.9,1.4,4.3,2.2c0.2,0.1,0.3,0.2,0.5,0.3
		c0.7,0.4,1.4,0.8,2.1,1.3c-0.3-1.3-0.6-2.5-0.9-3.8c-0.1-0.3-0.2-0.7-0.2-1c-0.3-1.1-0.5-2.1-0.8-3.2c0-0.2-0.1-0.4-0.1-0.5
		c-0.3-1.2-0.6-2.4-1-3.5c-0.1-0.3-0.2-0.6-0.2-0.8c-0.3-1-0.6-1.9-0.9-2.8c-0.1-0.2-0.1-0.4-0.2-0.6c-0.4-1.1-0.7-2.2-1.1-3.3
		c-0.1-0.2-0.1-0.4-0.2-0.5c-0.3-0.9-0.7-1.9-1-2.8c-0.1-0.2-0.2-0.4-0.2-0.6c-0.4-1.1-0.8-2.1-1.3-3.1c0,0,0,0,0,0
		c-0.4-1-0.9-2-1.3-3c-0.1-0.1-0.1-0.3-0.2-0.4c-0.9-2-1.9-4-2.9-5.9c0,0,0,0,0-0.1C891.6,159.4,875.9,148.7,860.9,144.1z"/>
	<path fill="#8DB739" d="M834.6,247.6c31.3,9.3,69.2,2.6,86.1-5.1c0,0,0.1,0,0.1,0c0.6-0.3,1.1-0.5,1.6-0.8c0,0,0,0,0.1,0
		c0.5-0.2,1-0.5,1.4-0.7c0,0,0.1-0.1,0.2-0.1c0.4-0.2,0.8-0.5,1.2-0.7c0.1,0,0.1-0.1,0.2-0.1c0.4-0.2,0.7-0.5,1.1-0.7
		c-0.9-0.8-1.8-1.6-2.7-2.4c-0.3-0.2-0.5-0.4-0.8-0.7c-0.7-0.6-1.4-1.1-2.1-1.7c-0.3-0.2-0.6-0.4-0.9-0.7c-0.9-0.7-1.9-1.4-2.8-2.1
		c-0.2-0.2-0.5-0.3-0.7-0.5c-0.7-0.5-1.5-1-2.2-1.5c-0.4-0.3-0.9-0.6-1.4-0.8c-0.5-0.3-1.1-0.6-1.6-1c-0.5-0.3-1-0.6-1.6-0.9
		c-0.4-0.2-0.8-0.4-1.2-0.7c-1.2-0.6-2.4-1.3-3.7-1.9c-0.2-0.1-0.5-0.2-0.7-0.3c-0.8-0.4-1.6-0.7-2.4-1.1c-0.2-0.1-0.3-0.1-0.5-0.2
		c-5.4-2.3-11-4.1-16.8-5.4C897.5,237.3,873.8,254.7,834.6,247.6z"/>
	<path fill="#8DB739" d="M926.1,201.9c1.3,12.2,3.4,22.6,5.5,28.7c0,0.1,0,0.1,0.1,0.2c0.1,0.4,0.3,0.8,0.4,1.1
		c0.1,0.1,0.2,0.2,0.2,0.3c31.6-23.6,37.8-91.6,16.1-124.2C958.8,141.6,949.8,196.6,926.1,201.9z"/>
	<path fill="#8DB739" d="M754.6,272.8c19.5,14.8,41.6,49.9,20.1,73c10.8,9,22,16,31.1,20c0,0,0.1,0,0.1,0c0.5,0.2,1.1,0.5,1.6,0.7
		c0.1,0.1,0.3,0.1,0.4,0.2c0.6,0.2,1.1,0.4,1.7,0.6c-0.1-1.8-0.3-3.6-0.4-5.3c-0.1-0.5-0.1-1.1-0.2-1.6c-0.1-1.2-0.3-2.4-0.4-3.6
		c-0.1-0.6-0.2-1.2-0.2-1.8c-0.2-1.2-0.4-2.3-0.6-3.5c-0.1-0.5-0.2-1-0.3-1.6c-0.3-1.5-0.6-3.1-0.9-4.6c0-0.1,0-0.2-0.1-0.3
		c-0.3-1.6-0.7-3.1-1.1-4.7c-0.1-0.5-0.3-1-0.4-1.5c-0.3-1-0.6-2.1-0.9-3.1c-0.2-0.6-0.3-1.1-0.5-1.7c-0.3-1-0.6-1.9-0.9-2.8
		c-0.2-0.5-0.4-1.1-0.5-1.6c-0.4-1.1-0.8-2.1-1.2-3.2c-0.2-0.4-0.3-0.9-0.5-1.3c-0.5-1.2-1-2.4-1.5-3.6c-0.3-0.6-0.5-1.2-0.8-1.7
		c-0.3-0.7-0.6-1.4-1-2.1c-0.3-0.6-0.6-1.3-0.9-1.9c-0.3-0.6-0.6-1.2-0.9-1.8c-0.3-0.7-0.7-1.3-1-2c-0.3-0.5-0.5-1-0.8-1.4
		c-0.9-1.7-1.9-3.3-2.9-4.8c0,0-0.1-0.1-0.1-0.1c-0.5-0.8-1-1.6-1.6-2.4c-0.2-0.3-0.4-0.5-0.5-0.8c-0.5-0.8-1.1-1.5-1.6-2.3
		c-0.1-0.2-0.3-0.4-0.4-0.6C776.9,287.1,765.7,278.1,754.6,272.8z"/>
	<path fill="#8DB739" d="M790.4,372.6c-0.5-0.2-1.1-0.5-1.6-0.7c-0.3-0.1-0.6-0.3-0.9-0.4c-0.5-0.2-0.9-0.4-1.4-0.6
		c-0.3-0.1-0.5-0.3-0.8-0.4c-0.4-0.2-0.9-0.4-1.3-0.7c-0.3-0.1-0.5-0.3-0.7-0.4c-0.4-0.2-0.9-0.5-1.3-0.7c-0.2-0.1-0.4-0.2-0.6-0.3
		c-0.5-0.2-0.9-0.5-1.3-0.7c-0.2-0.1-0.3-0.2-0.5-0.3c-0.5-0.3-1-0.5-1.4-0.8c-0.1-0.1-0.2-0.1-0.3-0.2c-0.6-0.3-1.1-0.6-1.6-1
		c0,0,0,0,0,0c-12.8-7.6-19.8-14.2-37.5-13.8c21.7,20.7-6.3,45.9-48.1,44.4c8.1,1.6,16.4,2.3,24.8,2.5c1.2,0,2.4,0,3.6,0
		c31.4,0,31.2-5.3,51.1-15.8c7.3-3.8,15-6.8,23.1-8.8c-0.8-0.3-1.7-0.7-2.5-1C790.9,372.9,790.6,372.7,790.4,372.6z"/>
	<path fill="#8DB739" d="M807.2,380.9c-1.8,0.6-3.6,1.1-5.3,1.8c-0.3,0.1-0.6,0.2-0.9,0.3c-1.5,0.5-3,1.1-4.4,1.7
		c-0.2,0.1-0.3,0.1-0.5,0.2c-10.3,4.2-19.5,9.6-27.5,15.7c31.7-8.4,5.5,61.3-20.4,72.5c30.1-11.7,50.5-48.1,56.9-75.2
		c0-0.1,0-0.1,0-0.2c0.2-1,0.4-2,0.6-2.9c0-0.1,0-0.1,0-0.2c0.4-1.9,0.7-3.8,0.9-5.6c0-0.1,0-0.2,0-0.3c0.1-0.8,0.2-1.7,0.3-2.5
		c0-0.1,0-0.3,0-0.4c0.1-0.8,0.1-1.6,0.1-2.3c0-0.1,0-0.2,0-0.3C807.2,382.4,807.2,381.7,807.2,380.9z"/>
	<path fill="#8DB739" d="M938.9,423.7c0.1-0.7,0.3-1.3,0.4-2c0-0.2,0-0.3,0.1-0.5c0.1-0.5,0.2-1,0.2-1.5c0-0.2,0-0.4,0.1-0.5
		c0.1-0.6,0.1-1.2,0.2-1.8c-1.7,0.4-3.4,0.9-5.1,1.3c-0.7,0.2-1.3,0.4-2,0.6c-1,0.3-2,0.6-3,0.9c-0.8,0.2-1.5,0.5-2.3,0.7
		c-0.9,0.3-1.7,0.6-2.5,0.9c-1.7,0.6-3.4,1.2-5.1,1.9c-0.4,0.2-0.8,0.3-1.2,0.5c-1,0.4-2,0.8-3,1.3c-0.4,0.2-0.9,0.4-1.3,0.6
		c-1,0.5-2.1,0.9-3.1,1.4c-0.3,0.1-0.6,0.3-0.8,0.4c-1,0.5-2.1,1-3.1,1.5c14.5,24.9-4.4,48.7-20.5,67.9
		c18.1-12.7,33.8-32.3,43.4-50.5c0,0,0.1-0.1,0.1-0.2c0.9-1.8,1.8-3.5,2.6-5.3c0,0,0,0,0-0.1c0.4-0.8,0.7-1.6,1.1-2.4
		c0.1-0.1,0.1-0.3,0.2-0.4c0.7-1.6,1.4-3.2,1.9-4.8c0.1-0.2,0.1-0.3,0.2-0.5c0.2-0.6,0.5-1.3,0.7-1.9c0.1-0.2,0.1-0.3,0.2-0.5
		c0.3-0.8,0.5-1.5,0.7-2.2c0-0.1,0-0.1,0.1-0.2c0.2-0.7,0.4-1.3,0.5-1.9c0-0.2,0.1-0.4,0.1-0.6c0.1-0.6,0.3-1.2,0.4-1.7
		C938.8,423.9,938.9,423.8,938.9,423.7z"/>
	<path fill="#8DB739" d="M885.4,584.2c35.7-22.2,37.5-50.2,33.6-70.4c0,0,0,0,0,0c-0.1-0.4-0.2-0.9-0.3-1.3c0,0,0-0.1,0-0.1
		c-0.1-0.4-0.2-0.8-0.3-1.2c0,0,0-0.1,0-0.1c-0.1-0.4-0.2-0.8-0.3-1.2c0-0.1,0-0.1,0-0.2c-0.1-0.4-0.2-0.7-0.3-1.1
		c0-0.1,0-0.1,0-0.2c-0.1-0.4-0.2-0.7-0.3-1.1c0-0.1,0-0.1-0.1-0.2c-0.1-0.3-0.2-0.7-0.3-1c0-0.1,0-0.2-0.1-0.2
		c-0.1-0.3-0.2-0.6-0.3-1c0-0.1,0-0.2-0.1-0.3c-0.1-0.3-0.2-0.6-0.3-0.9c0-0.1-0.1-0.2-0.1-0.3c-0.1-0.3-0.2-0.6-0.3-0.9
		c0-0.1-0.1-0.2-0.1-0.3c-0.1-0.3-0.2-0.5-0.2-0.8c0-0.1-0.1-0.2-0.1-0.3c-0.1-0.2-0.2-0.5-0.2-0.7c0-0.1-0.1-0.3-0.1-0.4
		c-0.1-0.2-0.1-0.4-0.2-0.6c0-0.2-0.1-0.3-0.1-0.5c-0.1-0.2-0.1-0.4-0.2-0.5c-0.1-0.2-0.1-0.4-0.2-0.6c0-0.1-0.1-0.3-0.1-0.4
		c-0.1-0.3-0.2-0.6-0.3-0.8c0,0,0-0.1,0-0.1c-0.2-0.6-0.4-1.2-0.6-1.8c0,0,0,0,0-0.1c-0.1-0.3-0.2-0.5-0.2-0.7
		c0-0.1-0.1-0.2-0.1-0.3c0-0.2-0.1-0.3-0.1-0.5c-0.1-0.3-0.2-0.5-0.2-0.7c-3,1.9-7.9,5.1-13.3,9.8
		C914.3,510.7,910,561.7,885.4,584.2z"/>
	<path fill="#C5DD85" d="M740.8,276.8c-1.5,9.7,1.4,19.5,5.7,28c4.5,8.5,10.7,16.1,18.8,21.5c-3.7-9-8.3-16.7-12.4-24.8
		C748.6,293.5,745,285.5,740.8,276.8z"/>
	<path fill="#C5DD85" d="M724.1,360.2c-4.7-0.8-9.4-0.3-14,0.5c-4.6,0.8-9,2.1-13.3,3.8c-4.3,1.7-8.5,3.8-12.3,6.4
		c-3.8,2.6-7.5,5.8-9.9,10c8.6-3.7,16.6-6.5,24.9-9.8C707.7,367.9,715.8,364.5,724.1,360.2z"/>
	<path fill="#C5DD85" d="M757.1,429.2c2-3.9,3.7-7.8,6.1-11.8c-4.4,1.8-7.8,5.3-10.8,8.8c-3,3.5-5.3,7.5-7.5,11.5
		c-2,4.1-3.8,8.3-5,12.7c-1.2,4.4-2,9-1.6,13.7c4.8-7.9,8.9-15.4,12.9-23.2L757.1,429.2z"/>
	<path fill="#C5DD85" d="M858.4,170.5c-3.1-5.1-5.8-10.3-9.9-15.9c-1.5,6.9,0.4,13.7,3.8,19.5c1.8,2.9,3.9,5.6,6.7,7.8
		c2.7,2.1,6.2,3.8,9.7,3.7c-2.4-2.7-3.9-5-5.6-7.5C861.4,175.5,859.9,173.1,858.4,170.5z"/>
	<path fill="#C5DD85" d="M845.4,229.8l9.8-2.4c3.4-0.8,6.6-1.7,10.3-2.8c-3.3-1.8-7.1-2.5-10.8-2.7c-3.7-0.2-7.3,0.2-10.9,0.9
		c-3.6,0.9-7.1,2.1-10.3,4.1c-3.2,1.9-6.3,4.4-7.9,7.9c3.6-1.2,6.8-1.9,10.1-2.8L845.4,229.8z"/>
	<path fill="#C5DD85" d="M943.1,125.9c-6.3,6.4-9.7,14.9-11.3,23.5c-1.4,8.7-1.1,17.7,2.2,26c2.3-8.6,3.3-16.7,4.8-24.7
		C940.2,142.6,941.9,134.8,943.1,125.9z"/>
	<path fill="#C5DD85" d="M871.8,478.8c5.1-7,9.9-13.9,14.9-21.5c-4.4,1.6-8.2,4.3-11.5,7.3c-3.4,3-6.4,6.4-9.1,10
		c-2.6,3.6-5,7.5-6.9,11.7c-1.8,4.1-3.3,8.6-3.3,13.3L864,489L871.8,478.8z"/>
	<path fill="#C5DD85" d="M888.3,528.4c-3.3,2.8-5.5,6.8-7,10.8c-1.5,4-2.2,8.3-2.6,12.5c-0.3,4.2-0.2,8.4,0.5,12.6
		c0.7,4.1,1.7,8.3,3.8,12.1c1.6-8.4,2.1-16.3,2.8-24.2C886.5,544.3,886.9,536.8,888.3,528.4z"/>
	<path fill="#C5DD85" d="M1173.2,102.7c-3.3,2.4-5.6,5.9-7.4,9.4c-1.9,3.5-3.1,7.2-4.2,10.9c-1,3.8-1.7,7.5-2,11.4
		c-0.3,3.9-0.3,7.8,0.6,11.8c4-7,6.3-14.1,8.3-21.4C1170.4,117.6,1171.7,110.5,1173.2,102.7z"/>
	<path fill="#C5DD85" d="M1205.8,152.8c-2.5-5.3-4.7-10.3-7.6-16.4c-1.5,3.1-1.8,6.6-1.5,9.9c0.3,3.4,1.3,6.6,2.6,9.6
		c1.5,3,3.3,5.8,5.8,8.1c2.4,2.3,5.4,4.3,8.8,4.9c-1.7-3.1-3-5.6-4.3-8.2C1208.3,158,1207,155.4,1205.8,152.8z"/>
	<path fill="#8DB739" d="M1197.4,105.2c4.4,24.9,41.4,32.9,22.3,79.1c2.6,2.1,5.3,4.3,8.4,6.4c0.2,0.1,0.3,0.2,0.5,0.3
		c0.3,0.2,0.7,0.5,1,0.7c0.6,0.4,1.1,0.8,1.7,1.2c0.2,0.2,0.5,0.3,0.7,0.5c0.8,0.6,1.7,1.1,2.6,1.7
		C1244.6,122,1210.8,129.2,1197.4,105.2z"/>
	<path fill="#8DB739" d="M1186.6,99.8h-5.8c-0.1,18-5.1,32.3-11.8,45.6C1178.9,132.3,1184.7,117.8,1186.6,99.8z"/>
</g>
<g>
	<path fill="none" d="M1181,924.9c-8.7,13.3-24,21.5-30.4,22.4c-5.7-10-11.9-80.5,33.1-110.6c-1-11.2-3.4-22.3-7.2-33
		c-20-57.5-45.7-46.5-78.7-111.9c-17-33.6-31.7-82.8-33.9-154.3c-76.6,249.5,12,318.3,45.4,442.3h122.1
		C1217.6,974.8,1187.7,952.5,1181,924.9z"/>
	<path fill="#ABD156" d="M1186.2,851.4c0.1,0.4,0.1,0.8,0.1,1.2C1186.3,852.2,1186.3,851.8,1186.2,851.4z"/>
	<path fill="#ABD156" d="M1186.6,854.5c0.1,0.5,0.1,1.1,0.2,1.6C1186.7,855.6,1186.6,855,1186.6,854.5z"/>
	<path fill="#ABD156" d="M1186.8,857.3c2.1,26.5-3.7,49.7-17.8,68.5c9.4-18.5,15.3-39.4,9.6-68.1c2.3-3.2,4.6-6.4,7.2-9.5
		c-21.8,26.8-32.1,54.1-31.5,93.3C1179.2,920.7,1189.6,891.8,1186.8,857.3z M1159.5,914.1c0.3-3.9,1-7.7,2-11.4
		c1.1-3.7,2.4-7.4,4.2-10.9c1.8-3.5,4.1-6.9,7.4-9.4c-1.5,7.8-2.8,14.9-4.8,22.2c-2.1,7.2-4.4,14.3-8.3,21.4
		C1159.2,921.9,1159.2,918,1159.5,914.1z"/>
	<path fill="#ABD156" d="M948.4,887.4c-22.9,16-25.6,60.5-22.5,92.5h4.1C950.8,969.8,958.2,919,948.4,887.4z M931.8,929.2
		c1.6-8.6,5-17.1,11.3-23.5c-1.2,8.8-2.9,16.6-4.2,24.7c-1.5,8.1-2.5,16.1-4.8,24.7C930.7,946.8,930.4,937.8,931.8,929.2z"/>
	<path fill="#ABD156" d="M860.9,923.6c15,4.6,30.7,15.4,42.2,36.6c-18-33.2-46.1-40.8-65.9-39.6c5.6,40.4,19.8,52.2,37.4,59.2h10.6
		C896.8,972.8,884.6,935.8,860.9,923.6z M859,961.6c-2.8-2.1-5-4.9-6.7-7.8c-3.3-5.9-5.2-12.7-3.8-19.5c4.1,5.6,6.8,10.8,9.9,15.9
		c1.4,2.6,3,5.1,4.6,7.6c1.7,2.5,3.2,4.8,5.6,7.5C865.2,965.4,861.6,963.7,859,961.6z"/>
	<path fill="#ABD156" d="M903.1,960.4c1,1.9,2,3.8,2.9,5.9C905.1,964.2,904.1,962.2,903.1,960.4z"/>
	<path fill="#ABD156" d="M906.2,966.6c0.5,1,0.9,2,1.3,3C907.1,968.6,906.7,967.6,906.2,966.6z"/>
	<path fill="#ABD156" d="M910.3,976.7c0.4,1.1,0.8,2.2,1.1,3.3C911.1,978.9,910.7,977.8,910.3,976.7z"/>
	<path fill="#ABD156" d="M907.6,969.6c0.4,1,0.9,2.1,1.3,3.1C908.4,971.7,908,970.7,907.6,969.6z"/>
	<path fill="#ABD156" d="M909.1,973.4c0.4,0.9,0.7,1.8,1,2.8C909.8,975.2,909.4,974.3,909.1,973.4z"/>
	<path fill="#ABD156" d="M1197.4,884.9c-1.5,9-24.2,46.6,30.7,85.6c-3-2.2-5.8-4.3-8.4-6.5C1238.8,917.9,1201.8,909.8,1197.4,884.9z
		 M1205.2,943.7c-2.5-2.3-4.3-5.1-5.8-8.1c-1.4-3-2.4-6.2-2.6-9.6c-0.3-3.3,0-6.8,1.5-9.9c2.8,6.1,5,11.2,7.6,16.4
		c1.2,2.6,2.5,5.2,3.8,7.8c1.4,2.7,2.6,5.2,4.3,8.2C1210.6,948,1207.5,946,1205.2,943.7z"/>
	<path fill="#ABD156" d="M1229.5,971.5c-0.3-0.2-0.7-0.5-1-0.7C1228.9,971,1229.2,971.3,1229.5,971.5z"/>
	<path fill="#ABD156" d="M1231.9,973.1c-0.2-0.2-0.5-0.3-0.7-0.5C1231.5,972.8,1231.7,973,1231.9,973.1z"/>
	<path fill="#ABD156" d="M1186.8,597.2c-0.3,0.3-0.7,0.6-1,0.8C1186.1,597.7,1186.4,597.5,1186.8,597.2z"/>
	<path fill="#ABD156" d="M1183.9,599.5c-0.4,0.3-0.8,0.6-1.2,0.9C1183.1,600.1,1183.5,599.8,1183.9,599.5z"/>
	<path fill="#ABD156" d="M1180.8,601.8c-0.4,0.3-0.8,0.6-1.2,0.9C1180,602.4,1180.4,602.1,1180.8,601.8z"/>
	<path fill="#ABD156" d="M1173.1,600.7c18.6-11.3,39.1-43.2,45.1-70.7c0.7,16.5-3.4,32.4-12.9,46.7c13.1-19.8,16-42.5,10-65.6
		c-32.7,22.9-43,55.8-42.2,96C1173.1,604.9,1173.1,602.8,1173.1,600.7z M1181.1,573.5c0.7-5,2.1-9.8,3.7-14.5
		c1.8-4.6,3.9-9.2,6.8-13.4c2.8-4.2,6.2-8.1,10.5-10.8c-4.1,9.1-7.3,17.8-10.6,26.7l-10.3,27
		C1180.1,583.5,1180.4,578.4,1181.1,573.5z"/>
	<path fill="#ABD156" d="M1190.4,594c-0.4,0.3-0.7,0.6-1.1,1C1189.8,594.6,1190.1,594.3,1190.4,594z"/>
	<path fill="#ABD156" d="M1177.5,604.2c-0.3,0.2-0.7,0.5-1,0.7C1176.8,604.6,1177.2,604.4,1177.5,604.2z"/>
	<path fill="#ABD156" d="M1203.6,579.2c-1.5,2.1-3.2,4.3-5,6.3C1200.4,583.5,1202.1,581.4,1203.6,579.2z"/>
	<path fill="#ABD156" d="M1193.2,591.3c-0.4,0.4-0.8,0.8-1.3,1.2C1192.4,592.1,1192.8,591.7,1193.2,591.3z"/>
	<path fill="#ABD156" d="M1205.2,576.9c-0.5,0.7-1,1.5-1.5,2.2C1204.2,578.4,1204.7,577.6,1205.2,576.9z"/>
	<path fill="#ABD156" d="M1198,586.3c-0.4,0.5-0.9,1-1.4,1.5C1197.1,587.3,1197.6,586.8,1198,586.3z"/>
	<path fill="#ABD156" d="M1195.7,588.8c-0.4,0.5-0.9,0.9-1.3,1.4C1194.8,589.7,1195.3,589.2,1195.7,588.8z"/>
	<path fill="#ABD156" d="M1269.3,670c-2.3,0.1-4.6,0.1-6.8,0.1c0.4-18.3-36.7-46.3-67.7-49.8c-1.1-0.1-2.1-0.2-3.2-0.3
		c1,0.1,2.1,0.2,3.2,0.3c18.1,1.7,35.2,5.8,49,13.9c-18-10.6-41.5-14.3-65.4-14.9C1205.2,651.5,1228.3,672.2,1269.3,670z
		 M1239.7,657.5c5.3,2.1,10.8,3.9,16.3,7.6c-6.4,1.9-12.7,1.2-18.7-0.9c-5.9-2.2-11.5-6-14.6-11.9
		C1229.1,653.7,1234.2,655.6,1239.7,657.5z"/>
	<path fill="#ABD156" d="M1252.1,639.8c0.6,0.4,1.1,0.9,1.6,1.4C1253.2,640.7,1252.7,640.3,1252.1,639.8z"/>
	<path fill="#ABD156" d="M1262.3,650.3c0.3,0.4,0.6,0.8,0.9,1.2C1262.9,651.1,1262.6,650.7,1262.3,650.3z"/>
	<path fill="#ABD156" d="M1249.6,637.9c0.6,0.4,1.2,0.9,1.7,1.3C1250.8,638.8,1250.2,638.3,1249.6,637.9z"/>
	<path fill="#ABD156" d="M1260.3,647.7c0.3,0.4,0.6,0.8,1,1.2C1260.9,648.5,1260.6,648.1,1260.3,647.7z"/>
	<path fill="#ABD156" d="M1247,636.1c0.6,0.4,1.3,0.9,1.9,1.3C1248.3,637,1247.7,636.5,1247,636.1z"/>
	<path fill="#ABD156" d="M1244.3,634.4c0.7,0.4,1.4,0.9,2.1,1.3C1245.7,635.3,1245,634.8,1244.3,634.4z"/>
	<path fill="#ABD156" d="M1269.2,661.9c0.2,0.4,0.4,0.8,0.6,1.2C1269.5,662.7,1269.3,662.3,1269.2,661.9z"/>
	<path fill="#ABD156" d="M1264.2,652.9c0.3,0.4,0.5,0.8,0.8,1.2C1264.7,653.7,1264.5,653.3,1264.2,652.9z"/>
	<path fill="#ABD156" d="M1270.6,665.3c0.1,0.4,0.3,0.7,0.4,1.1C1270.9,666,1270.7,665.7,1270.6,665.3z"/>
	<path fill="#ABD156" d="M1259.2,646.6c-1.5-1.7-3.1-3.3-4.8-4.7C1256.1,643.3,1257.7,644.9,1259.2,646.6z"/>
	<path fill="#ABD156" d="M1266,655.7c0.2,0.4,0.5,0.8,0.7,1.3C1266.5,656.6,1266.2,656.1,1266,655.7z"/>
	<path fill="#ABD156" d="M1267.6,658.7c0.2,0.4,0.4,0.8,0.7,1.3C1268.1,659.5,1267.8,659.1,1267.6,658.7z"/>
	<path fill="#ABD156" d="M1298,567.8c-62.4-27.1-74.8,6.9-91,28c3.4-4.5,6.7-9.5,10.3-14.4c9.4,32.6,57.7,20.4,73.4,0.5
		c-26.9,42.9-69.5,29.9-89.5,24.9C1223.1,612.4,1272.3,627.5,1298,567.8z M1243.5,567.2c4.1-1.7,8.4-2.6,12.7-3.1
		c4.3-0.4,8.7-0.4,13,0.4c4.3,0.7,8.7,2.1,12.2,4.9c-4.4,0-8.4,0.4-12.4,0.7c-4,0.4-8,0.7-12,1.1c-4,0.4-8,0.9-11.9,1.4
		c-4,0.6-7.9,1.1-11.9,2.8C1235.3,571.3,1239.5,568.9,1243.5,567.2z"/>
	<path fill="#ABD156" d="M1198.3,604.9c0.1-0.1,0.3-0.2,0.4-0.3C1198.6,604.7,1198.5,604.8,1198.3,604.9z"/>
	<path fill="#ABD156" d="M1199.6,603.9c0.1-0.1,0.2-0.2,0.4-0.3C1199.9,603.7,1199.7,603.8,1199.6,603.9z"/>
	<path fill="#ABD156" d="M1203.5,600c0.2-0.2,0.3-0.4,0.5-0.5C1203.8,599.7,1203.6,599.8,1203.5,600z"/>
	<path fill="#ABD156" d="M1197.9,606.1c-0.3-0.1-0.6-0.1-0.9-0.2C1197.3,606,1197.6,606,1197.9,606.1z"/>
	<path fill="#ABD156" d="M1206,597.1c0.2-0.3,0.5-0.6,0.7-1C1206.5,596.4,1206.2,596.7,1206,597.1z"/>
	<path fill="#ABD156" d="M1204.7,598.7c0.3-0.4,0.6-0.8,0.9-1.1C1205.3,597.9,1205,598.3,1204.7,598.7z"/>
	<path fill="#ABD156" d="M1198.9,606.3c-0.2,0-0.4-0.1-0.6-0.1C1198.5,606.2,1198.7,606.3,1198.9,606.3z"/>
	<path fill="#ABD156" d="M1201,606.8c-0.3-0.1-0.6-0.1-0.8-0.2C1200.5,606.7,1200.7,606.8,1201,606.8z"/>
	<path fill="#ABD156" d="M1199.9,606.6c-0.2-0.1-0.4-0.1-0.7-0.2C1199.4,606.5,1199.7,606.5,1199.9,606.6z"/>
	<path fill="#ABD156" d="M1202.3,601.3c0.2-0.2,0.3-0.3,0.4-0.5C1202.6,600.9,1202.5,601.1,1202.3,601.3z"/>
	<path fill="#ABD156" d="M1201.4,602.3c-0.1,0.1-0.1,0.1-0.2,0.2C1201.2,602.4,1201.3,602.3,1201.4,602.3z"/>
	<path fill="#8DB739" d="M1255.9,912c-7.7-41.4-33.3-64.4-60.7-69.6C1201.4,880.7,1220.9,899.9,1255.9,912z"/>
	<path fill="#ABD156" d="M1275.7,794.2c9.5,41.5,54.7,75.8,90.1,77.6c-1.8-0.1-3.6-0.3-5.4-0.5
		C1359.3,843.8,1323.8,809.7,1275.7,794.2z M1331.2,858c-7.6-4.6-14.1-11.2-17.5-19.4c7.7,4.5,14.1,9.2,21.2,13.3
		c6.9,4.3,14.1,7.7,21.8,12.4C1347.7,865.1,1338.8,862.5,1331.2,858z"/>
	<path fill="#ABD156" d="M1307.8,785.2c0.1,0,0.1-0.1,0.2-0.1C1307.9,785.2,1307.8,785.2,1307.8,785.2z"/>
	<path fill="#ABD156" d="M1306.5,785.8c0.1,0,0.2-0.1,0.2-0.1C1306.6,785.7,1306.5,785.8,1306.5,785.8z"/>
	<path fill="#ABD156" d="M1309.2,784.5c0.1-0.1,0.3-0.1,0.4-0.2C1309.5,784.4,1309.4,784.4,1309.2,784.5z"/>
	<path fill="#ABD156" d="M1337.8,769.7c-11.3,28.1,39.1,42.4,89.8,21.4c-47.9-50.9-94.4-19.9-115.1-8.3
		C1318.7,779.2,1327.4,773.9,1337.8,769.7z M1372.7,770.6c4.6,0.1,9.1,0.8,13.6,1.8c4.4,1.1,8.8,2.5,13,4.6c4.1,2,8.2,4.6,11.3,8.2
		l-26-5.8c-8.6-2.1-16.9-4.3-25.8-7.2C1363.4,770.7,1368.1,770.4,1372.7,770.6z"/>
	<path fill="#ABD156" d="M1311,783.6c0.2-0.1,0.4-0.2,0.6-0.3C1311.4,783.4,1311.2,783.5,1311,783.6z"/>
	<path fill="#ABD156" d="M1305.2,786.3c0.1,0,0.1,0,0.2-0.1C1305.3,786.2,1305.3,786.2,1305.2,786.3z"/>
	<path fill="#ABD156" d="M1362.1,710.8c-0.3,0.9-0.7,1.7-1,2.6C1361.4,712.6,1361.8,711.7,1362.1,710.8z"/>
	<path fill="#ABD156" d="M1360.8,714.2c-0.4,1-0.8,1.9-1.3,2.8C1360,716.1,1360.4,715.2,1360.8,714.2z"/>
	<path fill="#ABD156" d="M1359.3,717.6c-0.5,1-1,2.1-1.6,3.1C1358.3,719.7,1358.8,718.6,1359.3,717.6z"/>
	<path fill="#ABD156" d="M1363.2,707.5c-0.2,0.8-0.5,1.5-0.8,2.3C1362.7,709,1363,708.2,1363.2,707.5z"/>
	<path fill="#ABD156" d="M1364.9,700.8c-0.1,0.5-0.2,1-0.4,1.6C1364.7,701.8,1364.8,701.3,1364.9,700.8z"/>
	<path fill="#ABD156" d="M1357.6,720.9c-14.6,28-46.3,54.1-80.2,57.7c43.7-9.9,94.4-67.4,69.6-78.5c5.2-1.6,10.6-2.6,16.1-2.7
		c-41.2,0.7-77.6,48.9-87,81.4C1310.5,775.8,1342.9,749.3,1357.6,720.9z M1300.3,742.9c2.9-4.6,6.2-8.8,9.8-12.8
		c3.7-3.9,7.6-7.7,12.1-10.9c4.4-3.2,9.3-6,14.7-7.2c-7.8,7.6-14.4,15.2-21.5,23c-7.1,7.7-14.1,15.4-22.3,22.6
		C1294.8,752.2,1297.4,747.4,1300.3,742.9z"/>
	<path fill="#ABD156" d="M1364.2,704.1c-0.2,0.7-0.4,1.3-0.6,2C1363.8,705.4,1364,704.8,1364.2,704.1z"/>
	<path fill="#ABD156" d="M1363.2,697.4c0.8,0,1.5,0,2.3,0C1364.7,697.4,1364,697.4,1363.2,697.4z"/>
	<path fill="#98E29B" d="M837.2,920.6c19.8-1.1,47.9,6.4,65.9,39.6c0,0,0,0.1,0,0.1c1,1.9,2,3.8,2.9,5.9c0.1,0.1,0.1,0.3,0.2,0.4
		c0.4,1,0.9,2,1.3,3c0,0,0,0,0,0c0.4,1,0.9,2.1,1.3,3.1c0.1,0.2,0.2,0.4,0.2,0.6c0.4,0.9,0.7,1.8,1,2.8c0.1,0.2,0.1,0.4,0.2,0.5
		c0.4,1.1,0.8,2,1.1,3.1c0,0.1,0,0,0.1,0H926c-3.1-32-0.4-76.4,22.5-92.5c15.1,22.6,16.7,62.5,5.6,92.5h17.2
		c12.3-40-5.2-93.9-22-99.7c-8.1,1-31,13.2-38.2,64.4c-28.3-36.1-71.1-34.8-79.2-29.2c-2.7,4.8-4.3,40.5,16.6,64.5h26.1
		C857,972.8,842.7,961,837.2,920.6z"/>
	<path fill="#98E29B" d="M1064.8,490.1c-24.3,62.7-44.1,127.9-49.5,196.2c-11,151,67.5,227.5,67.9,293.5h26.4
		c-33.4-124-122-192.8-45.4-442.2c2.2,71.6,16.9,120.6,33.9,154.2c33,65.4,58.6,54.4,78.7,111.9c3.7,10.7,6.1,21.8,7.2,33
		c-45,30-38.9,100.6-33.1,110.6c6.4-0.9,21.7-9.2,30.4-22.5c6.6,27.6,36.6,49.9,50.6,54.9h6.2c5.2-8,14-40.4,5.8-61
		c5.5,2.6,14.3,2.4,18.8,1c8.3-17.2-10.5-87.1-67-87.1c0.5-19.2-5.6-38.1-14.6-55.3c24.8,12.3,52.6,18.4,80.2,16.4
		c14.1,75.4,101.9,100.6,120.5,89.2c1.8-7.7-2.8-42.3-18.7-57.1c32.5,2.9,77-19.1,81.8-34.2c-2-7.8-36.8-50.2-88.2-43.8
		c18.6-18.2,26.5-50.6,21.7-62.7c-29.3-8.8-102.4,21.6-116.9,94.1c-77.2,3.3-156.4-54.1-176.4-189.1c19.6,29,51.6,46.5,83.2,32.7
		c29.4,73.1,104.3,61.3,111.4,51.7c1.1-9.9-4.8-39.1-25.9-51.5c33.1-9.1,51.1-46.9,50.4-57.5c-4.4-7.5-44.1-29.5-75.1-13.3
		c3.6-22.5-6.5-44.9-10.8-48.4c-11.1-1.1-71.9,30.5-54.8,105.5c-38.9,16.2-76.7-26.7-83.6-72.9c-2.2-43.7,1.1-48.2-5.4-50.7
		C1070.5,484.5,1066.3,486.2,1064.8,490.1z M1154.3,941.4c-0.7-39.1,9.6-66.5,31.5-93.3c0.2,1.1,0.3,2.2,0.4,3.2
		c0.1,0.4,0.1,0.8,0.1,1.2c0.1,0.6,0.1,1.2,0.2,1.9c0.1,0.5,0.1,1.1,0.2,1.6c0,0.4,0.1,0.8,0.1,1.2
		C1189.6,891.8,1179.2,920.7,1154.3,941.4z M1234.5,974.8c-0.9-0.6-1.7-1.1-2.6-1.7c-0.2-0.2-0.5-0.3-0.7-0.5
		c-0.6-0.4-1.1-0.8-1.7-1.2c-0.3-0.2-0.7-0.5-1-0.7c-0.1-0.1-0.3-0.2-0.4-0.3c-54.9-39-32.3-76.5-30.7-85.6
		C1210.8,908.9,1244.6,901.7,1234.5,974.8z M1255.9,912c-35-12.1-54.5-31.3-60.7-69.6C1222.7,847.5,1248.2,870.6,1255.9,912z
		 M1368.3,871.9c-0.8,0-1.7,0-2.5-0.1c-35.4-1.8-80.6-36.1-90.1-77.6C1310.7,799.4,1364.1,830.7,1368.3,871.9z M1363.1,697.4
		c0,0,0.1,0,0.1,0c0.8,0,1.5,0,2.3,0c-0.2,1.1-0.3,2.2-0.6,3.3c-0.1,0.5-0.2,1-0.4,1.6c-0.1,0.6-0.3,1.2-0.4,1.8
		c-0.2,0.7-0.4,1.3-0.6,2c-0.1,0.5-0.2,0.9-0.4,1.4c-0.2,0.8-0.5,1.5-0.8,2.3c-0.1,0.4-0.2,0.7-0.4,1.1c-0.3,0.9-0.7,1.7-1,2.6
		c-0.1,0.3-0.2,0.5-0.3,0.8c-0.4,1-0.8,1.9-1.3,2.8c-0.1,0.2-0.2,0.3-0.2,0.5c-0.5,1-1,2.1-1.6,3.1c0,0.1-0.1,0.1-0.1,0.2
		c-14.8,28.4-47.1,54.9-81.5,57.9C1285.5,746.4,1321.9,698.1,1363.1,697.4z M1427.6,791.1c-63.1,45.3-101.7,1.9-123.3-4.6
		c0.3-0.1,0.6-0.1,1-0.2c0.1,0,0.1,0,0.2-0.1c0.3-0.1,0.7-0.2,1.1-0.4c0.1,0,0.2-0.1,0.2-0.1c0.3-0.1,0.7-0.3,1.1-0.5
		c0.1,0,0.1-0.1,0.2-0.1c0.4-0.2,0.8-0.4,1.3-0.6c0.1-0.1,0.3-0.1,0.4-0.2c0.4-0.2,0.9-0.5,1.3-0.7c0.2-0.1,0.4-0.2,0.6-0.3
		c0.3-0.2,0.6-0.3,0.9-0.5C1333.2,771.1,1379.7,740.2,1427.6,791.1z M1215.4,511c6,23.2,3,45.9-10,65.6c0,0.1-0.1,0.1-0.1,0.2
		c-0.5,0.7-1,1.5-1.5,2.2c0,0-0.1,0.1-0.1,0.1c-1.5,2.1-3.2,4.3-5,6.3c-0.2,0.2-0.4,0.5-0.6,0.7c-0.4,0.5-0.9,1-1.4,1.5
		c-0.3,0.3-0.6,0.7-0.9,1c-0.4,0.5-0.9,0.9-1.3,1.4c-0.4,0.4-0.8,0.8-1.1,1.1c-0.4,0.4-0.8,0.8-1.3,1.2c-0.5,0.5-1,0.9-1.5,1.4
		c-0.4,0.3-0.7,0.6-1.1,1c-0.8,0.8-1.7,1.5-2.6,2.3c-0.3,0.3-0.7,0.6-1,0.8c-0.6,0.5-1.2,1-1.9,1.5c-0.4,0.3-0.8,0.6-1.2,0.9
		c-0.6,0.5-1.3,1-1.9,1.4c-0.4,0.3-0.8,0.6-1.2,0.9c-0.7,0.5-1.4,1-2.1,1.5c-0.3,0.2-0.7,0.5-1,0.7c-1.1,0.7-2.2,1.4-3.3,2.1
		C1172.4,566.9,1182.7,533.9,1215.4,511z M1201.1,606.9C1201.1,606.9,1201,606.9,1201.1,606.9c-0.4-0.1-0.6-0.2-0.9-0.2
		c-0.1,0-0.2,0-0.3-0.1c-0.2-0.1-0.4-0.1-0.7-0.2c-0.1,0-0.2-0.1-0.3-0.1c-0.2,0-0.4-0.1-0.6-0.1c-0.1,0-0.2-0.1-0.3-0.1
		c-0.3-0.1-0.6-0.1-0.9-0.2c0.4-0.3,0.9-0.6,1.3-1c0.1-0.1,0.3-0.2,0.4-0.3c0.3-0.3,0.6-0.5,0.9-0.8c0.1-0.1,0.2-0.2,0.4-0.3
		c0.4-0.4,0.8-0.7,1.2-1.1c0.1-0.1,0.1-0.1,0.2-0.2c0.3-0.3,0.7-0.7,1-1c0.2-0.2,0.3-0.3,0.4-0.5c0.2-0.3,0.5-0.5,0.7-0.8
		c0.2-0.2,0.3-0.4,0.5-0.5c0.2-0.3,0.5-0.5,0.7-0.8c0.3-0.4,0.6-0.8,0.9-1.1c0.1-0.2,0.3-0.3,0.4-0.5c0.2-0.3,0.5-0.6,0.7-1
		c0.1-0.1,0.1-0.2,0.2-0.2c16.2-21.1,28.7-55.1,91-28C1272.3,627.5,1223.1,612.4,1201.1,606.9z M1243.9,634.2
		c0.1,0.1,0.3,0.2,0.4,0.2c0.7,0.4,1.4,0.9,2.1,1.3c0.2,0.1,0.4,0.3,0.6,0.4c0.6,0.4,1.3,0.9,1.9,1.3c0.2,0.2,0.5,0.3,0.7,0.5
		c0.6,0.4,1.2,0.9,1.7,1.3c0.3,0.2,0.5,0.4,0.7,0.6c0.6,0.4,1.1,0.9,1.6,1.4c0.2,0.2,0.5,0.4,0.7,0.6c1.7,1.5,3.3,3.1,4.8,4.7
		c0.3,0.4,0.7,0.8,1,1.2c0.3,0.4,0.6,0.8,1,1.2c0.4,0.4,0.7,0.9,1.1,1.3c0.3,0.4,0.6,0.8,0.9,1.2c0.3,0.5,0.7,1,1,1.4
		c0.3,0.4,0.5,0.8,0.8,1.2c0.3,0.5,0.7,1,1,1.6c0.2,0.4,0.5,0.8,0.7,1.3c0.3,0.6,0.6,1.1,0.9,1.7c0.2,0.4,0.4,0.8,0.7,1.3
		c0.3,0.6,0.6,1.2,0.9,1.9c0.2,0.4,0.4,0.8,0.6,1.2c0.3,0.7,0.6,1.5,0.9,2.2c0.1,0.4,0.3,0.7,0.4,1.1c0.4,1.1,0.8,2.3,1.1,3.4
		c-1,0.1-1.9,0.1-2.8,0.2c-41.1,2.2-64.2-18.4-90.8-50.7C1202.4,619.9,1226,623.6,1243.9,634.2z"/>
	<path fill="#8DB739" d="M910.3,976.7c-0.1-0.2-0.1-0.4-0.2-0.5c-0.3-0.9-0.7-1.9-1-2.8c-0.1-0.2-0.2-0.4-0.2-0.6
		c-0.4-1.1-0.8-2.1-1.3-3.1c0,0,0,0,0,0c-0.4-1-0.9-2-1.3-3c-0.1-0.1-0.1-0.3-0.2-0.4c-0.9-2-1.9-4-2.9-5.9c0,0,0,0,0-0.1
		c-11.5-21.2-27.2-32.1-42.2-36.7c23.8,12.2,36,49.2,24.3,56.2h26.3c0,0,0,0-0.1,0C911.1,978.7,910.7,977.8,910.3,976.7z"/>
	<path fill="#8DB739" d="M948.4,887.4c9.8,31.6,2.4,82.5-18.4,92.5h24C965.1,949.8,963.5,910,948.4,887.4z"/>
	<path fill="#C5DD85" d="M858.4,950.2c-3.1-5.1-5.8-10.3-9.9-15.9c-1.5,6.9,0.4,13.7,3.8,19.5c1.8,2.9,3.9,5.6,6.7,7.8
		c2.7,2.1,6.2,3.8,9.7,3.7c-2.4-2.7-3.9-5-5.6-7.5C861.4,955.2,859.9,952.8,858.4,950.2z"/>
	<path fill="#C5DD85" d="M943.1,905.6c-6.3,6.4-9.7,14.9-11.3,23.5c-1.4,8.7-1.1,17.7,2.2,26c2.3-8.6,3.3-16.7,4.8-24.7
		C940.2,922.3,941.9,914.5,943.1,905.6z"/>
	<path fill="#C5DD85" d="M1173.2,882.4c-3.3,2.4-5.6,5.9-7.4,9.4c-1.9,3.5-3.1,7.2-4.2,10.9c-1,3.8-1.7,7.5-2,11.4
		c-0.3,3.9-0.3,7.8,0.6,11.8c4-7,6.3-14.1,8.3-21.4C1170.4,897.3,1171.7,890.2,1173.2,882.4z"/>
	<path fill="#C5DD85" d="M1205.8,932.5c-2.5-5.3-4.7-10.3-7.6-16.4c-1.5,3.1-1.8,6.6-1.5,9.9c0.3,3.4,1.3,6.6,2.6,9.6
		c1.5,3,3.3,5.8,5.8,8.1c2.4,2.3,5.4,4.3,8.8,4.9c-1.7-3.1-3-5.6-4.3-8.2C1208.3,937.7,1207,935.1,1205.8,932.5z"/>
	<path fill="#C5DD85" d="M1202.1,534.8c-4.4,2.7-7.8,6.6-10.5,10.8c-2.8,4.2-5,8.7-6.8,13.4c-1.7,4.7-3,9.5-3.7,14.5
		c-0.7,4.9-1,10,0.2,15l10.3-27C1194.8,552.6,1198,543.9,1202.1,534.8z"/>
	<path fill="#C5DD85" d="M1257,571.2c4-0.5,8-0.8,12-1.1c4.1-0.3,8-0.7,12.4-0.7c-3.5-2.9-7.9-4.2-12.2-4.9c-4.3-0.8-8.7-0.8-13-0.4
		c-4.3,0.5-8.6,1.4-12.7,3.1c-4,1.7-8.2,4.1-10.4,8.2c4-1.7,7.9-2.2,11.9-2.8C1249,572,1253,571.5,1257,571.2z"/>
	<path fill="#C5DD85" d="M1237.2,664.2c6,2,12.4,2.7,18.7,0.9c-5.5-3.7-11-5.5-16.3-7.6c-5.4-1.9-10.5-3.8-17-5.2
		C1225.7,658.2,1231.4,662,1237.2,664.2z"/>
	<path fill="#C5DD85" d="M1315.4,734.9c7.1-7.7,13.7-15.4,21.5-23c-5.4,1.2-10.3,4-14.7,7.2c-4.5,3.2-8.4,7-12.1,10.9
		c-3.6,4-6.9,8.3-9.8,12.8c-2.9,4.5-5.5,9.3-7.2,14.6C1301.3,750.3,1308.3,742.5,1315.4,734.9z"/>
	<path fill="#C5DD85" d="M1384.7,779.4l26,5.8c-3.1-3.6-7.2-6.1-11.3-8.2c-4.2-2.1-8.6-3.5-13-4.6c-4.5-1-9-1.7-13.6-1.8
		c-4.6-0.1-9.3,0.1-13.8,1.6C1367.7,775.1,1376.1,777.3,1384.7,779.4z"/>
	<path fill="#C5DD85" d="M1334.8,851.9c-7-4-13.5-8.8-21.2-13.3c3.4,8.3,9.9,14.9,17.5,19.4c7.7,4.5,16.5,7.1,25.4,6.2
		C1348.9,859.5,1341.7,856.1,1334.8,851.9z"/>
	<path fill="#8DB739" d="M1177.5,604.2c0.7-0.5,1.4-1,2.1-1.5c0.4-0.3,0.8-0.6,1.2-0.9c0.6-0.5,1.3-0.9,1.9-1.4
		c0.4-0.3,0.8-0.6,1.2-0.9c0.6-0.5,1.2-1,1.9-1.5c0.3-0.3,0.7-0.6,1-0.8c0.9-0.7,1.8-1.5,2.6-2.3c0.4-0.3,0.7-0.6,1.1-1
		c0.5-0.5,1-0.9,1.5-1.4c0.4-0.4,0.9-0.8,1.3-1.2c0.4-0.4,0.8-0.8,1.1-1.1c0.4-0.5,0.9-0.9,1.3-1.4c0.3-0.3,0.6-0.7,0.9-1
		c0.5-0.5,0.9-1,1.4-1.5c0.2-0.2,0.4-0.5,0.6-0.7c1.8-2.1,3.4-4.2,5-6.3c0,0,0.1-0.1,0.1-0.1c0.5-0.7,1-1.5,1.5-2.2
		c0-0.1,0.1-0.1,0.1-0.2c9.5-14.3,13.6-30.2,12.9-46.7c-6,27.5-26.5,59.4-45.1,70.7c0,2.1,0,4.2,0,6.3c1.1-0.7,2.2-1.4,3.3-2.1
		C1176.8,604.6,1177.2,604.4,1177.5,604.2z"/>
	<path fill="#8DB739" d="M1290.6,582c-15.7,19.9-64,32.2-73.4-0.5c-3.6,4.9-6.8,9.9-10.3,14.4c-0.1,0.1-0.1,0.2-0.2,0.2
		c-0.2,0.3-0.5,0.6-0.7,1c-0.1,0.2-0.3,0.3-0.4,0.5c-0.3,0.4-0.6,0.8-0.9,1.1c-0.2,0.3-0.5,0.5-0.7,0.8c-0.2,0.2-0.3,0.4-0.5,0.5
		c-0.2,0.3-0.5,0.5-0.7,0.8c-0.1,0.2-0.3,0.3-0.4,0.5c-0.3,0.3-0.7,0.7-1,1c-0.1,0.1-0.1,0.1-0.2,0.2c-0.4,0.4-0.8,0.7-1.2,1.1
		c-0.1,0.1-0.2,0.2-0.4,0.3c-0.3,0.3-0.6,0.5-0.9,0.8c-0.1,0.1-0.3,0.2-0.4,0.3c-0.4,0.3-0.9,0.7-1.3,1c0.3,0.1,0.6,0.1,0.9,0.2
		c0.1,0,0.2,0.1,0.3,0.1c0.2,0,0.4,0.1,0.6,0.1c0.1,0,0.2,0.1,0.3,0.1c0.2,0.1,0.4,0.1,0.7,0.2c0.1,0,0.2,0,0.3,0.1
		c0.3,0.1,0.5,0.1,0.8,0.2c0,0,0.1,0,0.1,0C1221.1,611.9,1263.7,624.9,1290.6,582z"/>
	<path fill="#8DB739" d="M1194.9,620.3c-1.1-0.1-2.1-0.2-3.2-0.3C1192.8,620.1,1193.8,620.2,1194.9,620.3z"/>
	<path fill="#8DB739" d="M1262.5,670.1c2.2,0,4.5,0,6.8-0.1c0.9,0,1.9-0.1,2.8-0.2c-0.4-1.2-0.7-2.3-1.1-3.4
		c-0.1-0.4-0.3-0.7-0.4-1.1c-0.3-0.7-0.6-1.5-0.9-2.2c-0.2-0.4-0.4-0.8-0.6-1.2c-0.3-0.6-0.6-1.3-0.9-1.9c-0.2-0.4-0.4-0.9-0.7-1.3
		c-0.3-0.6-0.6-1.1-0.9-1.7c-0.2-0.4-0.5-0.9-0.7-1.3c-0.3-0.5-0.6-1-1-1.6c-0.3-0.4-0.5-0.8-0.8-1.2c-0.3-0.5-0.7-1-1-1.4
		c-0.3-0.4-0.6-0.8-0.9-1.2c-0.3-0.5-0.7-0.9-1.1-1.3c-0.3-0.4-0.6-0.8-1-1.2c-0.3-0.4-0.7-0.8-1-1.2c-1.5-1.7-3.1-3.3-4.8-4.7
		c-0.2-0.2-0.5-0.4-0.7-0.6c-0.5-0.5-1.1-0.9-1.6-1.4c-0.2-0.2-0.5-0.4-0.7-0.6c-0.6-0.4-1.2-0.9-1.7-1.3c-0.2-0.2-0.5-0.3-0.7-0.5
		c-0.6-0.4-1.3-0.9-1.9-1.3c-0.2-0.1-0.4-0.3-0.6-0.4c-0.7-0.4-1.4-0.9-2.1-1.3c-0.1-0.1-0.3-0.2-0.4-0.2
		c-13.8-8.1-31-12.2-49.1-13.9C1225.9,623.8,1263,651.8,1262.5,670.1z"/>
	<path fill="#8DB739" d="M1277.4,778.7c33.9-3.6,65.7-29.8,80.2-57.7c0-0.1,0.1-0.1,0.1-0.2c0.5-1,1.1-2.1,1.6-3.1
		c0.1-0.2,0.2-0.3,0.2-0.5c0.4-0.9,0.9-1.9,1.3-2.8c0.1-0.3,0.2-0.5,0.3-0.8c0.3-0.9,0.7-1.7,1-2.6c0.1-0.4,0.2-0.7,0.4-1.1
		c0.3-0.8,0.5-1.5,0.8-2.3c0.1-0.5,0.3-0.9,0.4-1.4c0.2-0.7,0.4-1.3,0.6-2c0.2-0.6,0.3-1.2,0.4-1.8c0.1-0.5,0.3-1,0.4-1.6
		c0.2-1.1,0.4-2.2,0.6-3.3c-0.8,0-1.5,0-2.3,0c0,0-0.1,0-0.1,0c-5.5,0.1-10.8,1.1-16.1,2.7C1371.8,711.3,1321.1,768.8,1277.4,778.7z
		"/>
	<path fill="#8DB739" d="M1337.8,769.7c-10.4,4.3-19,9.6-25.3,13.1c-0.3,0.2-0.6,0.3-0.9,0.5c-0.2,0.1-0.4,0.2-0.6,0.3
		c-0.5,0.2-0.9,0.5-1.3,0.7c-0.1,0.1-0.3,0.1-0.4,0.2c-0.4,0.2-0.9,0.4-1.3,0.6c-0.1,0-0.1,0.1-0.2,0.1c-0.4,0.2-0.7,0.3-1.1,0.5
		c-0.1,0-0.2,0.1-0.2,0.1c-0.4,0.2-0.7,0.3-1.1,0.4c-0.1,0-0.1,0-0.2,0.1c-0.3,0.1-0.7,0.2-1,0.2c21.7,6.5,60.2,49.8,123.3,4.6
		C1376.8,812,1326.4,797.8,1337.8,769.7z"/>
	<path fill="#8DB739" d="M1360.4,871.2c1.8,0.2,3.6,0.4,5.4,0.5c0.8,0,1.7,0.1,2.5,0.1c-4.2-41.2-57.6-72.5-92.6-77.7
		C1323.8,809.7,1359.3,843.8,1360.4,871.2z"/>
	<path fill="#8DB739" d="M1197.4,884.9c4.4,24.9,41.4,32.9,22.3,79.1c2.6,2.1,5.4,4.3,8.4,6.5c0.1,0.1,0.3,0.2,0.4,0.3
		c0.3,0.2,0.7,0.5,1,0.7c0.6,0.4,1.1,0.8,1.7,1.2c0.2,0.2,0.5,0.3,0.7,0.5c0.8,0.6,1.7,1.1,2.6,1.7
		C1244.6,901.7,1210.8,908.9,1197.4,884.9z"/>
	<path fill="#8DB739" d="M1169,925.8c14.1-18.7,20-41.9,17.8-68.5c0-0.4-0.1-0.8-0.1-1.2c0-0.5-0.1-1.1-0.2-1.6
		c-0.1-0.6-0.1-1.2-0.2-1.9c0-0.4-0.1-0.8-0.1-1.2c-0.1-1.1-0.3-2.1-0.4-3.2c-2.6,3.2-5,6.3-7.2,9.5
		C1184.3,886.4,1178.4,907.3,1169,925.8z"/>
</g>
</svg>
