<svg xmlns="http://www.w3.org/2000/svg" viewBox="0 0 2700 1080"><title>mask_sunburst</title><path d="M0,0V1080H2700V0ZM1660,966h-1q-109.489-77.49225-219-155-1.49982-1.49991-3-3-43.4956,128.98708-87,258v2h-1q-42.99573-129.48707-86-259-111.98877,78.99207-224,158,40.99586-130.487,82-261v-1q-137.48621-.99995-275-2v-1q109.489-80.99194,219-162h2Q957.51089,459.00806,848,378q-.5-.99995-1-2,136.98624-1.49982,274-3-40.99586-130.4869-82-261h1q110.989,78.99216,222,158,43.4956-128.48712,87-257V11q43.4956,128.98708,87,258c18.78735-2.50879,44.79907-30.51758,61-42q81.49182-57.4942,163-115-40.99586,130.487-82,261,136.98633,1.49982,274,3-109.489,80.99194-219,162c2.25073,8.32782,47.15381,36.244,58,44q79.992,59.994,160,120h2q-136.98633,1.49982-274,3Q1619.496,835.48691,1660,966Z"/></svg>