<?xml version="1.0" encoding="utf-8"?>
<!-- Generator: Adobe Illustrator 15.0.2, SVG Export Plug-In . SVG Version: 6.00 Build 0)  -->
<!DOCTYPE svg PUBLIC "-//W3C//DTD SVG 1.1//EN" "http://www.w3.org/Graphics/SVG/1.1/DTD/svg11.dtd">
<svg version="1.1" id="Layer_1" xmlns="http://www.w3.org/2000/svg" xmlns:xlink="http://www.w3.org/1999/xlink" x="0px" y="0px"
	 width="82.123px" height="77.453px" viewBox="0 0 82.123 77.453" enable-background="new 0 0 82.123 77.453" fill="#ffffff" xml:space="preserve">
<g>
	<g>
		<path fill-rule="evenodd" clip-rule="evenodd" d="M45.376,58.605c-1.342-1.629-2.797-3.172-4.223-4.506
			c-1.498,1.229-3.035,2.662-4.463,4.197c1.924,3.336,2.563,7.541,2.877,9.466c0.657,4.039,0.753,7.827,0.771,8.571
			c0.07-0.011,0.143-0.013,0.204-0.011c0.064,0.002,0.138,0.011,0.209,0.025c0.05-0.736,0.362-4.516,1.238-8.499
			C42.403,65.949,43.275,61.799,45.376,58.605z"/>
		<g>
			<path d="M45.972,53.152c2.07-3.543,5.354-5.015,7.801-4.994c2.402,0.021,7.434-0.446,9.521-2.793
				c2.061-2.322,1.461-5.783-0.568-8.14c-2.035-2.357-5.224-1.189-6.613,0.174c-1.367,1.384-0.611,1.747,0.437,1.223
				c1.071-0.499,2.592,1.928,0.821,3.922c-1.77,1.994-4.111,2.406-6.475,2.998c-2.363,0.589-5.043,2.396-6.666,5.231L45.972,53.152z
				"/>
			<path d="M36.292,53.045c-2.02-3.576-5.262-5.078-7.711-5.1c-2.403-0.02-7.43-0.572-9.482-2.952
				c-2.031-2.358-1.41-5.835,0.653-8.156c2.062-2.324,5.26-1.075,6.63,0.309c1.347,1.409,0.586,1.758-0.452,1.218
				c-1.065-0.52-2.616,1.886-0.872,3.908c1.746,2.023,4.078,2.476,6.432,3.107c2.355,0.627,5.012,2.48,6.601,5.34L36.292,53.045z"/>
			<path d="M43.728,49.981c0.529-3.022,4.196-5.94,6.41-7.421c6.525-4.269,7.352-11.812,4.305-15.347
				c-6.095-7.067-10.435-0.164-9.393,4.015c0.365,1.502,0.814,1.149,1.133-0.068c0.32-1.219,1.768-1.637,2.741-0.509
				c0.994,1.15,1.022,3.49-1.153,6.497c-2.244,3.033-4.939,6.569-4.883,11.859L43.728,49.981z"/>
			<path d="M38.61,49.938c-0.494-3.031-4.127-6.012-6.319-7.53c-6.473-4.375-7.202-11.933-4.107-15.416
				c6.19-6.966,10.439,0.012,9.344,4.171c-0.387,1.5-0.833,1.137-1.136-0.084c-0.303-1.223-1.746-1.667-2.734-0.557
				c-1.008,1.134-1.089,3.448,1.071,6.516c2.206,3.071,4.854,6.654,4.731,11.94L38.61,49.938z"/>
			<path d="M40.378,47.791c0.18-7.118-0.325-18.257-4.39-29.582C40.488,6.933,40.227,5.913,41.489,0
				c1.186,5.934,0.911,6.95,5.267,18.3c-4.213,11.254-4.887,22.359-4.777,29.504l-0.795-0.615L40.378,47.791z"/>
		</g>
	</g>
	<g>
		<path d="M37.239,70.383c-6.49,7.018-15.974,8.078-25.086,2.911C4.547,68.977,1.271,61.324,0.234,53.738
			c-0.306-2.266-0.525-4.221,0.773-7.214c5.047,4.042,1.748,6.086,6.637,9.312c3.62,2.385,7.595-0.38,11.302,2.764
			c1.628-5.251,6.819-7.342,11.708-4.156c2.546,1.663,4.314,4.736,3.964,7.664c-0.367,3.074-3.31,5.791-6.562,4.496
			c-2.585-1.025-4.112-3.164-2.965-5.312c1.305-2.452,4.349-2.511,5.805-1.075c0.215-2.365-1.722-5.438-5.135-5.625
			c-2.17,0.095-5.941,1.913-5.102,6.003c1.15,2.996,0.371,6.138,2.376,8.513c4.581,5.448,11.212,2.116,14.313-1.825
			C37.521,67.062,39.186,68.278,37.239,70.383z"/>
		<path d="M28.335,73.925c0,0-21.306,3.287-26.388-20.599C1.947,53.326,7.462,69.328,28.335,73.925z"/>
	</g>
	<g>
		<path d="M44,70.647c6.152,7.314,15.576,8.823,24.922,4.09c7.799-3.95,11.436-11.441,12.828-18.97
			c0.413-2.248,0.723-4.191-0.432-7.242c-5.232,3.797-2.034,5.995-7.07,8.984c-3.729,2.217-7.566-0.734-11.419,2.23
			c-1.377-5.322-6.466-7.655-11.5-4.705c-2.62,1.543-4.531,4.528-4.319,7.469c0.219,3.088,3.032,5.939,6.342,4.803
			c2.629-0.904,4.257-2.966,3.211-5.17c-1.188-2.51-4.223-2.713-5.747-1.346c-0.104-2.373,1.977-5.352,5.394-5.377
			c2.164,0.199,5.847,2.191,4.814,6.236c-1.289,2.94-0.661,6.114-2.775,8.393c-4.834,5.226-11.301,1.587-14.211-2.502
			C43.875,67.317,42.158,68.455,44,70.647z"/>
		<path d="M52.728,74.605c0,0,21.126,4.288,27.33-19.331C80.058,55.274,73.792,70.997,52.728,74.605z"/>
	</g>
</g>
</svg>
