<?xml version="1.0" encoding="utf-8"?>
<!-- Generator: Adobe Illustrator 17.1.0, SVG Export Plug-In . SVG Version: 6.00 Build 0)  -->
<!DOCTYPE svg PUBLIC "-//W3C//DTD SVG 1.1//EN" "http://www.w3.org/Graphics/SVG/1.1/DTD/svg11.dtd">
<svg version="1.1" id="Layer_1" xmlns="http://www.w3.org/2000/svg" xmlns:xlink="http://www.w3.org/1999/xlink" x="0px" y="0px"
	 viewBox="0 0 790 795.259" enable-background="new 0 0 790 795.259" xml:space="preserve">
<g>
	<path fill="none" d="M349.775,111.959c3.322-18.865,10.182-36.626,23.056-54.998c22.523-32.252,44.546-43.703,63.441-56.703
		h-89.226C342.011,37.259,341.985,73.752,349.775,111.959z"/>
	<path fill="#FFC40B" d="M706.591,97.196c24.897-15.983,20.799-58.644-13.022-86.348c-5.631-4.6-10.621-8.589-15.165-10.589H607.43
		c2.062,5,6.016,11.533,12.456,16.148c-7.3-4.952-13.305-10.148-17.033-16.148h-0.026C623.507,33.259,714.943,45.343,706.591,97.196
		z M711.553,38.905c3.148,5.045,5.22,10.713,6.418,16.523c1.077,5.828,1.34,11.83,0.41,17.691
		c-0.924,5.757-2.821,11.836-7.098,15.938c2.263-5.296,2.661-10.842,2.796-16.304c0.007-5.469-0.475-10.913-1.565-16.253
		c-2.084-10.707-6.341-20.746-13.214-30.027C704.263,29.456,708.463,33.859,711.553,38.905z"/>
	<path fill="#FFC40B" d="M699.048,0.381c-0.199-0.127-0.397-0.253-0.601-0.381C698.65,0.127,698.85,0.254,699.048,0.381z"/>
	<path fill="#FFC40B" d="M700.695,1.459c-0.206-0.139-0.422-0.279-0.634-0.419C700.273,1.18,700.489,1.32,700.695,1.459z"/>
	<path fill="#FFC40B" d="M702.823,2.959c-0.296-0.217-0.594-0.433-0.903-0.651C702.228,2.525,702.527,2.742,702.823,2.959z"/>
	<path fill="#FFC40B" d="M716.849,16.317c-3.695-3.585-7.257-8.152-13.687-12.91c9.763,7.234,12.895,13.482,19.945,17.496
		c18.389,10.475,29.756-5.955,55.467-7.855c-7.116-3.489-11.873-8.789-16.304-12.789h-44.643
		C714.4,5.259,713.728,11.835,716.849,16.317z M765.463,9.968c-3.866,0.649-6.636,2.792-9.874,4.57
		c-3.136,1.881-6.482,3.666-10.214,5.045c-3.725,1.284-7.97,2.157-12.272,1.489c-4.296-0.578-8.29-2.838-10.772-5.867
		c3.86,1.329,7.38,2.035,10.836,1.842c3.411-0.231,6.726-1.104,10.054-2.343c3.366-1.142,6.707-2.651,10.368-3.851
		C757.134,9.75,761.487,8.382,765.463,9.968z"/>
	<path fill="#D1A30C" d="M619.885,16.407c-6.44-4.616-10.394-11.148-12.456-16.148h-4.577
		C606.58,6.259,612.586,11.456,619.885,16.407z"/>
	<path fill="#D1A30C" d="M699.048,0.381c0.345,0.221,0.682,0.44,1.013,0.659c0.212,0.14,0.427,0.28,0.634,0.419
		c0.419,0.284,0.827,0.566,1.225,0.848c0.309,0.218,0.606,0.435,0.903,0.651c0.114,0.083,0.227,0.166,0.339,0.249
		c6.43,4.758,9.992,9.525,13.687,13.109c-3.122-4.482-2.45-11.058,0.777-16.058h-20.053c0.295,0,0.588-0.039,0.874,0.14
		C698.651,0.526,698.849,0.254,699.048,0.381z"/>
	<path fill="#FFD967" d="M714.079,72.752c-0.135,5.462-0.532,11.008-2.796,16.304c4.277-4.102,6.174-10.181,7.098-15.938
		c0.93-5.86,0.666-11.862-0.41-17.691c-1.199-5.809-3.27-11.477-6.418-16.523c-3.09-5.045-7.29-9.449-12.253-12.433
		c6.873,9.282,11.131,19.321,13.214,30.027C713.605,61.839,714.086,67.283,714.079,72.752z"/>
	<path fill="#FFD967" d="M743.221,14.705c-3.328,1.239-6.642,2.112-10.054,2.343c-3.455,0.193-6.976-0.513-10.836-1.842
		c2.482,3.03,6.476,5.289,10.772,5.867c4.302,0.668,8.546-0.206,12.272-1.489c3.732-1.38,7.078-3.164,10.214-5.045
		c3.237-1.778,6.007-3.921,9.874-4.57c-3.975-1.585-8.329-0.218-11.874,0.886C749.927,12.054,746.587,13.563,743.221,14.705z"/>
	<path fill="#ABD156" d="M269.309,252.611c-0.225-1.551-0.413-3.088-0.581-4.616C268.896,249.524,269.083,251.06,269.309,252.611z"
		/>
	<path fill="#ABD156" d="M268.643,247.215c-2.583-24.953,2.547-46.728,15.676-64.179c-8.406,16.606-13.683,35.323-8.547,61.038
		c-2.026,2.863-4.155,5.707-6.463,8.538c19.517-23.982,28.75-48.489,28.135-83.536C274.532,188.157,265.295,215.107,268.643,247.215
		z M292.814,193.524c-0.25,3.479-0.936,6.875-1.795,10.238c-0.975,3.332-2.116,6.637-3.79,9.764
		c-1.635,3.106-3.673,6.213-6.661,8.396c1.32-7.016,2.494-13.339,4.283-19.854c1.859-6.457,3.899-12.831,7.457-19.128
		C293.096,186.528,293.09,190.058,292.814,193.524z"/>
	<path fill="#ABD156" d="M496.224,106.176c0.127,0.327,0.254,0.672,0.381,1.034C496.478,106.849,496.351,106.501,496.224,106.176z"
		/>
	<path fill="#ABD156" d="M496.615,107.24c1.914,5.471,3.797,14.815,4.949,25.831c-21.209,4.737-29.211,54.008-19.959,84.069
		C510.336,196.984,503.569,127.008,496.615,107.24z M496.493,180.025c-1.404,7.703-4.43,15.354-10.086,21.074
		c1.058-7.921,2.61-14.912,3.783-22.171c1.347-7.214,2.244-14.43,4.296-22.152C497.481,164.209,497.737,172.271,496.493,180.025z"/>
	<path fill="#ABD156" d="M583.467,92.163c-35.097-6.425-56.307,9.198-44.702,26.928c-5.107-1.133-10.124-2.742-14.945-4.804
		c27.067,11.607,60.35,8.783,80.934-11.692c-29.107-22.085-79.044-14.648-98.258-5.904C521.557,89.845,555.487,83.82,583.467,92.163
		z M584.468,110.681c-2.872,1.752-6.027,2.844-9.22,3.64c-3.218,0.68-6.495,1.046-9.791,0.828c-3.251-0.186-6.655-0.822-9.624-2.433
		c3.283-1.027,6.181-1.804,9.181-2.529l8.803-2.112l8.726-2.009c2.924-0.732,5.796-1.432,9.028-2.471
		C590.058,106.695,587.321,108.987,584.468,110.681z"/>
	<path fill="#ABD156" d="M520.492,112.77c-0.987-0.475-1.963-0.973-2.93-1.488C518.528,111.798,519.505,112.294,520.492,112.77z"/>
	<path fill="#ABD156" d="M516.178,110.538c-0.438-0.244-0.87-0.499-1.303-0.752C515.308,110.039,515.74,110.293,516.178,110.538z"/>
	<path fill="#ABD156" d="M513.31,108.85c-0.375-0.23-0.749-0.461-1.119-0.698C512.561,108.389,512.935,108.619,513.31,108.85z"/>
	<path fill="#ABD156" d="M504.343,102.402c-0.225-0.188-0.451-0.375-0.674-0.567C503.891,102.027,504.117,102.214,504.343,102.402z"
		/>
	<path fill="#ABD156" d="M502.384,98.872c0.344-0.219,0.707-0.438,1.094-0.658C503.091,98.434,502.728,98.653,502.384,98.872z"/>
	<path fill="#ABD156" d="M501.232,99.66c0.293-0.219,0.618-0.44,0.957-0.661C501.849,99.22,501.525,99.441,501.232,99.66z"/>
	<path fill="#ABD156" d="M506.982,104.516c-0.235-0.179-0.466-0.363-0.698-0.545C506.516,104.154,506.747,104.337,506.982,104.516z"
		/>
	<path fill="#ABD156" d="M523.321,114.072c-0.686-0.299-1.368-0.607-2.045-0.924C521.953,113.466,522.635,113.772,523.321,114.072z"
		/>
	<path fill="#ABD156" d="M504.922,97.442c0.469-0.237,0.963-0.473,1.478-0.708C505.885,96.969,505.39,97.205,504.922,97.442z"/>
	<path fill="#ABD156" d="M503.616,98.138c0.398-0.223,0.814-0.446,1.255-0.669C504.431,97.691,504.014,97.914,503.616,98.138z"/>
	<path fill="#ABD156" d="M510.019,106.713c-0.151-0.103-0.305-0.201-0.455-0.306C509.714,106.512,509.868,106.61,510.019,106.713z"
		/>
	<path fill="#ABD156" d="M511.571,123.267c-0.262-1.113-0.518-2.238-0.761-3.387C511.054,121.029,511.31,122.154,511.571,123.267z"
		/>
	<path fill="#ABD156" d="M512.486,126.947c-0.238-0.907-0.469-1.827-0.695-2.759C512.017,125.12,512.248,126.041,512.486,126.947z"
		/>
	<path fill="#ABD156" d="M512.731,121.003c0.141,0.08,0.283,0.159,0.424,0.238C513.013,121.162,512.872,121.083,512.731,121.003z"/>
	<path fill="#ABD156" d="M514.487,133.831c-0.254-0.792-0.502-1.596-0.746-2.41C513.985,132.235,514.233,133.038,514.487,133.831z"
		/>
	<path fill="#ABD156" d="M517.042,123.257c0.109,0.052,0.218,0.105,0.326,0.157C517.26,123.362,517.151,123.309,517.042,123.257z"/>
	<path fill="#ABD156" d="M515.688,137.402c-0.333-0.939-0.658-1.895-0.976-2.867C515.03,135.507,515.355,136.463,515.688,137.402z"
		/>
	<path fill="#ABD156" d="M521.351,125.187c0.074,0.031,0.147,0.061,0.221,0.092C521.499,125.248,521.425,125.218,521.351,125.187z"
		/>
	<path fill="#ABD156" d="M519.327,146.402c-0.371-0.809-0.736-1.631-1.094-2.47C518.591,144.772,518.956,145.593,519.327,146.402z"
		/>
	<path fill="#ABD156" d="M522.114,152.004c-0.885-1.637-1.742-3.347-2.569-5.127C520.372,148.657,521.229,150.365,522.114,152.004z"
		/>
	<path fill="#ABD156" d="M518.137,143.714c-0.377-0.889-0.746-1.799-1.109-2.723C517.391,141.915,517.76,142.825,518.137,143.714z"
		/>
	<path fill="#ABD156" d="M516.777,140.338c-0.293-0.759-0.58-1.53-0.862-2.312C516.197,138.808,516.484,139.579,516.777,140.338z"/>
	<path fill="#ABD156" d="M513.494,130.591c-0.296-1.015-0.586-2.044-0.866-3.093C512.908,128.547,513.198,129.576,513.494,130.591z"
		/>
	<path fill="#ABD156" d="M536.256,130.391c0.626,0.198,1.251,0.396,1.872,0.594C537.506,130.787,536.883,130.589,536.256,130.391z"
		/>
	<path fill="#ABD156" d="M544.099,132.974c-19.273-1.444-8.489,39.348,15.856,51.865c-13.408-4.145-27.428-13.68-37.74-32.649
		c16.098,29.641,41.228,36.33,58.944,35.307c-5.974-43.251-23.026-50.137-43.031-56.512
		C540.152,131.63,542.145,132.281,544.099,132.974z M561.635,150.999c2.507,1.9,4.431,4.365,6.027,6.952
		c2.981,5.257,4.674,11.361,3.373,17.511c-3.655-5.001-6.117-9.68-8.886-14.263c-1.295-2.324-2.7-4.525-4.123-6.765
		c-1.526-2.247-2.898-4.32-5.033-6.74C556.077,147.584,559.257,149.124,561.635,150.999z"/>
	<path fill="#ABD156" d="M525.643,126.861c0.036,0.013,0.071,0.026,0.107,0.039C525.715,126.887,525.679,126.874,525.643,126.861z"
		/>
	<path fill="#ABD156" d="M228.003,140.639c0.224,0.15,0.446,0.3,0.667,0.45C228.448,140.939,228.227,140.789,228.003,140.639z"/>
	<path fill="#ABD156" d="M230.178,142.125c0.281,0.196,0.566,0.391,0.843,0.587C230.744,142.516,230.46,142.321,230.178,142.125z"/>
	<path fill="#ABD156" d="M258.896,219.656c1.363-8.078,21.539-41.587-27.137-76.414c2.575,1.847,4.96,3.691,7.164,5.529
		C221.895,190.148,254.966,197.356,258.896,219.656z M251.972,167.021c2.205,2.066,3.866,4.602,5.2,7.266
		c1.231,2.721,2.135,5.59,2.366,8.595c0.269,2.972-0.007,6.085-1.372,8.871c-2.54-5.482-4.501-10.014-6.771-14.719
		c-1.051-2.362-2.244-4.641-3.385-7.003c-1.238-2.381-2.36-4.641-3.885-7.388C247.112,163.15,249.856,164.973,251.972,167.021z"/>
	<path fill="#ABD156" d="M273.734,473.268c0.35-0.257,0.701-0.513,1.057-0.767C274.435,472.755,274.084,473.011,273.734,473.268z"/>
	<path fill="#ABD156" d="M276.708,471.163c0.31-0.212,0.616-0.427,0.931-0.638C277.324,470.736,277.018,470.95,276.708,471.163z"/>
	<path fill="#ABD156" d="M268.397,477.44c0.314-0.263,0.64-0.522,0.96-0.783C269.037,476.918,268.711,477.177,268.397,477.44z"/>
	<path fill="#ABD156" d="M270.988,475.346c0.348-0.273,0.703-0.543,1.057-0.814C271.691,474.803,271.336,475.073,270.988,475.346z"
		/>
	<path fill="#ABD156" d="M260.396,484.976c0.408-0.433,0.823-0.865,1.243-1.294C261.219,484.111,260.805,484.543,260.396,484.976z"
		/>
	<path fill="#ABD156" d="M265.056,480.382c0.346-0.318,0.685-0.639,1.039-0.955C265.741,479.743,265.402,480.064,265.056,480.382z"
		/>
	<path fill="#ABD156" d="M258.337,487.238c0.425-0.486,0.864-0.967,1.305-1.448C259.201,486.271,258.763,486.752,258.337,487.238z"
		/>
	<path fill="#ABD156" d="M280.606,474.29c-16.6,10.136-34.969,38.693-40.329,63.349c-0.787-17.935,4.859-35.089,17.656-49.929
		c-16.801,19.46-21.319,42.899-15.105,66.875c29.25-20.503,38.464-50.023,37.765-85.982
		C280.632,470.521,280.626,472.409,280.606,474.29z M273.528,498.675c-0.615,4.442-1.846,8.749-3.347,12.947
		c-1.609,4.166-3.52,8.236-6.052,11.985c-2.488,3.723-5.514,7.285-9.426,9.674c3.681-8.172,6.502-15.907,9.489-23.898l9.182-24.167
		C274.38,489.676,274.156,494.265,273.528,498.675z"/>
	<path fill="#ABD156" d="M262.598,482.723c0.395-0.391,0.79-0.782,1.196-1.169C263.388,481.941,262.993,482.332,262.598,482.723z"/>
	<path fill="#ABD156" d="M212.158,440.91c-0.51-0.373-1.017-0.751-1.515-1.14C211.141,440.16,211.648,440.537,212.158,440.91z"/>
	<path fill="#ABD156" d="M209.91,439.177c-0.472-0.382-0.944-0.765-1.404-1.162C208.965,438.412,209.438,438.794,209.91,439.177z"/>
	<path fill="#ABD156" d="M200.849,429.853c-0.254-0.335-0.498-0.681-0.744-1.023C200.351,429.173,200.595,429.518,200.849,429.853z"
		/>
	<path fill="#ABD156" d="M205.746,435.442c-0.696-0.691-1.373-1.404-2.033-2.136C204.373,434.038,205.051,434.75,205.746,435.442z"
		/>
	<path fill="#ABD156" d="M207.751,437.335c-0.439-0.394-0.881-0.784-1.307-1.192C206.87,436.551,207.312,436.941,207.751,437.335z"
		/>
	<path fill="#ABD156" d="M216.916,444.068c-0.618-0.37-1.227-0.752-1.829-1.141C215.689,443.316,216.298,443.698,216.916,444.068z"
		/>
	<path fill="#ABD156" d="M214.497,442.541c-0.557-0.369-1.108-0.745-1.651-1.131C213.388,441.796,213.94,442.172,214.497,442.541z"
		/>
	<path fill="#ABD156" d="M193.436,416.368c-0.118-0.309-0.244-0.609-0.358-0.922C193.192,415.759,193.318,416.059,193.436,416.368z"
		/>
	<path fill="#ABD156" d="M219.415,445.497c-0.706-0.383-1.4-0.781-2.087-1.186C218.016,444.717,218.71,445.114,219.415,445.497z"/>
	<path fill="#ABD156" d="M194.715,419.448c-0.159-0.354-0.323-0.704-0.476-1.065C194.392,418.744,194.556,419.094,194.715,419.448z"
		/>
	<path fill="#ABD156" d="M194.573,412.216c2.069-0.101,4.081-0.132,6.061-0.114c-0.379,16.387,32.848,41.492,60.578,44.654
		c0.927,0.088,1.856,0.172,2.788,0.247c-0.922-0.056-1.852-0.14-2.788-0.247c-15.237-1.453-29.768-4.746-41.757-11.239
		c15.763,8.547,35.913,11.573,56.304,12.127C251.962,428.719,231.305,410.213,194.573,412.216z M221.1,423.4
		c-4.758-1.842-9.637-3.473-14.561-6.811c5.687-1.662,11.374-1.046,16.734,0.79c5.258,1.971,10.323,5.341,13.022,10.687
		C230.512,426.789,225.953,425.076,221.1,423.4z"/>
	<path fill="#ABD156" d="M197.56,424.945c-0.212-0.357-0.421-0.718-0.626-1.083C197.139,424.227,197.349,424.587,197.56,424.945z"/>
	<path fill="#ABD156" d="M196.084,422.281c-0.188-0.362-0.377-0.724-0.559-1.094C195.706,421.557,195.895,421.919,196.084,422.281z"
		/>
	<path fill="#ABD156" d="M199.15,427.466c-0.234-0.348-0.461-0.703-0.688-1.058C198.689,426.764,198.916,427.118,199.15,427.466z"/>
	<path fill="#ABD156" d="M202.656,432.116c-0.273-0.322-0.533-0.658-0.799-0.987C202.123,431.458,202.383,431.794,202.656,432.116z"
		/>
	<path fill="#ABD156" d="M258.446,469.431c0.27,0.061,0.534,0.119,0.791,0.173C258.98,469.55,258.716,469.492,258.446,469.431z"/>
	<path fill="#ABD156" d="M168.947,503.739c55.713,24.226,66.906-6.122,81.392-25.059c-3.04,3.971-5.937,8.438-9.127,12.806
		c-8.386-29.232-51.588-18.288-65.655-0.431c23.973-38.35,61.991-26.842,79.936-22.336
		C235.791,463.768,191.891,450.34,168.947,503.739z M217.656,504.266c-3.654,1.56-7.508,2.343-11.368,2.818
		c-3.879,0.34-7.783,0.327-11.65-0.36c-3.815-0.667-7.784-1.855-10.887-4.416c3.937,0.013,7.502-0.315,11.131-0.584
		c3.603-0.34,7.194-0.591,10.752-1.014c3.571-0.315,7.124-0.764,10.676-1.239c3.552-0.578,7.027-1.014,10.649-2.51
		C225.017,500.562,221.228,502.757,217.656,504.266z"/>
	<path fill="#ABD156" d="M257.607,469.237c0.16,0.038,0.315,0.073,0.471,0.109C257.922,469.31,257.767,469.275,257.607,469.237z"/>
	<path fill="#ABD156" d="M255.429,472.809c0.031-0.031,0.062-0.063,0.093-0.093C255.491,472.746,255.46,472.779,255.429,472.809z"/>
	<path fill="#ABD156" d="M255.741,468.781c0.202,0.05,0.4,0.099,0.596,0.148C256.14,468.881,255.943,468.832,255.741,468.781z"/>
	<path fill="#ABD156" d="M256.713,469.022c0.168,0.041,0.331,0.08,0.495,0.119C257.044,469.102,256.881,469.063,256.713,469.022z"/>
	<path fill="#ABD156" d="M253.436,474.909c-0.127,0.143-0.255,0.284-0.381,0.429C253.181,475.193,253.309,475.051,253.436,474.909z"
		/>
	<path fill="#ABD156" d="M252.294,476.23c-0.21,0.251-0.419,0.507-0.627,0.763C251.876,476.737,252.084,476.482,252.294,476.23z"/>
	<path fill="#ABD156" d="M258.077,470.472c-0.109,0.086-0.217,0.174-0.325,0.262C257.86,470.646,257.968,470.558,258.077,470.472z"
		/>
	<path fill="#ABD156" d="M256.908,471.444c-0.103,0.09-0.207,0.179-0.309,0.27C256.701,471.623,256.805,471.534,256.908,471.444z"/>
	<path fill="#ABD156" d="M254.476,473.778c-0.12,0.126-0.24,0.255-0.36,0.384C254.236,474.033,254.356,473.905,254.476,473.778z"/>
	<path fill="#ABD156" d="M251.203,477.571c-0.2,0.252-0.399,0.507-0.598,0.764C250.804,478.078,251.003,477.823,251.203,477.571z"/>
	<path fill="#8DB739" d="M206.539,195.405c6.925,37.063,29.75,57.733,54.307,62.329
		C255.299,223.424,237.847,206.221,206.539,195.405z"/>
	<path fill="#8DB739" d="M559.956,184.839c-24.345-12.517-35.13-53.309-15.856-51.865c-1.955-0.693-3.948-1.344-5.971-1.989
		c0,0,0,0,0,0c-0.621-0.198-1.246-0.396-1.872-0.594c-3.437-1.086-6.952-2.192-10.505-3.491c-0.036-0.013-0.072-0.026-0.107-0.039
		c-1.352-0.495-2.71-1.02-4.071-1.582c-0.074-0.03-0.147-0.061-0.221-0.092c-1.325-0.551-2.653-1.14-3.983-1.774
		c-0.109-0.052-0.218-0.104-0.326-0.157c-1.296-0.625-2.592-1.295-3.887-2.016c-0.141-0.079-0.283-0.158-0.424-0.238
		c-0.641-0.363-1.281-0.733-1.921-1.123c0.243,1.15,0.5,2.274,0.761,3.387c0.073,0.309,0.146,0.615,0.22,0.921
		c0.225,0.932,0.457,1.853,0.695,2.759c0.048,0.182,0.094,0.369,0.142,0.55c0.28,1.049,0.57,2.078,0.866,3.093
		c0.081,0.279,0.165,0.553,0.247,0.83c0.243,0.814,0.492,1.618,0.746,2.41c0.075,0.234,0.149,0.472,0.225,0.705
		c0.318,0.972,0.643,1.928,0.976,2.867c0.074,0.21,0.151,0.415,0.226,0.624c0.282,0.782,0.57,1.553,0.862,2.312
		c0.084,0.218,0.167,0.437,0.252,0.654c0.363,0.923,0.731,1.833,1.109,2.723c0.031,0.074,0.064,0.145,0.095,0.219
		c0.358,0.839,0.724,1.661,1.094,2.47c0.073,0.159,0.145,0.317,0.218,0.474c0.827,1.78,1.684,3.49,2.569,5.127
		c0.034,0.062,0.068,0.124,0.101,0.187C532.528,171.159,546.548,180.694,559.956,184.839z"/>
	<path fill="#8DB739" d="M583.467,92.163c-27.98-8.342-61.91-2.318-76.971,4.527c-0.032,0.015-0.065,0.029-0.097,0.044
		c-0.515,0.235-1.009,0.472-1.478,0.708c-0.017,0.009-0.034,0.018-0.051,0.026c-0.44,0.223-0.857,0.446-1.255,0.669
		c-0.046,0.026-0.093,0.051-0.138,0.077c-0.387,0.22-0.75,0.439-1.094,0.658c-0.067,0.042-0.131,0.085-0.196,0.127
		c-0.339,0.221-0.663,0.441-0.957,0.661c0.794,0.746,1.61,1.467,2.437,2.176c0.223,0.191,0.449,0.378,0.674,0.567
		c0.638,0.534,1.285,1.057,1.941,1.57c0.233,0.182,0.463,0.366,0.698,0.545c0.848,0.647,1.707,1.28,2.582,1.891
		c0.15,0.104,0.304,0.202,0.455,0.306c0.716,0.492,1.44,0.971,2.172,1.439c0.371,0.236,0.745,0.468,1.119,0.698
		c0.518,0.319,1.04,0.629,1.565,0.936c0.433,0.253,0.865,0.508,1.303,0.752c0.457,0.256,0.922,0.498,1.384,0.745
		c0.967,0.515,1.943,1.012,2.93,1.488c0.261,0.126,0.521,0.254,0.783,0.378c0.677,0.317,1.359,0.625,2.045,0.924
		c0.166,0.072,0.333,0.143,0.499,0.214c4.822,2.062,9.839,3.672,14.945,4.804C527.16,101.361,548.37,85.737,583.467,92.163z"/>
	<path fill="#8DB739" d="M501.565,133.071c-1.153-11.016-3.035-20.36-4.949-25.831c-0.004-0.01-0.007-0.021-0.01-0.03
		c-0.127-0.362-0.254-0.707-0.381-1.034c-0.077-0.097-0.148-0.187-0.225-0.276c-28.25,21.163-33.815,82.059-14.394,111.24
		C472.353,187.079,480.355,137.808,501.565,133.071z"/>
	<path fill="#C5DD85" d="M562.149,161.198c2.769,4.583,5.231,9.263,8.886,14.263c1.301-6.15-0.391-12.254-3.373-17.511
		c-1.596-2.587-3.52-5.051-6.027-6.952c-2.379-1.875-5.558-3.415-8.643-3.306c2.135,2.42,3.507,4.493,5.033,6.74
		C559.449,156.673,560.853,158.875,562.149,161.198z"/>
	<path fill="#C5DD85" d="M573.818,108.075l-8.803,2.112c-3,0.726-5.898,1.502-9.181,2.529c2.968,1.611,6.373,2.247,9.624,2.433
		c3.295,0.218,6.572-0.148,9.791-0.828c3.193-0.796,6.348-1.887,9.22-3.64c2.853-1.694,5.591-3.986,7.104-7.086
		c-3.232,1.04-6.104,1.739-9.028,2.471L573.818,108.075z"/>
	<path fill="#C5DD85" d="M486.407,201.099c5.656-5.72,8.682-13.371,10.086-21.074c1.243-7.754,0.987-15.816-2.007-23.249
		c-2.052,7.722-2.949,14.937-4.296,22.152C489.017,186.187,487.466,193.178,486.407,201.099z"/>
	<path fill="#C5DD85" d="M280.568,221.922c2.988-2.182,5.027-5.289,6.661-8.396c1.674-3.126,2.815-6.432,3.79-9.764
		c0.859-3.363,1.545-6.759,1.795-10.238c0.276-3.466,0.282-6.996-0.506-10.585c-3.558,6.297-5.598,12.671-7.457,19.128
		C283.062,208.583,281.888,214.906,280.568,221.922z"/>
	<path fill="#C5DD85" d="M251.395,177.034c2.27,4.705,4.232,9.237,6.771,14.719c1.366-2.786,1.641-5.899,1.372-8.871
		c-0.231-3.005-1.135-5.874-2.366-8.595c-1.333-2.664-2.995-5.2-5.2-7.266c-2.116-2.047-4.86-3.871-7.848-4.378
		c1.526,2.747,2.648,5.007,3.885,7.388C249.15,172.393,250.343,174.672,251.395,177.034z"/>
	<path fill="#C5DD85" d="M254.703,533.28c3.911-2.388,6.938-5.951,9.426-9.674c2.532-3.749,4.443-7.819,6.052-11.985
		c1.501-4.198,2.732-8.505,3.347-12.947c0.628-4.41,0.853-8.999-0.154-13.46l-9.182,24.167
		C261.205,517.373,258.384,525.108,254.703,533.28z"/>
	<path fill="#C5DD85" d="M205.635,500.71c-3.559,0.423-7.149,0.674-10.752,1.014c-3.629,0.27-7.194,0.597-11.131,0.584
		c3.103,2.561,7.072,3.749,10.887,4.416c3.866,0.687,7.771,0.7,11.65,0.36c3.86-0.475,7.713-1.258,11.368-2.818
		c3.572-1.509,7.361-3.704,9.303-7.305c-3.622,1.495-7.097,1.932-10.649,2.51C212.758,499.946,209.206,500.395,205.635,500.71z"/>
	<path fill="#C5DD85" d="M223.273,417.379c-5.36-1.836-11.047-2.452-16.734-0.79c4.924,3.338,9.803,4.969,14.561,6.811
		c4.853,1.675,9.412,3.389,15.195,4.666C233.596,422.72,228.531,419.35,223.273,417.379z"/>
	<path fill="#8DB739" d="M276.708,471.163c-0.647,0.443-1.288,0.888-1.917,1.338c-0.356,0.254-0.707,0.511-1.057,0.767
		c-0.571,0.418-1.133,0.84-1.689,1.264c-0.354,0.271-0.709,0.541-1.057,0.814c-0.553,0.433-1.094,0.872-1.631,1.311
		c-0.32,0.261-0.646,0.52-0.96,0.783c-0.784,0.657-1.552,1.319-2.302,1.988c-0.354,0.316-0.693,0.636-1.039,0.955
		c-0.424,0.389-0.849,0.778-1.262,1.172c-0.406,0.387-0.801,0.778-1.196,1.169c-0.322,0.319-0.643,0.638-0.958,0.959
		c-0.421,0.429-0.835,0.861-1.243,1.294c-0.255,0.27-0.505,0.542-0.754,0.814c-0.441,0.481-0.88,0.962-1.305,1.448
		c-0.137,0.156-0.268,0.315-0.404,0.472c-12.797,14.839-18.443,31.993-17.656,49.929c5.36-24.655,23.729-53.213,40.329-63.349
		c0.02-1.881,0.026-3.768-0.013-5.688c-1.006,0.633-1.988,1.275-2.955,1.923C277.324,470.736,277.018,470.95,276.708,471.163z"/>
	<path fill="#8DB739" d="M175.557,491.056c14.067-17.858,57.269-28.802,65.655,0.431c3.19-4.368,6.086-8.835,9.127-12.806
		c0.089-0.116,0.177-0.231,0.266-0.346c0.198-0.257,0.398-0.512,0.598-0.764c0.154-0.194,0.31-0.385,0.465-0.577
		c0.208-0.257,0.417-0.512,0.627-0.763c0.252-0.301,0.505-0.6,0.761-0.893c0.126-0.145,0.254-0.286,0.381-0.429
		c0.225-0.253,0.452-0.502,0.68-0.747c0.12-0.128,0.239-0.257,0.36-0.384c0.315-0.33,0.632-0.654,0.953-0.969
		c0.031-0.031,0.062-0.063,0.093-0.093c0.354-0.345,0.714-0.677,1.077-1.002c0.102-0.092,0.206-0.18,0.309-0.27
		c0.278-0.243,0.56-0.479,0.844-0.71c0.108-0.088,0.216-0.176,0.325-0.262c0.381-0.3,0.766-0.592,1.159-0.868
		c-0.256-0.054-0.521-0.112-0.791-0.173c-0.12-0.027-0.245-0.057-0.368-0.085c-0.156-0.036-0.311-0.071-0.471-0.109
		c-0.131-0.031-0.266-0.064-0.399-0.096c-0.164-0.039-0.327-0.078-0.495-0.119c-0.124-0.03-0.25-0.062-0.376-0.093
		c-0.196-0.048-0.394-0.097-0.596-0.148c-0.082-0.02-0.165-0.041-0.248-0.062C237.548,464.213,199.53,452.705,175.557,491.056z"/>
	<path fill="#8DB739" d="M261.212,456.757c0.936,0.107,1.866,0.191,2.788,0.247C263.068,456.928,262.139,456.845,261.212,456.757z"
		/>
	<path fill="#8DB739" d="M200.634,412.102c-1.98-0.018-3.992,0.013-6.061,0.114c-0.836,0.046-1.671,0.089-2.524,0.156
		c0.32,1.049,0.666,2.071,1.03,3.074c0.114,0.313,0.24,0.614,0.358,0.922c0.26,0.68,0.523,1.357,0.803,2.016
		c0.153,0.361,0.317,0.71,0.476,1.065c0.264,0.586,0.53,1.17,0.81,1.739c0.182,0.37,0.37,0.732,0.559,1.094
		c0.277,0.534,0.559,1.062,0.851,1.581c0.205,0.365,0.414,0.725,0.626,1.083c0.294,0.495,0.595,0.982,0.902,1.463
		c0.227,0.355,0.454,0.71,0.688,1.058c0.311,0.463,0.632,0.914,0.955,1.364c0.247,0.343,0.491,0.688,0.744,1.023
		c0.328,0.434,0.668,0.854,1.008,1.275c0.266,0.33,0.527,0.665,0.799,0.987c0.344,0.406,0.703,0.796,1.057,1.19
		c0.66,0.732,1.337,1.445,2.033,2.136c0.234,0.232,0.46,0.474,0.698,0.701c0.426,0.408,0.868,0.798,1.307,1.192
		c0.252,0.226,0.499,0.459,0.755,0.68c0.459,0.397,0.931,0.78,1.404,1.162c0.244,0.198,0.486,0.399,0.734,0.594
		c0.497,0.389,1.004,0.767,1.515,1.14c0.228,0.167,0.456,0.335,0.687,0.5c0.543,0.386,1.094,0.762,1.651,1.131
		c0.196,0.13,0.393,0.258,0.59,0.386c0.603,0.389,1.211,0.771,1.829,1.141c0.137,0.082,0.275,0.162,0.412,0.243
		c0.688,0.405,1.382,0.803,2.087,1.186c0.013,0.007,0.026,0.014,0.04,0.021c11.989,6.492,26.52,9.786,41.757,11.239
		C233.482,453.595,200.255,428.489,200.634,412.102z"/>
	<path fill="#8DB739" d="M258.896,219.656c-3.93-22.299-37.001-29.508-19.972-70.885c-2.204-1.838-4.59-3.682-7.164-5.529
		c-0.247-0.177-0.488-0.353-0.739-0.53c-0.277-0.196-0.562-0.391-0.843-0.587c-0.497-0.345-0.998-0.69-1.508-1.036
		c-0.221-0.15-0.443-0.3-0.667-0.45c-0.755-0.505-1.521-1.01-2.306-1.516C216.695,204.604,246.9,198.191,258.896,219.656z"/>
	<path fill="#8DB739" d="M284.319,183.036c-13.129,17.451-18.259,39.227-15.676,64.179c0.027,0.26,0.056,0.52,0.085,0.78
		c0.168,1.528,0.356,3.064,0.581,4.616c2.308-2.831,4.437-5.674,6.463-8.538C270.636,218.359,275.913,199.642,284.319,183.036z"/>
	<path fill="#98E29B" d="M377.525,573.308c21.735-56.14,39.457-114.758,44.285-175.95
		c12.618-173.286-106.158-236.507-41.201-312.545c29.109-34.258,82.325-27.839,109.274,13.697
		c-52.633,26.543-30.237,118.007-9.034,125.24c7.2-0.924,27.705-11.74,34.212-57.642c25.307,32.384,63.61,31.08,70.836,26.067
		c2.481-4.397,3.879-37.243-15.972-59.189c18.004-3.043,33.956-12.864,41.817-29.919c0.372-0.815,0.263-1.72-0.565-2.548
		c-21.094-36.71-91.507-33.995-112.973-8.621c-19.12-39.297-68.213-55.613-106.728-35.13c20.159-24.501,48.768-43.51,79.616-56.51
		h-34.82c-18.896,13-40.919,24.251-63.441,56.504c-12.874,18.372-19.735,36.531-23.056,55.396c-7.79-38.208-7.765-74.9-2.728-111.9
		h-15.722c-32.906,222,138.052,233.141,46.783,530.788c-1.943-64.1-15.112-108.179-30.282-138.297
		c-29.513-58.579-52.448-48.813-70.362-100.312c-3.341-9.609-5.495-19.602-6.411-29.635c40.259-26.908,34.757-90.121,29.641-99.114
		c-5.726,0.796-19.389,8.082-27.153,19.996c-6.835-28.539-41.445-50.273-49.876-50.607c-4.373,4.339-13.971,36.277-6.149,56.04
		c-4.924-2.337-12.824-2.037-16.793-0.836c-7.443,15.399,9.368,78.105,59.968,78.092c-0.436,17.203,4.982,34.194,13.016,49.561
		c-21.548-10.705-45.644-16.115-69.738-14.818c0.674,3.006,1.149,6.191,1.383,9.587l-0.208,3.423
		c68.038-1.262,136.972,50.457,154.511,169.484c-17.529-25.965-46.183-41.678-74.382-29.309
		c-26.275-65.447-93.277-54.888-99.689-46.325c-0.994,8.858,4.296,35.047,23.146,46.165c-29.648,8.114-45.754,42.057-45.049,51.467
		c3.899,6.714,39.406,26.44,67.169,11.92c-3.257,20.123,5.847,40.253,9.656,43.334c9.893,1.027,64.303-27.313,49.043-94.539
		c34.79-14.551,68.58,23.879,74.78,65.339c2.013,39.13-0.949,43.187,4.866,45.452C372.409,578.36,376.191,576.884,377.525,573.308z
		 M481.605,217.14C462.185,187.959,467.749,127.063,496,105.9c0.077,0.089,0.147,0.179,0.225,0.276
		c0.127,0.326,0.254,0.674,0.381,1.034c0.003,0.01,0.007,0.021,0.01,0.03C503.569,127.008,510.336,196.984,481.605,217.14z
		 M581.159,187.497c-17.716,1.023-42.846-5.666-58.944-35.307c-0.034-0.062-0.068-0.124-0.101-0.187
		c-0.885-1.638-1.742-3.346-2.569-5.127c-0.073-0.157-0.146-0.316-0.218-0.474c-0.371-0.809-0.736-1.631-1.094-2.47
		c-0.031-0.074-0.064-0.145-0.095-0.219c-0.377-0.89-0.746-1.799-1.109-2.723c-0.085-0.216-0.168-0.436-0.252-0.654
		c-0.293-0.759-0.58-1.53-0.862-2.312c-0.075-0.208-0.152-0.414-0.226-0.624c-0.333-0.939-0.658-1.895-0.976-2.867
		c-0.076-0.233-0.15-0.47-0.225-0.705c-0.254-0.792-0.502-1.596-0.746-2.41c-0.083-0.276-0.166-0.551-0.247-0.83
		c-0.296-1.015-0.586-2.044-0.866-3.093c-0.048-0.181-0.094-0.368-0.142-0.55c-0.238-0.907-0.469-1.827-0.695-2.759
		c-0.074-0.306-0.148-0.612-0.22-0.921c-0.262-1.113-0.518-2.238-0.761-3.387c0.64,0.39,1.28,0.76,1.921,1.123
		c0.141,0.08,0.283,0.159,0.424,0.238c1.295,0.721,2.592,1.391,3.887,2.016c0.109,0.052,0.218,0.105,0.326,0.157
		c1.329,0.634,2.657,1.222,3.983,1.774c0.074,0.031,0.147,0.061,0.221,0.092c1.361,0.562,2.719,1.087,4.071,1.582
		c0.036,0.013,0.071,0.026,0.107,0.039c3.553,1.298,7.069,2.404,10.505,3.491c0.627,0.198,1.251,0.396,1.872,0.594c0,0,0,0,0,0
		C558.133,137.36,575.186,144.246,581.159,187.497z M604.754,102.593c-20.584,20.475-53.867,23.299-80.934,11.692
		c-0.166-0.071-0.333-0.142-0.499-0.214c-0.686-0.299-1.368-0.606-2.045-0.924c-0.262-0.123-0.522-0.252-0.783-0.378
		c-0.987-0.476-1.964-0.972-2.93-1.488c-0.462-0.247-0.927-0.489-1.384-0.745c-0.438-0.245-0.87-0.499-1.303-0.752
		c-0.525-0.307-1.048-0.617-1.565-0.936c-0.375-0.231-0.749-0.461-1.119-0.698c-0.732-0.468-1.456-0.947-2.172-1.439
		c-0.151-0.104-0.305-0.201-0.455-0.306c-0.875-0.611-1.734-1.244-2.582-1.891c-0.235-0.179-0.466-0.363-0.698-0.545
		c-0.656-0.512-1.303-1.035-1.941-1.57c-0.225-0.189-0.451-0.375-0.674-0.567c-0.826-0.709-1.642-1.43-2.437-2.176
		c0.293-0.219,0.618-0.44,0.957-0.661c0.065-0.042,0.129-0.085,0.196-0.127c0.344-0.219,0.707-0.438,1.094-0.658
		c0.045-0.026,0.093-0.051,0.138-0.077c0.398-0.223,0.815-0.446,1.255-0.669c0.017-0.009,0.034-0.018,0.051-0.026
		c0.469-0.237,0.963-0.473,1.478-0.708c0.032-0.015,0.065-0.029,0.097-0.044C525.71,87.945,575.647,80.508,604.754,102.593z
		 M297.443,169.075c0.615,35.047-8.617,59.555-28.135,83.536c-0.225-1.551-0.412-3.087-0.581-4.616
		c-0.029-0.26-0.058-0.521-0.085-0.78C265.295,215.107,274.532,188.157,297.443,169.075z M225.697,139.123
		c0.786,0.505,1.551,1.011,2.306,1.516c0.224,0.15,0.445,0.3,0.667,0.45c0.511,0.345,1.012,0.691,1.508,1.036
		c0.282,0.196,0.565,0.391,0.843,0.587c0.251,0.177,0.492,0.353,0.739,0.53c48.676,34.827,28.5,68.336,27.137,76.414
		C246.9,198.191,216.695,204.604,225.697,139.123z M206.539,195.405c31.308,10.817,48.76,28.019,54.307,62.329
		C236.289,253.138,213.463,232.468,206.539,195.405z M242.828,554.584c-6.214-23.975-1.697-47.415,15.105-66.875
		c0.135-0.157,0.267-0.315,0.404-0.472c0.426-0.486,0.864-0.967,1.305-1.448c0.25-0.272,0.5-0.544,0.754-0.814
		c0.408-0.433,0.822-0.865,1.243-1.294c0.315-0.321,0.636-0.64,0.958-0.959c0.395-0.391,0.789-0.782,1.196-1.169
		c0.413-0.393,0.838-0.782,1.262-1.172c0.346-0.318,0.685-0.639,1.039-0.955c0.75-0.669,1.518-1.331,2.302-1.988
		c0.314-0.263,0.64-0.522,0.96-0.783c0.538-0.439,1.078-0.877,1.631-1.311c0.348-0.273,0.703-0.543,1.057-0.814
		c0.556-0.424,1.118-0.846,1.689-1.264c0.35-0.257,0.701-0.513,1.057-0.767c0.629-0.45,1.27-0.895,1.917-1.338
		c0.31-0.213,0.616-0.427,0.931-0.638c0.967-0.648,1.949-1.291,2.955-1.923C281.292,504.561,272.079,534.082,242.828,554.584z
		 M255.493,468.719c0.083,0.021,0.166,0.042,0.248,0.062c0.202,0.051,0.399,0.099,0.596,0.148c0.126,0.031,0.253,0.062,0.376,0.093
		c0.168,0.041,0.331,0.08,0.495,0.119c0.133,0.032,0.268,0.065,0.399,0.096c0.16,0.038,0.315,0.073,0.471,0.109
		c0.123,0.028,0.248,0.058,0.368,0.085c0.27,0.061,0.534,0.119,0.791,0.173c-0.393,0.276-0.778,0.569-1.159,0.868
		c-0.109,0.086-0.217,0.174-0.325,0.262c-0.284,0.23-0.566,0.467-0.844,0.71c-0.103,0.09-0.207,0.179-0.309,0.27
		c-0.363,0.325-0.723,0.657-1.077,1.002c-0.031,0.03-0.062,0.063-0.093,0.093c-0.321,0.315-0.639,0.639-0.953,0.969
		c-0.12,0.126-0.24,0.255-0.36,0.384c-0.228,0.245-0.455,0.494-0.68,0.747c-0.127,0.143-0.255,0.284-0.381,0.429
		c-0.255,0.293-0.509,0.591-0.761,0.893c-0.21,0.251-0.419,0.506-0.627,0.763c-0.155,0.192-0.311,0.383-0.465,0.577
		c-0.2,0.252-0.399,0.507-0.598,0.764c-0.089,0.115-0.177,0.23-0.266,0.346c-14.486,18.937-25.679,49.285-81.392,25.059
		C191.891,450.34,235.791,463.768,255.493,468.719z M219.455,445.518c-0.013-0.007-0.027-0.014-0.04-0.021
		c-0.706-0.383-1.4-0.78-2.087-1.186c-0.137-0.081-0.275-0.161-0.412-0.243c-0.618-0.371-1.227-0.752-1.829-1.141
		c-0.198-0.128-0.394-0.256-0.59-0.386c-0.557-0.369-1.108-0.745-1.651-1.131c-0.231-0.164-0.459-0.332-0.687-0.5
		c-0.51-0.374-1.018-0.751-1.515-1.14c-0.248-0.194-0.49-0.395-0.734-0.594c-0.472-0.383-0.944-0.765-1.404-1.162
		c-0.256-0.222-0.503-0.454-0.755-0.68c-0.439-0.394-0.881-0.784-1.307-1.192c-0.238-0.228-0.464-0.469-0.698-0.701
		c-0.696-0.691-1.373-1.403-2.033-2.136c-0.355-0.394-0.713-0.784-1.057-1.19c-0.273-0.322-0.534-0.658-0.799-0.987
		c-0.34-0.421-0.68-0.841-1.008-1.275c-0.253-0.335-0.498-0.68-0.744-1.023c-0.323-0.449-0.644-0.901-0.955-1.364
		c-0.234-0.348-0.461-0.703-0.688-1.058c-0.307-0.481-0.608-0.968-0.902-1.463c-0.212-0.357-0.421-0.718-0.626-1.083
		c-0.291-0.519-0.574-1.047-0.851-1.581c-0.188-0.363-0.377-0.724-0.559-1.094c-0.28-0.569-0.546-1.153-0.81-1.739
		c-0.159-0.354-0.323-0.704-0.476-1.065c-0.28-0.659-0.543-1.336-0.803-2.016c-0.118-0.309-0.244-0.609-0.358-0.922
		c-0.364-1.003-0.71-2.025-1.03-3.074c0.853-0.067,1.688-0.11,2.524-0.156c36.732-2.003,57.389,16.503,81.186,45.429
		C255.368,457.091,235.218,454.065,219.455,445.518z"/>
	<path fill="#98E29B" d="M778.574,12.998c-25.711,1.9-37.078,18.48-55.467,8.004c-7.05-4.014-10.182-10.461-19.945-17.695
		c-0.112-0.083-0.225-0.216-0.339-0.299c-0.296-0.216-0.595-0.458-0.903-0.676c-0.398-0.281-0.806-0.577-1.225-0.86
		c-0.206-0.139-0.422-0.286-0.634-0.426c-0.331-0.219-0.668-0.442-1.013-0.663c-0.198-0.127-0.398,0.144-0.601,0.017
		c-0.286-0.179-0.579-0.141-0.874-0.141h-19.17c4.545,2,9.534,5.79,15.165,10.39c33.821,27.704,37.919,70.763,13.022,86.746
		c8.353-51.853-83.083-64.136-103.764-97.136h-13.31c17.902,44,123.155,47.105,114.131,100.968
		c17.953-3.839,36.867-34.111,25.044-65.519c14.285,2.426,25.371-5.716,38.81-12.495c8.97-4.531,17.773-7.463,22.499-8.201
		c-3.497-1.935-8.232-5.754-15.945-14.754H762.27C766.701,4.259,771.458,9.51,778.574,12.998z"/>
	<path fill="#FFC40B" d="M55.048,216.181c0.007,0.023,0.013,0.047,0.019,0.07C55.061,216.228,55.055,216.204,55.048,216.181z"/>
	<path fill="#FFC40B" d="M100.997,322.756c0.485-0.248,0.954-0.477,1.429-0.713C101.951,322.279,101.482,322.508,100.997,322.756z"
		/>
	<path fill="#FFC40B" d="M98.404,324.113c0.445-0.238,0.874-0.458,1.311-0.686C99.278,323.655,98.849,323.875,98.404,324.113z"/>
	<path fill="#FFC40B" d="M68.709,401.026c-0.087,0.418-0.169,0.839-0.242,1.266C68.539,401.865,68.624,401.445,68.709,401.026z"/>
	<path fill="#FFC40B" d="M193.106,307.005c-2.119-9.706-6.681-17.379-12.906-23.624c0.1,0.117,0.208,0.23,0.306,0.348
		c-10.938-6.483-119.27-44.958-121.623-17.543c-8.719-13.32-12.605-28.096-11.323-39.49c-1.905,16.697,7.265,40.66,26.544,56.649
		c22.441,18.756,52.453,25.398,81.358,28.415c-0.233,0.03-0.461,0.499-0.692,0.499c0.008,0,0.016,0,0.025,0
		c-46.774,10-83.432,21.83-69.18,64.567C122.153,349.937,201.758,350.992,193.106,307.005z M122.52,347.091
		c32.52-7.26,59.827-19.122,65.04-33.629C189.676,330.447,160.541,350.237,122.52,347.091z"/>
	<path fill="#FFC40B" d="M76.048,385.449c0.025-0.031,0.05-0.061,0.075-0.092l-0.08,0.075L76.048,385.449z"/>
	<path fill="#FFC40B" d="M69.249,398.755c-0.019,0.068-0.036,0.136-0.055,0.204C69.213,398.892,69.231,398.823,69.249,398.755z"/>
	<path fill="#FFC40B" d="M68.017,405.971c-0.064,0.849-0.112,1.708-0.125,2.589C67.906,407.679,67.954,406.82,68.017,405.971z"/>
	<path fill="#FFC40B" d="M116.845,316.083c0.234-0.075,0.461-0.142,0.693-0.213C117.307,315.942,117.079,316.008,116.845,316.083z"
		/>
	<path fill="#FFC40B" d="M103.498,321.51c0.461-0.224,0.908-0.43,1.359-0.643C104.405,321.08,103.959,321.286,103.498,321.51z"/>
	<path fill="#FFC40B" d="M96.793,248.809c15.331,5.331,32.567,9.397,47.889,14.543C129.052,257.854,111.938,253.896,96.793,248.809z
		"/>
	<path fill="#FFC40B" d="M68.318,403.221c-0.106,0.721-0.193,1.454-0.259,2.199C68.125,404.675,68.214,403.944,68.318,403.221z"/>
	<path fill="#FFC40B" d="M124.488,314.065c0.059-0.012,0.116-0.023,0.174-0.035C124.604,314.043,124.546,314.053,124.488,314.065z"
		/>
	<path fill="#FFC40B" d="M126.285,313.716c0.01-0.002,0.02-0.003,0.029-0.005C126.304,313.712,126.294,313.714,126.285,313.716z"/>
	<path fill="#FFC40B" d="M51.628,214.934c0.101-0.145,0.206-0.287,0.311-0.428C51.834,214.647,51.729,214.789,51.628,214.934z"/>
	<path fill="#FFC40B" d="M122.651,314.472c0.104-0.024,0.205-0.046,0.309-0.07C122.856,314.426,122.755,314.447,122.651,314.472z"/>
	<path fill="#FFC40B" d="M47.61,226.286c0.053-0.429,0.114-0.853,0.182-1.271C47.723,225.433,47.664,225.857,47.61,226.286z"/>
	<path fill="#FFC40B" d="M50.736,216.33c0.058-0.102,0.124-0.196,0.183-0.296C50.86,216.133,50.795,216.228,50.736,216.33z"/>
	<path fill="#FFC40B" d="M48.505,221.745c0.072-0.259,0.156-0.509,0.235-0.763C48.66,221.235,48.578,221.486,48.505,221.745z"/>
	<path fill="#FFC40B" d="M120.765,314.941c0.151-0.04,0.299-0.075,0.449-0.113C121.064,314.866,120.917,314.901,120.765,314.941z"/>
	<path fill="#FFC40B" d="M49.054,220.029c0.083-0.234,0.17-0.466,0.259-0.695C49.224,219.563,49.138,219.794,49.054,220.029z"/>
	<path fill="#FFC40B" d="M47.9,224.412c0.096-0.525,0.204-1.041,0.324-1.548C48.104,223.37,47.997,223.887,47.9,224.412z"/>
	<path fill="#FFC40B" d="M105.915,320.368c0.425-0.195,0.837-0.375,1.255-0.56C106.753,319.993,106.34,320.173,105.915,320.368z"/>
	<path fill="#FFC40B" d="M112.685,317.533c0.315-0.119,0.621-0.226,0.931-0.339C113.306,317.307,113,317.414,112.685,317.533z"/>
	<path fill="#FFC40B" d="M114.796,316.768c0.276-0.096,0.544-0.183,0.817-0.274C115.34,316.585,115.072,316.671,114.796,316.768z"/>
	<path fill="#FFC40B" d="M110.502,318.385c0.355-0.144,0.699-0.274,1.048-0.411C111.201,318.111,110.857,318.242,110.502,318.385z"
		/>
	<path fill="#FFC40B" d="M108.248,319.328c0.393-0.17,0.774-0.325,1.159-0.486C109.022,319.003,108.641,319.159,108.248,319.328z"/>
	<path fill="#FFC40B" d="M54.089,212.075c0.129,0.756,0.282,1.496,0.456,2.224C54.375,213.571,54.218,212.833,54.089,212.075z"/>
	<path fill="#FFC40B" d="M118.833,315.476c0.194-0.056,0.382-0.106,0.574-0.161C119.215,315.37,119.027,315.42,118.833,315.476z"/>
	<path fill="#FFC40B" d="M49.74,218.317c0.08-0.181,0.157-0.364,0.241-0.541C49.897,217.952,49.82,218.136,49.74,218.317z"/>
	<path fill="#FFC40B" d="M52.658,213.595c0.105-0.124,0.208-0.251,0.316-0.372C52.866,213.344,52.763,213.471,52.658,213.595z"/>
	<path fill="#FFC40B" d="M13.581,313.688c-0.652-0.191-1.317-0.374-1.996-0.546C12.265,313.314,12.926,313.499,13.581,313.688z"/>
	<path fill="#FFC40B" d="M92.664,314.658c-0.124,0.05-0.246,0.101-0.368,0.151C92.418,314.759,92.539,314.709,92.664,314.658z"/>
	<path fill="#FFC40B" d="M81.359,321.259h-0.001c-7.534-31-50.21-17.314-62.347-5.336l-0.002-0.191
		c19.457,7.591,27.976,21.988,45.787,15.619C70.811,329.206,74.682,325.259,81.359,321.259z M46.292,326.314
		c-3.648-1.875-6.899-4.153-9.932-6.49c-3.129-2.247-5.758-4.834-9.605-5.951c4.097-1.271,8.374,0.655,11.842,2.228
		c3.61,1.662,6.86,3.645,10.162,5.231c3.257,1.675,6.521,2.958,9.945,3.575c3.45,0.578,7.014,0.205,10.977-0.808
		c-2.68,2.978-6.835,4.968-11.169,5.122C54.146,329.471,49.953,328.078,46.292,326.314z"/>
	<path fill="#FFD967" d="M122.52,347.091c38.021,3.145,67.156-16.644,65.04-33.629C182.347,327.969,155.04,339.832,122.52,347.091z"
		/>
	<path fill="#FFD967" d="M69.682,324.099c-3.963,1.014-7.527,1.386-10.977,0.808c-3.424-0.617-6.688-1.9-9.945-3.575
		c-3.302-1.586-6.552-3.569-10.162-5.231c-3.469-1.573-7.745-3.499-11.842-2.228c3.847,1.117,6.476,3.704,9.605,5.951
		c3.033,2.336,6.283,4.615,9.932,6.49c3.661,1.765,7.854,3.158,12.22,2.907C62.847,329.067,67.002,327.077,69.682,324.099z"/>
	<path fill="#98E29B" d="M203.97,301.116c-12.763-56.89-100.918-46.685-135.064-71.401c-10.272-7.433-12.605-16.574-13.792-22.691
		c-17.216,8.634-23.839,45.832,2.129,74.531c-14.439-1.251-22.71,4.827-30.577,12.061C12.125,306.96,4.802,311.447,0,313.09
		c4.52,1.547,12.624,6.317,20.671,12.331c12.067,9.012,21.588,18.853,36.072,18.949c-17.081,28.879-3.655,61.782,13.355,68.683
		c0.481-59.292,123.303-36.562,134.607-91.689l0.439-7.238l0.208-3.423C205.118,307.307,204.644,304.122,203.97,301.116z
		 M19.009,315.532l-0.005,0.023c-1.724-0.674-3.519-1.308-5.423-1.867c-0.655-0.189-1.317-0.374-1.996-0.546
		c20.229-5.848,25.768-24.315,49.209-20.554c19.979,3.267,20.223,11.278,48.229,17.235c-4.95,0.969-9.803,2.343-14.49,4.102
		c-0.644,0.243-1.264,0.488-1.87,0.734c-0.124,0.05-0.246,0.101-0.368,0.151c-4.474,1.845-7.939,3.776-10.893,5.656l-0.043-0.006
		c-6.676,4.251-10.547,8.247-16.563,10.392C46.985,337.22,38.466,323.123,19.009,315.532z M85.616,376.411
		c0.002,0.005,0.003,0.01,0.005,0.016c-3.545,2.612-6.668,5.508-9.278,8.723l-0.221,0.207c-0.025,0.031-0.05,0.061-0.075,0.092
		l0.02,0.06c-3.096,3.898-5.448,8.268-6.818,13.247c-0.018,0.068-0.037,0.136-0.055,0.204c-0.182,0.676-0.34,1.367-0.485,2.066
		c-0.086,0.419-0.17,0.838-0.242,1.266c-0.053,0.308-0.103,0.617-0.149,0.929c-0.104,0.722-0.194,1.453-0.259,2.199
		c-0.016,0.182-0.028,0.367-0.041,0.55c-0.063,0.849-0.112,1.708-0.125,2.589c-21.742-20.053-10.284-61.558,27.82-82.972
		c0.914-0.512,1.811-1.003,2.691-1.475c0.445-0.238,0.874-0.458,1.311-0.686c0.427-0.224,0.862-0.456,1.282-0.671
		c0.485-0.248,0.954-0.477,1.429-0.713c0.357-0.177,0.721-0.363,1.072-0.534c0.461-0.224,0.908-0.43,1.359-0.643
		c0.352-0.166,0.711-0.34,1.058-0.499c0.425-0.195,0.837-0.375,1.255-0.56c0.359-0.16,0.725-0.327,1.078-0.48
		c0.393-0.17,0.774-0.325,1.159-0.486c0.365-0.153,0.736-0.312,1.095-0.457c0.355-0.143,0.699-0.274,1.048-0.411
		c0.379-0.148,0.763-0.302,1.135-0.442c0.315-0.119,0.621-0.226,0.931-0.339c0.395-0.144,0.793-0.291,1.18-0.426
		c0.276-0.096,0.544-0.183,0.817-0.274c0.413-0.139,0.828-0.28,1.233-0.41c0.234-0.075,0.461-0.142,0.693-0.213
		c0.434-0.135,0.869-0.27,1.295-0.394c0.194-0.056,0.382-0.106,0.574-0.161c0.456-0.129,0.911-0.257,1.358-0.375
		c0.151-0.04,0.299-0.075,0.449-0.113c0.483-0.124,0.964-0.245,1.436-0.356c0.104-0.024,0.206-0.046,0.309-0.07
		c0.514-0.118,1.025-0.232,1.528-0.337c0.059-0.012,0.116-0.023,0.174-0.035c0.547-0.112,1.088-0.218,1.622-0.315
		c0.01-0.002,0.02,0.412,0.029,0.411c10.234-1.853,18.357-0.867,28.412-1.867c0.016,0,0.03,0,0.045,0
		c0.231,0,0.459-0.469,0.692-0.499c-28.904-3.017-58.917-9.451-81.358-28.207c-19.279-15.989-28.449-40.056-26.544-56.753
		c0.015-0.137,0.031-0.326,0.048-0.463c0.054-0.428,0.113-0.879,0.182-1.297c0.033-0.203,0.072-0.415,0.109-0.616
		c0.096-0.525,0.203-1.048,0.324-1.555c0.089-0.376,0.178-0.756,0.281-1.122c0.073-0.259,0.155-0.511,0.235-0.764
		c0.1-0.322,0.203-0.641,0.314-0.954c0.083-0.234,0.17-0.466,0.259-0.695c0.135-0.346,0.278-0.684,0.426-1.017
		c0.08-0.18,0.157-0.364,0.241-0.541c0.236-0.496,0.487-0.979,0.755-1.446c0.058-0.101,0.124-0.196,0.183-0.296
		c0.226-0.377,0.461-0.744,0.708-1.099c0.101-0.145,0.206-0.287,0.311-0.428c0.231-0.313,0.471-0.616,0.72-0.911
		c0.105-0.124,0.208-0.251,0.316-0.372c0.356-0.399,0.724-0.786,1.115-1.148c0.129,0.758,0.286,1.496,0.456,2.224
		c0.152,0.638,0.319,1.265,0.504,1.882c0.007,0.023,0.013,0.047,0.019,0.07c4.984,16.496,21.73,25.606,41.725,32.558
		c15.145,5.087,32.259,9.045,47.889,14.543c14.772,4.962,27.754,10.937,35.518,20.029c6.225,6.245,10.787,13.918,12.906,23.624
		C201.758,350.992,122.153,349.521,85.616,376.411z"/>
	<path fill="#D1A30C" d="M58.884,266.187c2.353-27.415,110.685,11.06,121.623,17.543c-0.098-0.118-0.206-0.231-0.306-0.348
		c-7.764-9.092-20.746-15.066-35.518-20.029c-15.322-5.147-32.558-9.213-47.889-14.543c-19.995-6.952-36.741-16.062-41.725-32.558
		c-0.007-0.023-0.013-0.047-0.019-0.07c-0.185-0.617-0.352-1.244-0.504-1.882c-0.173-0.728-0.327-1.468-0.456-2.224
		c-0.391,0.362-0.758,0.748-1.115,1.148c-0.108,0.121-0.211,0.248-0.316,0.372c-0.249,0.295-0.489,0.598-0.72,0.911
		c-0.105,0.142-0.21,0.283-0.311,0.428c-0.247,0.356-0.482,0.723-0.708,1.099c-0.06,0.1-0.125,0.195-0.183,0.296
		c-0.268,0.466-0.519,0.95-0.755,1.446c-0.084,0.177-0.161,0.361-0.241,0.541c-0.148,0.334-0.292,0.671-0.426,1.017
		c-0.089,0.229-0.176,0.461-0.259,0.695c-0.111,0.313-0.214,0.632-0.314,0.953c-0.079,0.254-0.162,0.504-0.235,0.763
		c-0.102,0.366-0.192,0.742-0.281,1.118c-0.12,0.507-0.228,1.023-0.324,1.548c-0.037,0.201-0.076,0.4-0.109,0.603
		c-0.068,0.419-0.128,0.843-0.182,1.271c-0.017,0.136-0.033,0.273-0.048,0.411C46.279,238.091,50.165,252.867,58.884,266.187z"/>
	<path fill="#D1A30C" d="M154.796,312.259c-0.009,0-0.017,0-0.025,0c-0.014,0-0.029,0-0.045,0c-10.055,1-18.178,0.014-28.412,1.867
		c-0.01,0.002-0.02-0.205-0.029-0.203c-0.534,0.097-1.076,0.099-1.622,0.211c-0.059,0.012-0.116-0.029-0.174-0.017
		c-0.503,0.104-1.014,0.192-1.528,0.311c-0.104,0.024-0.205,0.032-0.309,0.057c-0.473,0.111-0.953,0.226-1.436,0.349
		c-0.15,0.038-0.298,0.07-0.449,0.11c-0.447,0.117-0.902,0.244-1.358,0.373c-0.192,0.054-0.381,0.104-0.574,0.16
		c-0.426,0.124-0.861,0.259-1.295,0.393c-0.231,0.072-0.459,0.138-0.693,0.213c-0.405,0.129-0.82,0.271-1.233,0.41
		c-0.273,0.092-0.541,0.178-0.817,0.274c-0.388,0.135-0.785,0.282-1.18,0.426c-0.31,0.113-0.616,0.22-0.931,0.339
		c-0.373,0.14-0.756,0.294-1.135,0.442c-0.349,0.137-0.693,0.267-1.048,0.411c-0.359,0.145-0.729,0.304-1.095,0.457
		c-0.386,0.161-0.767,0.316-1.159,0.486c-0.354,0.153-0.719,0.32-1.078,0.48c-0.417,0.186-0.829,0.365-1.255,0.56
		c-0.347,0.159-0.706,0.333-1.058,0.499c-0.452,0.213-0.898,0.419-1.359,0.643c-0.351,0.17-0.715,0.357-1.072,0.534
		c-0.475,0.236-0.944,0.465-1.429,0.713c-0.42,0.214-0.855,0.447-1.282,0.671c-0.437,0.229-0.866,0.448-1.311,0.686
		c-0.881,0.472-1.777,0.963-2.691,1.475c-38.104,21.414-49.562,62.919-27.82,82.972c0.013-0.881,0.06-1.74,0.125-2.589
		c0.014-0.183,0.025-0.369,0.041-0.55c0.067-0.745,0.154-1.478,0.259-2.199c0.046-0.312,0.096-0.622,0.149-0.929
		c0.073-0.426,0.155-0.848,0.242-1.266c0.145-0.699,0.304-1.39,0.485-2.066c0.018-0.068,0.036-0.137,0.055-0.204
		c1.37-4.979,3.722-9.349,6.818-13.247l-0.02-0.06l-0.006-0.017l0.08-0.075l0.221-0.207c2.61-3.216,5.732-6.111,9.278-8.723
		c-0.002-0.005-0.003,0.405-0.005,0.4C71.364,334.089,108.023,322.259,154.796,312.259z"/>
	<path fill="#D1A30C" d="M81.358,321.259h0.001l0.043-0.394c2.954-1.879,6.419-4.011,10.893-5.856
		c0.122-0.051,0.244-0.201,0.368-0.251c0.606-0.246,1.226-0.541,1.87-0.784c4.687-1.759,9.54-3.158,14.49-4.127
		c-28.006-5.957-28.25-13.98-48.229-17.248c-23.441-3.762-28.98,14.699-49.209,20.548c0.679,0.172,1.344,0.352,1.996,0.543
		c1.903,0.559,3.699,1.191,5.423,1.865l0.005-0.023l0.002,0.391C31.148,303.946,73.824,290.259,81.358,321.259z"/>
</g>
<g>
	<path fill="none" d="M693.569,708.716c33.662,27.573,37.869,70.15,13.361,86.309c-0.012,0.079-0.018,0.155-0.03,0.234h0.005
		C731.795,779.273,727.387,736.418,693.569,708.716z"/>
	<path fill="none" d="M586.962,685.627l0.571-5.026c-60.219-10.562-150.094,18.4-196.056,74.26
		c38.515-20.483,87.609-3.743,106.728,35.554c20.689-24.456,86.839-27.811,110.486,4.844h95.405
		C707.59,740.846,588.508,740.554,586.962,685.627z"/>
	<path fill="none" d="M599.5,687.08c0-0.441-0.398-0.887-0.426-1.335C599.101,686.194,599.5,686.639,599.5,687.08z"/>
	<path fill="none" d="M380.609,783.677c-3.333,3.902-6.181,7.755-8.589,11.582h116.302
		C460.927,755.806,409.167,750.067,380.609,783.677z"/>
	<path fill="none" d="M620.419,650.668c0.643-0.397,1.295-0.784,1.957-1.158c0.132-0.074,0.266-0.146,0.398-0.22
		c0.646-0.359,1.3-0.709,1.963-1.047c0.133-0.068,0.268-0.135,0.402-0.202c0.682-0.342,1.374-0.675,2.073-0.996
		c0.109-0.05,0.22-0.101,0.33-0.15c0.757-0.344,1.528-0.677,2.303-0.998c0.048-0.02,0.105-0.04,0.153-0.06
		c36.53-15.031,92.593-5.495,116.013-28.66c0.012-0.016,0.024-0.031,0.036-0.046c0.018-0.022,0.029-0.041,0.043-0.061
		c-23.353,23.308-79.523,13.712-116.112,28.767c-0.048,0.02-0.096,0.04-0.143,0.06c-0.775,0.321-1.541,0.654-2.298,0.998
		c-0.109,0.05-0.218,0.1-0.328,0.15c-0.699,0.322-1.389,0.654-2.072,0.996c-0.134,0.067-0.268,0.134-0.401,0.202
		c-0.663,0.338-1.316,0.688-1.963,1.047c-0.133,0.074-0.266,0.146-0.398,0.22C621.714,649.884,621.063,650.271,620.419,650.668
		c-0.102,0.063-0.206,0.123-0.308,0.187c-0.735,0.46-1.459,0.935-2.169,1.427c0.709-0.492,1.433-0.966,2.169-1.427
		C620.213,650.792,620.317,650.731,620.419,650.668z"/>
	<path fill="#FFC40B" d="M693.569,708.716c-26.198-21.401-38.567-18.807-56.384-24.398c28.993,2.041,59.635,1.123,84.98-13.454
		c29.68-16.914,43.433-51.724,32.065-66.712c-1.849,5.184-4.629,9.416-8.138,12.918c-0.014,0.02-0.026,0.039-0.043,0.061
		c-0.012,0.016-0.024,0.031-0.036,0.046c0.038-0.037,0.08-0.07,0.117-0.107c-0.014,0.02,0.013,0.039-0.005,0.061
		c-34.828,47.455-110.742,14.09-137.633,59.574c-4.802,8.142-3.878,24.354,9.263,35.464c32.493,23.596,95.946,39.318,89.175,82.856
		C731.437,778.866,727.23,736.289,693.569,708.716z M727.236,653.879c5.174-4.255,9.887-9.025,14.292-14.115
		c4.398-5.122,8.29-10.675,12.137-16.51c-3.475,13.589-12.022,25.792-22.851,34.9c-5.476,4.512-11.502,8.371-17.953,11.246
		c-6.411,2.882-13.253,4.961-20.228,5.52C705.385,669.362,716.977,662.512,727.236,653.879z M712.515,754.965
		c-2.084-10.707-6.341-20.746-13.214-30.028c4.963,2.985,9.162,7.388,12.253,12.434c3.148,5.045,5.22,10.713,6.418,16.522
		c1.077,5.829,1.34,11.831,0.41,17.691c-0.924,5.757-2.821,11.836-7.098,15.938c2.263-5.296,2.661-10.842,2.796-16.304
		C714.086,765.749,713.605,760.305,712.515,754.965z"/>
	<path fill="#FFC40B" d="M746.58,684.921c-3.54-1.582-7.711-2.564-12.913-2.644C738.866,682.361,743.042,683.342,746.58,684.921z"/>
	<path fill="#FFC40B" d="M704.815,702.941c-0.532-0.42-1.077-0.841-1.653-1.267C703.737,702.099,704.285,702.521,704.815,702.941z"
		/>
	<path fill="#FFC40B" d="M716.849,714.384c-3.325-3.225-6.549-7.086-11.844-11.293c8.346,6.642,11.516,12.429,18.102,16.178
		c18.389,10.475,29.756-6.304,55.467-8.204c-14.171-6.947-18.986-19.446-30.507-25.427
		C726.335,678.578,708.701,702.683,716.849,714.384z M753.588,709.32c3.545-1.104,7.899-2.471,11.874-0.886
		c-3.866,0.649-6.636,2.792-9.874,4.57c-3.136,1.881-6.482,3.666-10.214,5.045c-3.725,1.284-7.97,2.157-12.272,1.49
		c-4.296-0.578-8.29-2.838-10.772-5.867c3.86,1.329,7.38,2.035,10.836,1.842c3.411-0.231,6.726-1.104,10.054-2.343
		C746.587,712.028,749.927,710.52,753.588,709.32z"/>
	<path fill="#D1A30C" d="M608.492,676.705c26.891-45.485,102.804-12.119,137.633-59.574c0.018-0.022-0.01-0.041,0.005-0.061
		c-0.038,0.037-0.08,0.07-0.117,0.107c-23.42,23.165-79.484,13.629-116.013,28.66c-0.048,0.02-0.105,0.04-0.153,0.06
		c-0.775,0.321-1.546,0.654-2.303,0.998c-0.109,0.05-0.221,0.1-0.33,0.15c-0.699,0.322-1.39,0.654-2.073,0.996
		c-0.134,0.067-0.269,0.134-0.402,0.202c-0.663,0.338-1.317,0.688-1.963,1.047c-0.133,0.074-0.267,0.146-0.398,0.22
		c-0.662,0.374-1.313,0.761-1.957,1.158c-0.102,0.063-0.206,0.123-0.308,0.187c-0.735,0.46-1.459,0.935-2.169,1.427
		c-0.001,0.001-0.002,0.001-0.003,0.002c-1.45,1.006-2.844,2.081-4.178,3.228c-0.099,0.085-0.193,0.175-0.291,0.26
		c-0.54,0.472-1.071,0.954-1.59,1.45c-0.179,0.171-0.352,0.35-0.529,0.525c-0.429,0.424-0.853,0.853-1.266,1.294
		c-0.204,0.218-0.403,0.442-0.603,0.665c-0.374,0.416-0.743,0.837-1.104,1.269c-0.209,0.25-0.414,0.504-0.618,0.759
		c-0.339,0.424-0.672,0.857-0.999,1.296c-0.203,0.273-0.404,0.547-0.602,0.825c-0.316,0.445-0.622,0.902-0.925,1.363
		c-0.189,0.288-0.38,0.574-0.563,0.869c-0.3,0.481-0.589,0.975-0.875,1.472c-0.168,0.291-0.34,0.578-0.503,0.875
		c-0.301,0.55-0.588,1.118-0.872,1.689c-0.13,0.262-0.268,0.515-0.395,0.781c-0.402,0.844-0.788,1.708-1.153,2.597
		c-0.189,0.49-0.362,0.975-0.525,1.457c-0.054,0.16-0.104,0.319-0.156,0.479c-0.107,0.331-0.208,0.66-0.303,0.988
		c-0.049,0.168-0.097,0.336-0.143,0.503c-0.099,0.361-0.188,0.72-0.272,1.076c-0.026,0.112-0.056,0.226-0.081,0.337
		c-0.104,0.463-0.193,0.922-0.272,1.377c-0.02,0.115-0.033,0.229-0.052,0.343c-0.057,0.355-0.103,0.708-0.146,1.059
		c-0.016,0.132-0.021,0.264-0.035,0.395c-0.04,0.37-0.052,0.737-0.076,1.102c-0.005,0.082,0.026,0.164,0.021,0.245
		c-0.052,0.938,0.027,1.861,0.077,2.768c0.002,0.038,0.159,0.075,0.161,0.113c0.027,0.448,0.426,0.894,0.426,1.335
		c0,0.001,0,0.002,0,0.002c1.176,9.805,8.247,17.819,18.255,25.086C604.615,701.059,603.69,684.847,608.492,676.705z"/>
	<path fill="#D1A30C" d="M683.194,690.878c4.7,1.81,9.252,4.005,13.56,6.554c0.584,0.346,1.144,0.691,1.692,1.034
		c0.203,0.127,0.402,0.254,0.601,0.381c0.345,0.221,0.682,0.44,1.013,0.659c0.212,0.14,0.427,0.28,0.634,0.419
		c0.419,0.284,0.827,0.566,1.225,0.848c0.309,0.218,0.606,0.435,0.903,0.651c0.114,0.083,0.227,0.166,0.339,0.249
		c0.576,0.426,1.121,0.848,1.653,1.267c0.063,0.05,0.127,0.1,0.19,0.15c5.295,4.207,8.519,8.068,11.844,11.293
		c-8.148-11.701,9.486-35.806,31.218-28.746c-0.006-0.003-0.012-0.007-0.019-0.01c-0.119-0.061-0.245-0.116-0.365-0.176
		c-0.363-0.182-0.726-0.363-1.103-0.531c-3.538-1.579-7.714-2.56-12.913-2.644C713.432,682.026,711.81,689.877,683.194,690.878z"/>
	<path fill="#FFD967" d="M730.814,658.154c10.829-9.108,19.376-21.311,22.851-34.9c-3.847,5.835-7.739,11.388-12.137,16.51
		c-4.405,5.09-9.118,9.86-14.292,14.115c-10.259,8.634-21.851,15.483-34.604,21.042c6.976-0.559,13.817-2.638,20.228-5.52
		C719.311,666.525,725.338,662.666,730.814,658.154z"/>
	<path fill="#FFD967" d="M718.382,771.584c0.93-5.861,0.666-11.862-0.41-17.691c-1.199-5.809-3.27-11.476-6.418-16.522
		c-3.09-5.045-7.29-9.449-12.253-12.434c6.873,9.282,11.131,19.321,13.214,30.028c1.09,5.341,1.571,10.784,1.565,16.253
		c-0.135,5.462-0.532,11.008-2.796,16.304C715.561,783.42,717.458,777.341,718.382,771.584z"/>
	<path fill="#FFD967" d="M722.331,713.672c2.482,3.029,6.476,5.289,10.772,5.867c4.302,0.667,8.546-0.206,12.272-1.49
		c3.732-1.38,7.078-3.164,10.214-5.045c3.237-1.778,6.007-3.921,9.874-4.57c-3.975-1.585-8.329-0.218-11.874,0.886
		c-3.661,1.2-7.001,2.709-10.368,3.851c-3.328,1.239-6.642,2.112-10.054,2.343C729.711,715.707,726.191,715.001,722.331,713.672z"/>
	<path fill="#ABD156" d="M507.164,531.887c0.067-0.509,0.142-1.02,0.225-1.532C507.306,530.867,507.23,531.378,507.164,531.887z"/>
	<path fill="#ABD156" d="M506.876,543.989c-0.028-0.367-0.049-0.739-0.071-1.11C506.828,543.25,506.848,543.621,506.876,543.989z"/>
	<path fill="#ABD156" d="M508.621,524.73c0.162-0.579,0.334-1.16,0.52-1.741C508.956,523.57,508.783,524.151,508.621,524.73z"/>
	<path fill="#ABD156" d="M506.77,542.316c-0.021-0.416-0.034-0.836-0.047-1.255C506.736,541.481,506.749,541.901,506.77,542.316z"/>
	<path fill="#ABD156" d="M506.708,540.622c-0.01-0.435-0.012-0.872-0.013-1.311C506.696,539.75,506.698,540.188,506.708,540.622z"/>
	<path fill="#ABD156" d="M538.034,489.059c-22.069,20.155-25.877,65.801-12.746,73.497c-4.128,3.697-8.015,6.332-10.726,8.08
		c11.344-7.299,43.351-29.798,27.806-84.157c-19.721,11.077-29.226,23.971-33.215,36.468
		C512.843,511.408,521.242,499.531,538.034,489.059z M543.529,506.936c0.622,3.729,0.686,7.51,0.456,11.291
		c-0.347,3.768-1.001,7.549-2.36,11.163c-1.321,3.588-3.257,7.144-6.245,9.679c1.251-7.523,1.674-14.237,2.232-21.343
		c0.615-7.061,1.045-14.09,2.488-21.645C541.965,499.503,542.946,503.22,543.529,506.936z"/>
	<path fill="#ABD156" d="M508.156,526.523c0.134-0.559,0.278-1.119,0.433-1.68C508.434,525.405,508.29,525.964,508.156,526.523z"/>
	<path fill="#ABD156" d="M506.816,535.424c0.032-0.482,0.072-0.965,0.116-1.451C506.887,534.458,506.847,534.942,506.816,535.424z"
		/>
	<path fill="#ABD156" d="M506.727,537.172c0.016-0.467,0.041-0.936,0.069-1.407C506.768,536.236,506.744,536.705,506.727,537.172z"
		/>
	<path fill="#ABD156" d="M506.96,533.662c0.049-0.496,0.106-0.993,0.168-1.492C507.066,532.668,507.008,533.166,506.96,533.662z"/>
	<path fill="#ABD156" d="M507.759,528.315c0.11-0.541,0.228-1.083,0.357-1.627C507.988,527.231,507.869,527.774,507.759,528.315z"/>
	<path fill="#ABD156" d="M507.429,530.103c0.087-0.524,0.183-1.05,0.288-1.577C507.613,529.053,507.516,529.579,507.429,530.103z"/>
	<path fill="#ABD156" d="M506.693,538.904c0.002-0.451,0.013-0.905,0.026-1.359C506.706,538,506.695,538.453,506.693,538.904z"/>
	<path fill="#ABD156" d="M502.753,604.129c0.431-0.691,0.867-1.383,1.315-2.074C503.62,602.747,503.184,603.438,502.753,604.129z"/>
	<path fill="#ABD156" d="M510.177,593.37c0.599-0.787,1.207-1.571,1.825-2.35C511.384,591.799,510.776,592.582,510.177,593.37z"/>
	<path fill="#ABD156" d="M500.752,607.432c0.521-0.891,1.058-1.784,1.609-2.678C501.81,605.648,501.272,606.541,500.752,607.432z"/>
	<path fill="#ABD156" d="M536.874,567.076c-14.398,17.186-31.313,38.478-18.371,60.778c36.955-18.77,55.674-51.426,55.322-72.852
		c-22.484-1.858-45.359,15.35-61.632,35.778C519.342,581.81,527.767,573.461,536.874,567.076z M557.141,574.329l7.232-9.353
		c0.026,4.186-1.295,8.21-2.936,11.901c-1.629,3.735-3.783,7.17-6.13,10.437c-2.443,3.196-5.078,6.252-8.13,8.922
		c-3.014,2.658-6.367,5.155-10.303,6.554c4.43-6.849,8.713-13.063,13.291-19.289L557.141,574.329z"/>
	<path fill="#ABD156" d="M508.23,595.996c0.519-0.717,1.047-1.431,1.583-2.142C509.277,594.565,508.749,595.279,508.23,595.996z"/>
	<path fill="#ABD156" d="M506.348,598.656c0.471-0.682,0.949-1.364,1.436-2.043C507.297,597.293,506.819,597.974,506.348,598.656z"
		/>
	<path fill="#ABD156" d="M504.531,601.353c0.441-0.671,0.887-1.343,1.344-2.012C505.419,600.011,504.972,600.682,504.531,601.353z"
		/>
	<path fill="#8DB739" d="M499.609,586.839c-0.327-22.293-4.559-53.278-20.819-62.508c-28.942,30.863-12.689,82.933,0.859,106.446
		C482.484,615.366,490.716,599.273,499.609,586.839z"/>
	<path fill="#ABD156" d="M511.832,793.049c1.51-0.526,3.118-1.038,4.826-1.527C514.952,792.012,513.34,792.522,511.832,793.049z"/>
	<path fill="#ABD156" d="M509.968,793.724c0.309-0.117,0.621-0.234,0.94-0.349C510.589,793.491,510.277,793.607,509.968,793.724z"/>
	<path fill="#ABD156" d="M516.83,791.471c0.634-0.181,1.281-0.358,1.94-0.532C518.112,791.114,517.464,791.29,516.83,791.471z"/>
	<path fill="#ABD156" d="M508.174,794.432c0.235-0.097,0.479-0.193,0.721-0.29C508.653,794.239,508.408,794.335,508.174,794.432z"/>
	<path fill="#ABD156" d="M518.882,790.91c17.287-4.552,42.747-6.792,64.585-0.281c-17.788-3.256-31.996-0.843-40.186,4.631h52.068
		C571.508,783.323,539.427,785.484,518.882,790.91z"/>
	<path fill="#8DB739" d="M583.467,790.628c-21.838-6.511-47.298-4.27-64.585,0.281c-0.037,0.01-0.075,0.02-0.112,0.029
		c-0.659,0.174-1.306,0.352-1.94,0.532c-0.058,0.017-0.114,0.034-0.172,0.05c-1.708,0.49-3.316,1.002-4.826,1.527
		c-0.311,0.108-0.622,0.217-0.923,0.326c-0.319,0.116-0.631,0.232-0.94,0.349c-0.365,0.139-0.723,0.278-1.073,0.418
		c-0.242,0.096-0.487,0.193-0.721,0.29c-0.58,0.24-1.146,0.482-1.679,0.724c-0.031,0.014-0.063,0.028-0.094,0.043
		c-0.044,0.02-0.082,0.04-0.126,0.06h37.006C551.471,789.785,565.68,787.372,583.467,790.628z"/>
	<path fill="#8DB739" d="M497.955,612.486c-0.385,0.736-0.76,1.469-1.122,2.199c-0.021,0.042-0.043,0.085-0.064,0.127
		c-0.384,0.776-0.754,1.547-1.111,2.313c-0.03,0.065-0.059,0.129-0.089,0.194c-0.309,0.666-0.605,1.328-0.893,1.987
		c-0.064,0.147-0.129,0.294-0.192,0.441c-0.306,0.71-0.603,1.416-0.884,2.114c-0.003,0.007-0.006,0.015-0.009,0.022
		c-0.284,0.707-0.552,1.407-0.81,2.102c-0.06,0.162-0.118,0.323-0.176,0.485c-0.199,0.546-0.389,1.088-0.57,1.625
		c-0.054,0.16-0.11,0.32-0.162,0.479c-0.219,0.663-0.427,1.32-0.619,1.967c-0.026,0.088-0.049,0.173-0.074,0.26
		c-0.163,0.558-0.315,1.109-0.457,1.654c-0.047,0.182-0.093,0.362-0.138,0.542c-0.128,0.509-0.246,1.012-0.355,1.509
		c-0.026,0.119-0.056,0.24-0.081,0.359c-0.127,0.599-0.238,1.187-0.336,1.766c-0.025,0.145-0.045,0.286-0.068,0.43
		c-0.071,0.449-0.134,0.892-0.188,1.328c-0.02,0.161-0.04,0.323-0.058,0.482c-0.061,0.555-0.112,1.102-0.143,1.634
		c1.556-0.37,3.083-0.771,4.597-1.186c0.588-0.162,1.168-0.331,1.749-0.5c0.908-0.262,1.808-0.532,2.701-0.81
		c0.684-0.213,1.368-0.427,2.042-0.65c0.745-0.245,1.478-0.503,2.213-0.759c1.657-0.579,3.29-1.181,4.89-1.813
		c0.261-0.103,0.528-0.201,0.788-0.305c0.945-0.38,1.873-0.774,2.798-1.172c0.353-0.151,0.706-0.302,1.055-0.456
		c0.947-0.417,1.886-0.841,2.812-1.276c0.222-0.104,0.44-0.211,0.661-0.316c0.962-0.458,1.902-0.933,2.84-1.409
		c-12.941-22.301,3.974-43.593,18.371-60.778c-9.107,6.386-17.532,14.735-24.682,23.704c-0.064,0.08-0.126,0.16-0.19,0.24
		c-0.618,0.779-1.226,1.563-1.825,2.35c-0.122,0.161-0.243,0.322-0.365,0.483c-0.536,0.711-1.064,1.426-1.583,2.142
		c-0.149,0.206-0.298,0.411-0.446,0.617c-0.487,0.679-0.965,1.361-1.436,2.043c-0.158,0.228-0.317,0.456-0.472,0.685
		c-0.457,0.67-0.903,1.341-1.344,2.012c-0.154,0.234-0.311,0.468-0.462,0.702c-0.448,0.691-0.884,1.383-1.315,2.074
		c-0.13,0.208-0.265,0.417-0.393,0.625c-0.55,0.894-1.088,1.787-1.609,2.678c-0.001,0.002-0.002,0.003-0.003,0.005
		c-0.94,1.609-1.828,3.212-2.665,4.802C498.041,612.322,497.998,612.404,497.955,612.486z"/>
	<path fill="#8DB739" d="M506.695,539.311c0.001,0.439,0.003,0.877,0.013,1.311c0.003,0.147,0.011,0.292,0.015,0.439
		c0.013,0.42,0.026,0.84,0.047,1.255c0.01,0.189,0.024,0.375,0.035,0.563c0.022,0.371,0.043,0.742,0.071,1.11
		c0.043,0.554,0.091,1.105,0.147,1.651c0.002,0.021,0.004,0.043,0.006,0.064c0.041,0.397,0.085,0.791,0.132,1.183
		c0.007,0.059,0.014,0.118,0.021,0.176c0.044,0.359,0.091,0.716,0.14,1.071c0.012,0.09,0.024,0.181,0.037,0.27
		c0.046,0.325,0.095,0.648,0.144,0.969c0.018,0.118,0.036,0.237,0.055,0.355c0.047,0.294,0.096,0.586,0.146,0.877
		c0.025,0.143,0.049,0.287,0.074,0.43c0.047,0.262,0.095,0.523,0.143,0.783c0.032,0.171,0.064,0.341,0.097,0.511
		c0.045,0.231,0.091,0.461,0.137,0.69c0.039,0.194,0.079,0.387,0.119,0.578c0.043,0.203,0.086,0.404,0.13,0.605
		c0.047,0.218,0.095,0.434,0.144,0.649c0.039,0.172,0.078,0.344,0.118,0.515c0.056,0.241,0.112,0.481,0.169,0.718
		c0.034,0.142,0.068,0.284,0.103,0.425c0.065,0.264,0.13,0.526,0.196,0.786c0.029,0.112,0.057,0.225,0.086,0.336
		c0.075,0.293,0.152,0.583,0.228,0.871c0.019,0.072,0.039,0.144,0.058,0.216c0.088,0.326,0.176,0.649,0.265,0.969
		c0.009,0.034,0.019,0.068,0.028,0.102c1.336,4.774,2.781,8.743,3.625,11.573c0.318-0.202,0.664-0.423,1.028-0.657
		c0.035-0.023,0.073-0.047,0.108-0.07c2.711-1.748,6.598-4.383,10.726-8.08c-13.131-7.696-9.322-53.342,12.746-73.497
		c-16.792,10.472-25.192,22.349-28.88,33.889c-0.004,0.014-0.009,0.027-0.013,0.041c-0.185,0.581-0.358,1.162-0.52,1.741
		c-0.011,0.038-0.021,0.076-0.032,0.114c-0.155,0.561-0.299,1.121-0.433,1.68c-0.013,0.055-0.026,0.11-0.039,0.165
		c-0.129,0.544-0.247,1.086-0.357,1.627c-0.014,0.071-0.028,0.141-0.042,0.212c-0.104,0.527-0.201,1.053-0.288,1.577
		c-0.014,0.084-0.027,0.168-0.041,0.252c-0.083,0.512-0.158,1.023-0.225,1.532c-0.012,0.094-0.023,0.188-0.035,0.282
		c-0.063,0.499-0.12,0.997-0.168,1.492c-0.01,0.104-0.019,0.208-0.028,0.312c-0.045,0.485-0.085,0.969-0.116,1.451
		c-0.008,0.114-0.013,0.228-0.019,0.342c-0.028,0.471-0.052,0.94-0.069,1.407c-0.004,0.125-0.006,0.248-0.009,0.373
		c-0.013,0.455-0.023,0.909-0.026,1.359C506.692,539.04,506.695,539.175,506.695,539.311z"/>
	<path fill="#C5DD85" d="M547.177,596.237c3.052-2.671,5.687-5.726,8.13-8.922c2.347-3.267,4.501-6.702,6.13-10.437
		c1.641-3.691,2.962-7.715,2.936-11.901l-7.232,9.353l-6.976,9.173c-4.578,6.227-8.861,12.44-13.291,19.289
		C540.811,601.391,544.164,598.894,547.177,596.237z"/>
	<path fill="#C5DD85" d="M535.38,539.069c2.988-2.535,4.924-6.091,6.245-9.679c1.359-3.614,2.013-7.395,2.36-11.163
		c0.23-3.781,0.167-7.562-0.456-11.291c-0.583-3.717-1.564-7.433-3.43-10.855c-1.443,7.555-1.872,14.584-2.488,21.645
		C537.053,524.832,536.63,531.547,535.38,539.069z"/>
	<path fill="#98E29B" d="M380.609,783.677c28.558-33.61,80.318-27.871,107.713,11.582h17.953c0.044-0.02,0.082-0.04,0.126-0.06
		c0.031-0.014,0.062-0.028,0.094-0.043c0.534-0.243,1.1-0.484,1.679-0.724c0.234-0.097,0.479-0.193,0.721-0.29
		c0.35-0.14,0.708-0.279,1.073-0.418c0.309-0.117,0.621-0.233,0.94-0.349c0.302-0.109,0.613-0.218,0.923-0.326
		c1.508-0.526,3.12-1.037,4.826-1.527c0.058-0.017,0.114-0.034,0.172-0.05c0.634-0.181,1.282-0.358,1.94-0.532
		c0.037-0.01,0.075-0.02,0.112-0.029c20.545-5.426,52.626-7.586,76.468,4.349h13.341c-23.648-32.655-89.797-29.3-110.486-4.844
		c-19.12-39.297-68.213-56.037-106.728-35.554c45.962-55.86,135.837-84.822,196.056-74.26l0.001-0.012l0.633-5.573
		c0.664-2.679,1.467-5.184,2.373-7.558c-38.885-8.313-84.057,0.066-120.893,14.814c7.502-10.913,13.971-22.544,18.35-35.389
		c58.744,3.652,98.861-56.346,89.584-95.014c-3.79-1.675-16.286-5.013-28.911-1.059c11.997-29.861,1.526-64.543-3.507-70.673
		c-9.118-0.193-37.355,10.707-50.428,48.887c-3.783-4.974-11.689-8.98-16.292-9.969c-30.096,13.505-42.894,87.664-2.609,123.918
		c-21.652,65.332-61.482,52.398-103.003,111.857c-9.477,13.523-15.687,26.826-19.634,40.429h18.822
		C374.428,791.432,377.276,787.579,380.609,783.677z M506.727,537.172c0.016-0.467,0.041-0.936,0.069-1.407
		c0.007-0.114,0.012-0.227,0.019-0.342c0.031-0.482,0.072-0.965,0.116-1.451c0.01-0.104,0.018-0.207,0.028-0.312
		c0.048-0.496,0.106-0.993,0.168-1.492c0.012-0.094,0.023-0.188,0.035-0.282c0.067-0.509,0.143-1.02,0.225-1.532
		c0.013-0.084,0.027-0.168,0.041-0.252c0.087-0.524,0.183-1.05,0.288-1.577c0.014-0.071,0.028-0.141,0.042-0.212
		c0.109-0.541,0.229-1.083,0.357-1.627c0.013-0.055,0.026-0.11,0.039-0.165c0.134-0.559,0.278-1.118,0.433-1.68
		c0.01-0.038,0.021-0.076,0.032-0.114c0.162-0.58,0.335-1.16,0.52-1.741c0.004-0.014,0.009-0.027,0.013-0.041
		c3.989-12.498,13.494-25.391,33.215-36.468c15.544,54.359-16.463,76.858-27.806,84.157c-0.035,0.023-0.073,0.047-0.108,0.07
		c-0.364,0.234-0.71,0.455-1.028,0.657c-0.844-2.829-2.289-6.799-3.625-11.573c-0.009-0.034-0.019-0.068-0.028-0.102
		c-0.089-0.319-0.177-0.642-0.265-0.969c-0.019-0.072-0.039-0.144-0.058-0.216c-0.077-0.288-0.153-0.578-0.228-0.871
		c-0.029-0.112-0.057-0.224-0.086-0.336c-0.066-0.26-0.131-0.522-0.196-0.786c-0.035-0.141-0.069-0.283-0.103-0.425
		c-0.057-0.238-0.114-0.478-0.169-0.718c-0.04-0.171-0.079-0.343-0.118-0.515c-0.049-0.215-0.096-0.432-0.144-0.649
		c-0.044-0.201-0.087-0.402-0.13-0.605c-0.04-0.192-0.08-0.385-0.119-0.578c-0.047-0.229-0.093-0.459-0.137-0.69
		c-0.033-0.169-0.065-0.34-0.097-0.511c-0.049-0.26-0.097-0.52-0.143-0.783c-0.025-0.143-0.05-0.286-0.074-0.43
		c-0.05-0.291-0.099-0.583-0.146-0.877c-0.019-0.118-0.037-0.237-0.055-0.355c-0.05-0.321-0.098-0.644-0.144-0.969
		c-0.013-0.09-0.025-0.18-0.037-0.27c-0.049-0.355-0.096-0.712-0.14-1.071c-0.007-0.059-0.014-0.118-0.021-0.176
		c-0.047-0.392-0.092-0.786-0.132-1.183c-0.002-0.021-0.004-0.043-0.006-0.064c-0.056-0.546-0.104-1.097-0.147-1.651
		c-0.028-0.367-0.049-0.739-0.071-1.11c-0.011-0.188-0.026-0.374-0.035-0.563c-0.021-0.416-0.034-0.836-0.047-1.255
		c-0.004-0.146-0.012-0.292-0.015-0.439c-0.01-0.435-0.012-0.872-0.013-1.311c0-0.136-0.003-0.271-0.002-0.407
		c0.002-0.451,0.013-0.905,0.026-1.359C506.722,537.42,506.723,537.297,506.727,537.172z M500.752,607.432
		c0.52-0.891,1.058-1.784,1.609-2.678c0.128-0.208,0.263-0.417,0.393-0.625c0.431-0.691,0.867-1.383,1.315-2.074
		c0.152-0.234,0.309-0.468,0.462-0.702c0.441-0.672,0.888-1.342,1.344-2.012c0.156-0.229,0.315-0.456,0.472-0.685
		c0.471-0.683,0.949-1.364,1.436-2.043c0.148-0.206,0.297-0.412,0.446-0.617c0.519-0.717,1.047-1.431,1.583-2.142
		c0.121-0.161,0.243-0.323,0.365-0.483c0.598-0.788,1.207-1.57,1.825-2.35c0.063-0.08,0.126-0.16,0.19-0.24
		c16.274-20.428,39.148-37.636,61.632-35.778c0.353,21.426-18.367,54.082-55.322,72.852c-0.938,0.477-1.879,0.951-2.84,1.409
		c-0.221,0.105-0.439,0.212-0.661,0.316c-0.926,0.435-1.865,0.859-2.812,1.276c-0.35,0.154-0.703,0.305-1.055,0.456
		c-0.925,0.397-1.853,0.792-2.798,1.172c-0.26,0.104-0.527,0.202-0.788,0.305c-1.6,0.632-3.233,1.234-4.89,1.813
		c-0.734,0.256-1.467,0.513-2.213,0.759c-0.675,0.223-1.358,0.436-2.042,0.65c-0.893,0.278-1.793,0.548-2.701,0.81
		c-0.581,0.168-1.161,0.338-1.749,0.5c-1.514,0.415-3.041,0.817-4.597,1.186c0.031-0.532,0.082-1.079,0.143-1.634
		c0.017-0.159,0.038-0.321,0.058-0.482c0.054-0.436,0.117-0.879,0.188-1.328c0.023-0.144,0.043-0.285,0.068-0.43
		c0.098-0.579,0.21-1.167,0.336-1.766c0.025-0.118,0.055-0.24,0.081-0.359c0.109-0.497,0.227-1,0.355-1.509
		c0.045-0.18,0.091-0.361,0.138-0.542c0.142-0.545,0.294-1.096,0.457-1.654c0.026-0.087,0.048-0.173,0.074-0.26
		c0.192-0.647,0.4-1.304,0.619-1.967c0.052-0.159,0.108-0.319,0.162-0.479c0.182-0.537,0.372-1.079,0.57-1.625
		c0.059-0.161,0.116-0.322,0.176-0.485c0.258-0.695,0.525-1.394,0.81-2.102c0.003-0.008,0.006-0.015,0.009-0.022
		c0.281-0.699,0.578-1.405,0.884-2.114c0.063-0.147,0.128-0.294,0.192-0.441c0.288-0.658,0.584-1.32,0.893-1.987
		c0.03-0.065,0.059-0.129,0.089-0.194c0.357-0.767,0.727-1.538,1.111-2.313c0.021-0.042,0.043-0.085,0.064-0.127
		c0.362-0.729,0.737-1.463,1.122-2.199c0.043-0.082,0.086-0.165,0.129-0.247c0.837-1.59,1.725-3.193,2.665-4.802
		C500.75,607.436,500.751,607.434,500.752,607.432z M478.791,524.331c16.26,9.23,20.492,40.215,20.819,62.508
		c-8.893,12.434-17.126,28.526-19.96,43.938C466.102,607.264,449.849,555.194,478.791,524.331z"/>
	<path fill="#98E29B" d="M353.571,660.305c16.158-77.541,31.648-89.635,20.133-93.832c-3.321-1.213-7.001,0.893-8.213,4.218
		c-36.952,101.221-43.154,169.66-35.615,224.569h17.264C340.161,749.9,343.918,706.624,353.571,660.305z"/>
	<path fill="#98E29B" d="M587.534,680.589l-0.001,0.012l-0.571,5.026c1.546,54.927,120.628,55.219,117.134,109.632h2.803
		c0.013-0.079,0.018-0.155,0.03-0.234c6.771-43.538-56.682-59.26-89.175-82.856c-10.008-7.267-17.079-15.281-18.255-25.086
		c0-0.001,0-0.002,0-0.002c0-0.441-0.399-0.886-0.426-1.335c-0.002-0.038-0.159-0.075-0.161-0.113
		c-0.05-0.907-0.129-1.829-0.077-2.768c0.005-0.081-0.027-0.163-0.021-0.245c0.024-0.365,0.036-0.732,0.076-1.102
		c0.014-0.131,0.019-0.263,0.035-0.395c0.043-0.351,0.089-0.704,0.146-1.059c0.018-0.115,0.031-0.228,0.052-0.343
		c0.079-0.455,0.168-0.914,0.272-1.377c0.025-0.112,0.055-0.225,0.081-0.337c0.084-0.357,0.174-0.715,0.272-1.076
		c0.046-0.167,0.094-0.335,0.143-0.503c0.095-0.327,0.196-0.657,0.303-0.988c0.052-0.159,0.101-0.318,0.156-0.479
		c0.163-0.482,0.336-0.967,0.525-1.457c0.364-0.889,0.751-1.752,1.153-2.597c0.127-0.266,0.264-0.519,0.395-0.781
		c0.284-0.57,0.57-1.139,0.872-1.689c0.163-0.297,0.335-0.584,0.503-0.875c0.286-0.497,0.575-0.992,0.875-1.472
		c0.184-0.294,0.374-0.581,0.563-0.869c0.303-0.461,0.609-0.917,0.925-1.363c0.198-0.279,0.399-0.553,0.602-0.825
		c0.327-0.44,0.659-0.872,0.999-1.296c0.204-0.255,0.41-0.509,0.618-0.759c0.361-0.431,0.73-0.853,1.104-1.269
		c0.2-0.223,0.399-0.447,0.603-0.665c0.414-0.442,0.838-0.871,1.266-1.294c0.177-0.174,0.35-0.353,0.529-0.525
		c0.519-0.497,1.05-0.979,1.59-1.45c0.098-0.086,0.192-0.176,0.291-0.26c1.334-1.147,2.727-2.222,4.178-3.228
		c0.001-0.001,0.002-0.001,0.003-0.002c0.709-0.492,1.433-0.966,2.169-1.427c0.102-0.064,0.206-0.124,0.308-0.187
		c0.643-0.397,1.295-0.784,1.957-1.158c0.132-0.074,0.266-0.146,0.398-0.22c0.646-0.359,1.3-0.709,1.963-1.047
		c0.133-0.068,0.267-0.135,0.401-0.202c0.682-0.342,1.373-0.675,2.072-0.996c0.109-0.05,0.218-0.101,0.328-0.15
		c0.757-0.344,1.523-0.677,2.298-0.998c0.048-0.02,0.095-0.04,0.143-0.06c36.589-15.055,92.759-5.46,116.112-28.767
		c3.509-3.502,6.289-7.734,8.138-12.918c11.368,14.989-2.385,49.798-32.065,66.712c-25.345,14.578-55.986,15.495-84.98,13.454
		c17.818,5.591,30.186,2.997,56.384,24.398c33.818,27.702,38.226,70.557,13.336,86.543h5.693
		c14.473-9.931,25.936-35.137,16.093-61.284c14.285,2.426,25.371-5.617,38.81-12.395c8.97-4.531,17.773-7.811,22.499-8.55
		c-4.444-2.458-10.881-8.145-22.89-23.814c-6.495-8.486-13.586-15.913-28.032-17.19c30.551-23.75,30.468-61.539,15.016-73.029
		c-2.231,5.822-6.11,14.411-17.516,19.95c-38.282,18.602-124.656-7.449-146.036,48.508c0,0.001-0.001,0.002-0.001,0.003
		c-0.907,2.374-1.709,4.879-2.373,7.558L587.534,680.589z M746.58,684.921c0.377,0.168,0.74,0.35,1.103,0.531
		c0.12,0.06,0.246,0.115,0.365,0.176c0.006,0.003,0.012,0.007,0.019,0.01c11.521,5.981,16.336,18.48,30.507,25.427
		c-25.711,1.9-37.078,18.679-55.467,8.204c-6.585-3.75-9.756-9.536-18.102-16.178c-0.063-0.05-0.126-0.1-0.19-0.15
		c-0.531-0.419-1.079-0.842-1.653-1.267c-0.112-0.083-0.225-0.166-0.339-0.249c-0.296-0.217-0.594-0.433-0.903-0.651
		c-0.398-0.281-0.806-0.564-1.225-0.848c-0.206-0.139-0.422-0.28-0.634-0.419c-0.331-0.219-0.668-0.439-1.013-0.659
		c-0.199-0.127-0.397-0.253-0.601-0.381c-0.549-0.344-1.108-0.688-1.692-1.034c-4.308-2.548-8.861-4.744-13.56-6.554
		c28.615-1.001,30.238-8.851,50.473-8.602C738.87,682.356,743.04,683.339,746.58,684.921z"/>
</g>
</svg>
